<?xml version="1.0" encoding="utf-8"?>
<!-- Generator: Adobe Illustrator 26.3.1, SVG Export Plug-In . SVG Version: 6.00 Build 0)  -->
<svg version="1.1" id="Warstwa_1" xmlns="http://www.w3.org/2000/svg" x="0px" y="0px"
     viewBox="0 0 1200 500" style="enable-background:new 0 0 1200 500;" xml:space="preserve">
<style type="text/css">
	.st0{fill:#00C3FF;}
	.st1{fill:#CC129C;}
	.st2{fill:#3FA9F5;}
	.st3{font-family:'Consolas';}
	.st4{font-size:72.7571px;}
	.st5{font-size:178px;}
	.st6{fill:#FFFFFF;}
	.st7{fill:#3E9E16;}
	.st8{fill:#4D4D4D;}
</style>
<rect x="-1455.5" y="1280" class="st0" width="1265" height="484"/>
<rect x="-2882.5" class="st1" width="1265" height="1123"/>
<g>
	<path class="st2" d="M946.5,171.9h-35.7c-3.7,0-7.1,2-9,5.2L884,207.9c-1.9,3.2-1.9,7.2,0,10.4l17.8,30.9c1.9,3.2,5.3,5.2,9,5.2
		h35.7c3.7,0,7.1-2,9-5.2l17.8-30.9c1.9-3.2,1.9-7.2,0-10.4l-17.8-30.9C953.7,173.8,950.2,171.9,946.5,171.9z"/>
	<path class="st2" d="M947.7,268.4h-36.3c-3.8,0-7.3,2-9.2,5.3L884,305.3c-1.9,3.3-1.9,7.3,0,10.6l18.2,31.6
		c1.9,3.3,5.4,5.3,9.2,5.3h36.3c3.8,0,7.3-2,9.2-5.3L975,316c1.9-3.3,1.9-7.3,0-10.6l-18.2-31.6
		C954.9,270.4,951.4,268.4,947.7,268.4z"/>
	<path class="st2" d="M1011.9,233.9h-23.6c-2.5,0-4.7,1.3-6,3.5l-11.8,20.6c-1.2,2.1-1.2,4.8,0,6.9l11.8,20.6c1.2,2.1,3.5,3.5,6,3.5
		h23.6c2.5,0,4.7-1.3,6-3.5l11.8-20.6c1.2-2.1,1.2-4.8,0-6.9l-11.8-20.6C1016.6,235.2,1014.3,233.9,1011.9,233.9z"/>
	<path class="st2" d="M767.8,169.9h-35.9c-3.7,0-7.2,2-9.1,5.2l-18,31.1c-1.9,3.2-1.9,7.2,0,10.5l18,31.1c1.9,3.2,5.3,5.2,9.1,5.2
		h35.9c3.7,0,7.2-2,9.1-5.2l18-31.1c1.9-3.2,1.9-7.2,0-10.5l-18-31.1C775,171.9,771.5,169.9,767.8,169.9z"/>
	<text transform="matrix(1 0 0 1 448.8481 260.603)" class="st3 st4">lekcja</text>
	<text transform="matrix(1 0 0 1 79.4487 368.2065)" class="st3 st5">cyfrowa</text>
	<path d="M768.2,78h-28c-1.9,0-3.7,1-4.6,2.7l-14,24.2c-0.9,1.6-0.9,3.7,0,5.3l14,24.2c0.9,1.6,2.7,2.7,4.6,2.7h28
		c1.9,0,3.7-1,4.6-2.7l14-24.2c0.9-1.6,0.9-3.7,0-5.3l-14-24.2C771.8,79,770.1,78,768.2,78z"/>
	<path d="M698,139.5h-9c-0.5,0-0.9,0.2-1.1,0.6l-4.5,7.8c-0.2,0.4-0.2,0.9,0,1.3l4.5,7.8c0.2,0.4,0.7,0.6,1.1,0.6h9
		c0.5,0,0.9-0.2,1.1-0.6l4.5-7.8c0.2-0.4,0.2-0.9,0-1.3l-4.5-7.8C698.8,139.7,698.4,139.5,698,139.5z"/>
	<path d="M1014.5,139.5h-8.7c-0.6,0-1.1,0.3-1.4,0.8l-4.3,7.5c-0.3,0.5-0.3,1.1,0,1.6l4.3,7.5c0.3,0.5,0.8,0.8,1.4,0.8h8.7
		c0.6,0,1.1-0.3,1.4-0.8l4.3-7.5c0.3-0.5,0.3-1.1,0-1.6l-4.3-7.5C1015.6,139.8,1015.1,139.5,1014.5,139.5z"/>
	<path d="M1072,206.8h-8.6c-0.6,0-1.1,0.3-1.4,0.8l-4.3,7.5c-0.3,0.5-0.3,1.1,0,1.6l4.3,7.5c0.3,0.5,0.8,0.8,1.4,0.8h8.6
		c0.6,0,1.1-0.3,1.4-0.8l4.3-7.5c0.3-0.5,0.3-1.1,0-1.6l-4.3-7.5C1073.1,207.1,1072.5,206.8,1072,206.8z"/>
	<path d="M897.9,109.9h-8.5c-0.6,0-1.2,0.3-1.5,0.9l-4.3,7.4c-0.3,0.5-0.3,1.2,0,1.7l4.3,7.4c0.3,0.5,0.9,0.9,1.5,0.9h8.5
		c0.6,0,1.2-0.3,1.5-0.9l4.3-7.4c0.3-0.5,0.3-1.2,0-1.7l-4.3-7.4C899.1,110.3,898.6,109.9,897.9,109.9z"/>
	<path d="M1114.6,313.4h-8.5c-0.6,0-1.2,0.3-1.5,0.9l-4.3,7.4c-0.3,0.5-0.3,1.2,0,1.7l4.3,7.4c0.3,0.5,0.9,0.9,1.5,0.9h8.5
		c0.6,0,1.2-0.3,1.5-0.9l4.3-7.4c0.3-0.5,0.3-1.2,0-1.7l-4.3-7.4C1115.8,313.8,1115.2,313.4,1114.6,313.4z"/>
	<path d="M868.4,334h-14.9c-1.7,0-3.3,0.9-4.1,2.4l-7.5,12.9c-0.8,1.5-0.8,3.3,0,4.7l7.5,12.9c0.8,1.5,2.4,2.4,4.1,2.4h14.9
		c1.7,0,3.3-0.9,4.1-2.4l7.5-12.9c0.8-1.5,0.8-3.3,0-4.7l-7.5-12.9C871.6,334.9,870.1,334,868.4,334z"/>
	<path d="M1001,347.1h-24.3c-3,0-5.8,1.6-7.3,4.2l-12.2,21.1c-1.5,2.6-1.5,5.8,0,8.5l12.2,21.1c1.5,2.6,4.3,4.2,7.3,4.2h24.3
		c3,0,5.8-1.6,7.3-4.2l12.2-21.1c1.5-2.6,1.5-5.8,0-8.5l-12.2-21.1C1006.9,348.8,1004.1,347.1,1001,347.1z"/>
	<path d="M1020.2,286.5l11.4-19.8c1.7-3,1.7-6.7,0-9.7l-11.4-19.8c-1.7-3-5-4.9-8.4-4.9h-22.9c-3.5,0-6.7,1.9-8.4,4.9l-11.4,19.8
		c-1.7,3-1.7,6.7,0,9.7l11.4,19.8c1.7,3,5,4.9,8.4,4.9h22.9C1015.3,291.3,1018.5,289.5,1020.2,286.5z M1018.3,240.4l9.5,16.5
		c1.7,3,1.7,6.7,0,9.7l-9.5,16.5c-1.7,3-5,4.9-8.4,4.9h-19.1c-3.5,0-6.7-1.9-8.4-4.9l-9.5-16.5c-1.7-3-1.7-6.7,0-9.7l9.5-16.5
		c1.7-3,5-4.9,8.4-4.9h19.1C1013.4,235.5,1016.6,237.4,1018.3,240.4z"/>
	<path d="M857.5,217.5h-41.3c-3,0-5.9,1.6-7.4,4.3l-20.7,35.8c-1.5,2.6-1.5,5.9,0,8.5l20.7,35.8c1.5,2.6,4.3,4.3,7.4,4.3h41.3
		c3,0,5.9-1.6,7.4-4.3l20.7-35.8c1.5-2.6,1.5-5.9,0-8.5l-20.7-35.8C863.4,219.1,860.6,217.5,857.5,217.5z"/>
	<path d="M769,166.6h-38.3c-4,0-7.7,2.1-9.7,5.6l-19.1,33.2c-2,3.5-2,7.7,0,11.2l19.1,33.2c2,3.5,5.7,5.6,9.7,5.6H769
		c4,0,7.7-2.1,9.7-5.6l19.1-33.2c2-3.5,2-7.7,0-11.2l-19.1-33.2C776.7,168.7,773,166.6,769,166.6z M767.1,252h-34.5
		c-4,0-7.7-2.1-9.7-5.6l-17.2-29.9c-2-3.5-2-7.7,0-11.2l17.2-29.9c2-3.5,5.7-5.6,9.7-5.6h34.5c4,0,7.7,2.1,9.7,5.6l17.2,29.9
		c2,3.5,2,7.7,0,11.2l-17.2,29.9C774.8,249.8,771.1,252,767.1,252z"/>
	<path d="M944.9,168.3h-32.2c-5.9,0-11.3,3.1-14.2,8.2l-16.1,27.9c-2.9,5.1-2.9,11.3,0,16.4l16.1,27.9c2.9,5.1,8.3,8.2,14.2,8.2
		h32.2c5.9,0,11.3-3.1,14.2-8.2l16.1-27.9c2.9-5.1,2.9-11.3,0-16.4l-16.1-27.9C956.2,171.4,950.8,168.3,944.9,168.3z M941.9,250.3
		h-26.2c-5.4,0-10.4-2.9-13.1-7.5l-13.1-22.7c-2.7-4.7-2.7-10.4,0-15.1l13.1-22.7c2.7-4.7,7.7-7.5,13.1-7.5h26.2
		c5.4,0,10.4,2.9,13.1,7.5L968,205c2.7,4.7,2.7,10.4,0,15.1l-13.1,22.7C952.2,247.4,947.3,250.3,941.9,250.3z"/>
	<path d="M949.1,266.7h-40.6c-3.3,0-6.3,1.7-7.9,4.6l-20.3,35.2c-1.6,2.8-1.6,6.3,0,9.1l20.3,35.2c1.6,2.8,4.6,4.6,7.9,4.6h40.6
		c3.3,0,6.3-1.7,7.9-4.6l20.3-35.2c1.6-2.8,1.6-6.3,0-9.1L957,271.3C955.4,268.5,952.4,266.7,949.1,266.7z M947.2,352.1h-36.8
		c-3.3,0-6.3-1.7-7.9-4.6L884,315.6c-1.6-2.8-1.6-6.3,0-9.1l18.4-31.9c1.6-2.8,4.6-4.6,7.9-4.6h36.8c3.3,0,6.3,1.7,7.9,4.6
		l18.4,31.9c1.6,2.8,1.6,6.3,0,9.1l-18.4,31.9C953.5,350.3,950.5,352.1,947.2,352.1z"/>
	<path d="M886,154.8l-21.4-37.1c-1.3-2.2-3.7-3.6-6.2-3.6H850h-34.6h-10.6c-5.1,0-9.8,2.8-12.3,7.3L781.7,141c-2,3.6-5.8,5.9-10,5.9
		h-80.9v3.3h80.9c5.4,0,10.3-2.9,12.9-7.6l10.8-19.7c1.9-3.4,5.5-5.6,9.4-5.6h4.6c-0.1,0.1-0.1,0.2-0.2,0.3l-21.4,37.1
		c-1.3,2.2-1.3,5,0,7.2l21.4,37.1c1.3,2.2,3.7,3.6,6.2,3.6h42.9c2.6,0,4.9-1.4,6.2-3.6L886,162C887.3,159.8,887.3,157,886,154.8z"/>
	<path d="M887.6,201.9l-2.9-1.6l26.3-46.8c2.3-4.1,6.6-6.6,11.3-6.6h83.6v3.3h-83.6c-3.5,0-6.7,1.9-8.4,4.9L887.6,201.9z"/>
	<path d="M964.7,366l-2.8-1.6l20.8-36.1c2.6-4.6,7.5-7.4,12.8-7.4H1111v3.3H995.5c-4.1,0-7.9,2.2-10,5.8L964.7,366z"/>
	<path d="M976.2,251.1l-2.8-1.6l17.3-30.3c1.8-3.1,5.1-5,8.6-5h64.1v3.3h-64.1c-2.4,0-4.6,1.3-5.8,3.4L976.2,251.1z"/>
</g>
<g>
	<text transform="matrix(1 0 0 1 -966.958 1540.6094)" class="st6 st3 st4">lekcja</text>
	<text transform="matrix(1 0 0 1 -1336.3574 1648.2129)" class="st6 st3 st5">cyfrowa</text>
	<path class="st6" d="M-647.6,1358h-28c-1.9,0-3.7,1-4.6,2.7l-14,24.2c-0.9,1.6-0.9,3.7,0,5.3l14,24.2c0.9,1.6,2.7,2.7,4.6,2.7h28
		c1.9,0,3.7-1,4.6-2.7l14-24.2c0.9-1.6,0.9-3.7,0-5.3l-14-24.2C-644,1359-645.7,1358-647.6,1358z"/>
	<path class="st6" d="M-717.8,1419.5h-9c-0.5,0-0.9,0.2-1.1,0.6l-4.5,7.8c-0.2,0.4-0.2,0.9,0,1.3l4.5,7.8c0.2,0.4,0.7,0.6,1.1,0.6h9
		c0.5,0,0.9-0.2,1.1-0.6l4.5-7.8c0.2-0.4,0.2-0.9,0-1.3l-4.5-7.8C-717,1419.7-717.4,1419.5-717.8,1419.5z"/>
	<path class="st6" d="M-401.3,1419.5h-8.7c-0.6,0-1.1,0.3-1.4,0.8l-4.3,7.5c-0.3,0.5-0.3,1.1,0,1.6l4.3,7.5c0.3,0.5,0.8,0.8,1.4,0.8
		h8.7c0.6,0,1.1-0.3,1.4-0.8l4.3-7.5c0.3-0.5,0.3-1.1,0-1.6l-4.3-7.5C-400.2,1419.8-400.7,1419.5-401.3,1419.5z"/>
	<path class="st6" d="M-343.9,1486.8h-8.6c-0.6,0-1.1,0.3-1.4,0.8l-4.3,7.5c-0.3,0.5-0.3,1.1,0,1.6l4.3,7.5c0.3,0.5,0.8,0.8,1.4,0.8
		h8.6c0.6,0,1.1-0.3,1.4-0.8l4.3-7.5c0.3-0.5,0.3-1.1,0-1.6l-4.3-7.5C-342.7,1487.1-343.3,1486.8-343.9,1486.8z"/>
	<path class="st6" d="M-517.9,1389.9h-8.5c-0.6,0-1.2,0.3-1.5,0.9l-4.3,7.4c-0.3,0.5-0.3,1.2,0,1.7l4.3,7.4c0.3,0.5,0.9,0.9,1.5,0.9
		h8.5c0.6,0,1.2-0.3,1.5-0.9l4.3-7.4c0.3-0.5,0.3-1.2,0-1.7l-4.3-7.4C-516.7,1390.3-517.3,1389.9-517.9,1389.9z"/>
	<path class="st6" d="M-301.2,1593.4h-8.5c-0.6,0-1.2,0.3-1.5,0.9l-4.3,7.4c-0.3,0.5-0.3,1.2,0,1.7l4.3,7.4c0.3,0.5,0.9,0.9,1.5,0.9
		h8.5c0.6,0,1.2-0.3,1.5-0.9l4.3-7.4c0.3-0.5,0.3-1.2,0-1.7l-4.3-7.4C-300.1,1593.8-300.6,1593.4-301.2,1593.4z"/>
	<path class="st6" d="M-547.4,1614h-14.9c-1.7,0-3.3,0.9-4.1,2.4l-7.5,12.9c-0.8,1.5-0.8,3.3,0,4.7l7.5,12.9
		c0.8,1.5,2.4,2.4,4.1,2.4h14.9c1.7,0,3.3-0.9,4.1-2.4l7.5-12.9c0.8-1.5,0.8-3.3,0-4.7l-7.5-12.9
		C-544.2,1614.9-545.7,1614-547.4,1614z"/>
	<path class="st6" d="M-414.8,1627.2h-24.3c-3,0-5.8,1.6-7.3,4.2l-12.2,21.1c-1.5,2.6-1.5,5.8,0,8.5l12.2,21.1
		c1.5,2.6,4.3,4.2,7.3,4.2h24.3c3,0,5.8-1.6,7.3-4.2l12.2-21.1c1.5-2.6,1.5-5.8,0-8.5l-12.2-21.1
		C-409,1628.8-411.7,1627.2-414.8,1627.2z"/>
	<path class="st6" d="M-395.6,1566.5l11.4-19.8c1.7-3,1.7-6.7,0-9.7l-11.4-19.8c-1.7-3-5-4.9-8.4-4.9h-22.9c-3.5,0-6.7,1.9-8.4,4.9
		l-11.4,19.8c-1.7,3-1.7,6.7,0,9.7l11.4,19.8c1.7,3,5,4.9,8.4,4.9h22.9C-400.5,1571.4-397.3,1569.5-395.6,1566.5z M-397.5,1520.4
		l9.5,16.5c1.7,3,1.7,6.7,0,9.7l-9.5,16.5c-1.7,3-5,4.9-8.4,4.9H-425c-3.5,0-6.7-1.9-8.4-4.9l-9.5-16.5c-1.7-3-1.7-6.7,0-9.7
		l9.5-16.5c1.7-3,5-4.9,8.4-4.9h19.1C-402.4,1515.6-399.2,1517.4-397.5,1520.4z"/>
	<path class="st6" d="M-557.5,1394.1h-42.9c-2.6,0-4.9,1.4-6.2,3.6l-21.4,37.1c-1.3,2.2-1.3,5,0,7.2l21.4,37.1
		c1.3,2.2,3.7,3.6,6.2,3.6h42.9c2.6,0,4.9-1.4,6.2-3.6l21.4-37.1c1.3-2.2,1.3-5,0-7.2l-21.4-37.1
		C-552.6,1395.5-554.9,1394.1-557.5,1394.1z"/>
	<path class="st6" d="M-558.3,1497.5h-41.3c-3,0-5.9,1.6-7.4,4.3l-20.7,35.8c-1.5,2.6-1.5,5.9,0,8.5l20.7,35.8
		c1.5,2.6,4.3,4.3,7.4,4.3h41.3c3,0,5.9-1.6,7.4-4.3l20.7-35.8c1.5-2.6,1.5-5.9,0-8.5l-20.7-35.8
		C-552.4,1499.1-555.2,1497.5-558.3,1497.5z"/>
	<path class="st6" d="M-646.8,1446.6h-38.3c-4,0-7.7,2.1-9.7,5.6l-19.1,33.2c-2,3.5-2,7.7,0,11.2l19.1,33.2c2,3.5,5.7,5.6,9.7,5.6
		h38.3c4,0,7.7-2.1,9.7-5.6l19.1-33.2c2-3.5,2-7.7,0-11.2l-19.1-33.2C-639.1,1448.8-642.8,1446.6-646.8,1446.6z M-648.7,1532h-34.5
		c-4,0-7.7-2.1-9.7-5.6l-17.2-29.9c-2-3.5-2-7.7,0-11.2l17.2-29.9c2-3.5,5.7-5.6,9.7-5.6h34.5c4,0,7.7,2.1,9.7,5.6l17.2,29.9
		c2,3.5,2,7.7,0,11.2l-17.2,29.9C-641,1529.8-644.7,1532-648.7,1532z"/>
	<path class="st6" d="M-470.9,1448.3h-32.2c-5.9,0-11.3,3.1-14.2,8.2l-16.1,27.9c-2.9,5.1-2.9,11.3,0,16.4l16.1,27.9
		c2.9,5.1,8.3,8.2,14.2,8.2h32.2c5.9,0,11.3-3.1,14.2-8.2l16.1-27.9c2.9-5.1,2.9-11.3,0-16.4l-16.1-27.9
		C-459.6,1451.4-465,1448.3-470.9,1448.3z M-473.9,1530.3h-26.2c-5.4,0-10.4-2.9-13.1-7.5l-13.1-22.7c-2.7-4.7-2.7-10.4,0-15.1
		l13.1-22.7c2.7-4.7,7.7-7.5,13.1-7.5h26.2c5.4,0,10.4,2.9,13.1,7.5l13.1,22.7c2.7,4.7,2.7,10.4,0,15.1l-13.1,22.7
		C-463.6,1527.4-468.5,1530.3-473.9,1530.3z"/>
	<path class="st6" d="M-466.7,1546.7h-40.6c-3.3,0-6.3,1.7-7.9,4.6l-20.3,35.2c-1.6,2.8-1.6,6.3,0,9.1l20.3,35.2
		c1.6,2.8,4.6,4.6,7.9,4.6h40.6c3.3,0,6.3-1.7,7.9-4.6l20.3-35.2c1.6-2.8,1.6-6.3,0-9.1l-20.3-35.2
		C-460.4,1548.5-463.4,1546.7-466.7,1546.7z M-468.6,1632.1h-36.8c-3.3,0-6.3-1.7-7.9-4.6l-18.4-31.9c-1.6-2.8-1.6-6.3,0-9.1
		l18.4-31.9c1.6-2.8,4.6-4.6,7.9-4.6h36.8c3.3,0,6.3,1.7,7.9,4.6l18.4,31.9c1.6,2.8,1.6,6.3,0,9.1l-18.4,31.9
		C-462.3,1630.3-465.3,1632.1-468.6,1632.1z"/>
	<path class="st6" d="M-644.1,1430.2H-725v-3.3h80.9c4.2,0,8-2.3,10-5.9l10.8-19.7c2.5-4.5,7.2-7.3,12.3-7.3h45.2v3.3H-611
		c-3.9,0-7.5,2.1-9.4,5.6l-10.8,19.7C-633.8,1427.3-638.7,1430.2-644.1,1430.2z"/>
	<path class="st6" d="M-528.2,1481.9l-2.9-1.6l26.3-46.8c2.3-4.1,6.6-6.6,11.3-6.6h83.6v3.3h-83.6c-3.5,0-6.7,1.9-8.4,4.9
		L-528.2,1481.9z"/>
	<path class="st6" d="M-451.1,1646l-2.8-1.6l20.8-36.1c2.6-4.6,7.5-7.4,12.8-7.4h115.5v3.3h-115.5c-4.1,0-7.9,2.2-10,5.8
		L-451.1,1646z"/>
	<path class="st6" d="M-439.6,1531.1l-2.8-1.6l17.3-30.3c1.8-3.1,5.1-5,8.6-5h64.1v3.3h-64.1c-2.4,0-4.6,1.3-5.8,3.4L-439.6,1531.1z
		"/>
</g>
<rect x="-53.5" y="1926" class="st7" width="1265" height="484"/>
<g>
	<text transform="matrix(1 0 0 1 435.042 2186.6094)" class="st6 st3 st4">lekcja</text>
	<text transform="matrix(1 0 0 1 65.6426 2294.2129)" class="st6 st3 st5">cyfrowa</text>
	<path class="st6" d="M754.4,2004h-28c-1.9,0-3.7,1-4.6,2.7l-14,24.2c-0.9,1.6-0.9,3.7,0,5.3l14,24.2c0.9,1.6,2.7,2.7,4.6,2.7h28
		c1.9,0,3.7-1,4.6-2.7l14-24.2c0.9-1.6,0.9-3.7,0-5.3l-14-24.2C758,2005,756.3,2004,754.4,2004z"/>
	<path class="st6" d="M684.2,2065.5h-9c-0.5,0-0.9,0.2-1.1,0.6l-4.5,7.8c-0.2,0.4-0.2,0.9,0,1.3l4.5,7.8c0.2,0.4,0.7,0.6,1.1,0.6h9
		c0.5,0,0.9-0.2,1.1-0.6l4.5-7.8c0.2-0.4,0.2-0.9,0-1.3l-4.5-7.8C685,2065.7,684.6,2065.5,684.2,2065.5z"/>
	<path class="st6" d="M1000.7,2065.5h-8.7c-0.6,0-1.1,0.3-1.4,0.8l-4.3,7.5c-0.3,0.5-0.3,1.1,0,1.6l4.3,7.5c0.3,0.5,0.8,0.8,1.4,0.8
		h8.7c0.6,0,1.1-0.3,1.4-0.8l4.3-7.5c0.3-0.5,0.3-1.1,0-1.6l-4.3-7.5C1001.8,2065.8,1001.3,2065.5,1000.7,2065.5z"/>
	<path class="st6" d="M1058.1,2132.8h-8.6c-0.6,0-1.1,0.3-1.4,0.8l-4.3,7.5c-0.3,0.5-0.3,1.1,0,1.6l4.3,7.5c0.3,0.5,0.8,0.8,1.4,0.8
		h8.6c0.6,0,1.1-0.3,1.4-0.8l4.3-7.5c0.3-0.5,0.3-1.1,0-1.6l-4.3-7.5C1059.3,2133.1,1058.7,2132.8,1058.1,2132.8z"/>
	<path class="st6" d="M884.1,2035.9h-8.5c-0.6,0-1.2,0.3-1.5,0.9l-4.3,7.4c-0.3,0.5-0.3,1.2,0,1.7l4.3,7.4c0.3,0.5,0.9,0.9,1.5,0.9
		h8.5c0.6,0,1.2-0.3,1.5-0.9l4.3-7.4c0.3-0.5,0.3-1.2,0-1.7l-4.3-7.4C885.3,2036.3,884.7,2035.9,884.1,2035.9z"/>
	<path class="st6" d="M1100.8,2239.4h-8.5c-0.6,0-1.2,0.3-1.5,0.9l-4.3,7.4c-0.3,0.5-0.3,1.2,0,1.7l4.3,7.4c0.3,0.5,0.9,0.9,1.5,0.9
		h8.5c0.6,0,1.2-0.3,1.5-0.9l4.3-7.4c0.3-0.5,0.3-1.2,0-1.7l-4.3-7.4C1101.9,2239.8,1101.4,2239.4,1100.8,2239.4z"/>
	<path class="st6" d="M854.6,2260h-14.9c-1.7,0-3.3,0.9-4.1,2.4l-7.5,12.9c-0.8,1.5-0.8,3.3,0,4.7l7.5,12.9c0.8,1.5,2.4,2.4,4.1,2.4
		h14.9c1.7,0,3.3-0.9,4.1-2.4l7.5-12.9c0.8-1.5,0.8-3.3,0-4.7l-7.5-12.9C857.8,2260.9,856.3,2260,854.6,2260z"/>
	<path class="st6" d="M987.2,2273.2h-24.3c-3,0-5.8,1.6-7.3,4.2l-12.2,21.1c-1.5,2.6-1.5,5.8,0,8.5l12.2,21.1
		c1.5,2.6,4.3,4.2,7.3,4.2h24.3c3,0,5.8-1.6,7.3-4.2l12.2-21.1c1.5-2.6,1.5-5.8,0-8.5l-12.2-21.1
		C993,2274.8,990.3,2273.2,987.2,2273.2z"/>
	<path class="st6" d="M1006.4,2212.5l11.4-19.8c1.7-3,1.7-6.7,0-9.7l-11.4-19.8c-1.7-3-5-4.9-8.4-4.9h-22.9c-3.5,0-6.7,1.9-8.4,4.9
		l-11.4,19.8c-1.7,3-1.7,6.7,0,9.7l11.4,19.8c1.7,3,5,4.9,8.4,4.9H998C1001.5,2217.4,1004.7,2215.5,1006.4,2212.5z M1004.5,2166.4
		l9.5,16.5c1.7,3,1.7,6.7,0,9.7l-9.5,16.5c-1.7,3-5,4.9-8.4,4.9H977c-3.5,0-6.7-1.9-8.4-4.9l-9.5-16.5c-1.7-3-1.7-6.7,0-9.7
		l9.5-16.5c1.7-3,5-4.9,8.4-4.9h19.1C999.6,2161.6,1002.8,2163.4,1004.5,2166.4z"/>
	<path class="st6" d="M844.5,2040.1h-42.9c-2.6,0-4.9,1.4-6.2,3.6l-21.4,37.1c-1.3,2.2-1.3,5,0,7.2l21.4,37.1
		c1.3,2.2,3.7,3.6,6.2,3.6h42.9c2.6,0,4.9-1.4,6.2-3.6l21.4-37.1c1.3-2.2,1.3-5,0-7.2l-21.4-37.1
		C849.4,2041.5,847.1,2040.1,844.5,2040.1z"/>
	<path class="st6" d="M843.7,2143.5h-41.3c-3,0-5.9,1.6-7.4,4.3l-20.7,35.8c-1.5,2.6-1.5,5.9,0,8.5l20.7,35.8
		c1.5,2.6,4.3,4.3,7.4,4.3h41.3c3,0,5.9-1.6,7.4-4.3l20.7-35.8c1.5-2.6,1.5-5.9,0-8.5l-20.7-35.8
		C849.6,2145.1,846.8,2143.5,843.7,2143.5z"/>
	<path class="st6" d="M755.2,2092.6h-38.3c-4,0-7.7,2.1-9.7,5.6l-19.1,33.2c-2,3.5-2,7.7,0,11.2l19.1,33.2c2,3.5,5.7,5.6,9.7,5.6
		h38.3c4,0,7.7-2.1,9.7-5.6l19.1-33.2c2-3.5,2-7.7,0-11.2l-19.1-33.2C762.9,2094.8,759.2,2092.6,755.2,2092.6z M753.3,2178h-34.5
		c-4,0-7.7-2.1-9.7-5.6l-17.2-29.9c-2-3.5-2-7.7,0-11.2l17.2-29.9c2-3.5,5.7-5.6,9.7-5.6h34.5c4,0,7.7,2.1,9.7,5.6l17.2,29.9
		c2,3.5,2,7.7,0,11.2l-17.2,29.9C761,2175.8,757.3,2178,753.3,2178z"/>
	<path class="st6" d="M931.1,2094.3h-32.2c-5.9,0-11.3,3.1-14.2,8.2l-16.1,27.9c-2.9,5.1-2.9,11.3,0,16.4l16.1,27.9
		c2.9,5.1,8.3,8.2,14.2,8.2h32.2c5.9,0,11.3-3.1,14.2-8.2l16.1-27.9c2.9-5.1,2.9-11.3,0-16.4l-16.1-27.9
		C942.4,2097.4,937,2094.3,931.1,2094.3z M928.1,2176.3h-26.2c-5.4,0-10.4-2.9-13.1-7.5l-13.1-22.7c-2.7-4.7-2.7-10.4,0-15.1
		l13.1-22.7c2.7-4.7,7.7-7.5,13.1-7.5h26.2c5.4,0,10.4,2.9,13.1,7.5l13.1,22.7c2.7,4.7,2.7,10.4,0,15.1l-13.1,22.7
		C938.4,2173.4,933.5,2176.3,928.1,2176.3z"/>
	<path class="st6" d="M935.3,2192.7h-40.6c-3.3,0-6.3,1.7-7.9,4.6l-20.3,35.2c-1.6,2.8-1.6,6.3,0,9.1l20.3,35.2
		c1.6,2.8,4.6,4.6,7.9,4.6h40.6c3.3,0,6.3-1.7,7.9-4.6l20.3-35.2c1.6-2.8,1.6-6.3,0-9.1l-20.3-35.2
		C941.6,2194.5,938.6,2192.7,935.3,2192.7z M933.4,2278.1h-36.8c-3.3,0-6.3-1.7-7.9-4.6l-18.4-31.9c-1.6-2.8-1.6-6.3,0-9.1
		l18.4-31.9c1.6-2.8,4.6-4.6,7.9-4.6h36.8c3.3,0,6.3,1.7,7.9,4.6l18.4,31.9c1.6,2.8,1.6,6.3,0,9.1l-18.4,31.9
		C939.7,2276.3,936.7,2278.1,933.4,2278.1z"/>
	<path class="st6" d="M757.9,2076.2H677v-3.3h80.9c4.2,0,8-2.3,10-5.9l10.8-19.7c2.5-4.5,7.2-7.3,12.3-7.3h45.2v3.3H791
		c-3.9,0-7.5,2.1-9.4,5.6l-10.8,19.7C768.2,2073.3,763.3,2076.2,757.9,2076.2z"/>
	<path class="st6" d="M873.8,2127.9l-2.9-1.6l26.3-46.8c2.3-4.1,6.6-6.6,11.3-6.6h83.6v3.3h-83.6c-3.5,0-6.7,1.9-8.4,4.9
		L873.8,2127.9z"/>
	<path class="st6" d="M950.9,2292l-2.8-1.6l20.8-36.1c2.6-4.6,7.5-7.4,12.8-7.4h115.5v3.3H981.7c-4.1,0-7.9,2.2-10,5.8L950.9,2292z"
		/>
	<path class="st6" d="M962.4,2177.1l-2.8-1.6l17.3-30.3c1.8-3.1,5.1-5,8.6-5h64.1v3.3h-64.1c-2.4,0-4.6,1.3-5.8,3.4L962.4,2177.1z"
		/>
</g>
<rect x="-53.5" y="1280" class="st8" width="1265" height="484"/>
<g>
	<text transform="matrix(1 0 0 1 435.042 1540.6094)" class="st6 st3 st4">lekcja</text>
	<text transform="matrix(1 0 0 1 65.6426 1648.2129)" class="st6 st3 st5">cyfrowa</text>
	<path class="st6" d="M754.4,1358h-28c-1.9,0-3.7,1-4.6,2.7l-14,24.2c-0.9,1.6-0.9,3.7,0,5.3l14,24.2c0.9,1.6,2.7,2.7,4.6,2.7h28
		c1.9,0,3.7-1,4.6-2.7l14-24.2c0.9-1.6,0.9-3.7,0-5.3l-14-24.2C758,1359,756.3,1358,754.4,1358z"/>
	<path class="st6" d="M684.2,1419.5h-9c-0.5,0-0.9,0.2-1.1,0.6l-4.5,7.8c-0.2,0.4-0.2,0.9,0,1.3l4.5,7.8c0.2,0.4,0.7,0.6,1.1,0.6h9
		c0.5,0,0.9-0.2,1.1-0.6l4.5-7.8c0.2-0.4,0.2-0.9,0-1.3l-4.5-7.8C685,1419.7,684.6,1419.5,684.2,1419.5z"/>
	<path class="st6" d="M1000.7,1419.5h-8.7c-0.6,0-1.1,0.3-1.4,0.8l-4.3,7.5c-0.3,0.5-0.3,1.1,0,1.6l4.3,7.5c0.3,0.5,0.8,0.8,1.4,0.8
		h8.7c0.6,0,1.1-0.3,1.4-0.8l4.3-7.5c0.3-0.5,0.3-1.1,0-1.6l-4.3-7.5C1001.8,1419.8,1001.3,1419.5,1000.7,1419.5z"/>
	<path class="st6" d="M1058.1,1486.8h-8.6c-0.6,0-1.1,0.3-1.4,0.8l-4.3,7.5c-0.3,0.5-0.3,1.1,0,1.6l4.3,7.5c0.3,0.5,0.8,0.8,1.4,0.8
		h8.6c0.6,0,1.1-0.3,1.4-0.8l4.3-7.5c0.3-0.5,0.3-1.1,0-1.6l-4.3-7.5C1059.3,1487.1,1058.7,1486.8,1058.1,1486.8z"/>
	<path class="st6" d="M884.1,1389.9h-8.5c-0.6,0-1.2,0.3-1.5,0.9l-4.3,7.4c-0.3,0.5-0.3,1.2,0,1.7l4.3,7.4c0.3,0.5,0.9,0.9,1.5,0.9
		h8.5c0.6,0,1.2-0.3,1.5-0.9l4.3-7.4c0.3-0.5,0.3-1.2,0-1.7l-4.3-7.4C885.3,1390.3,884.7,1389.9,884.1,1389.9z"/>
	<path class="st6" d="M1100.8,1593.4h-8.5c-0.6,0-1.2,0.3-1.5,0.9l-4.3,7.4c-0.3,0.5-0.3,1.2,0,1.7l4.3,7.4c0.3,0.5,0.9,0.9,1.5,0.9
		h8.5c0.6,0,1.2-0.3,1.5-0.9l4.3-7.4c0.3-0.5,0.3-1.2,0-1.7l-4.3-7.4C1101.9,1593.8,1101.4,1593.4,1100.8,1593.4z"/>
	<path class="st6" d="M854.6,1614h-14.9c-1.7,0-3.3,0.9-4.1,2.4l-7.5,12.9c-0.8,1.5-0.8,3.3,0,4.7l7.5,12.9c0.8,1.5,2.4,2.4,4.1,2.4
		h14.9c1.7,0,3.3-0.9,4.1-2.4l7.5-12.9c0.8-1.5,0.8-3.3,0-4.7l-7.5-12.9C857.8,1614.9,856.3,1614,854.6,1614z"/>
	<path class="st6" d="M987.2,1627.2h-24.3c-3,0-5.8,1.6-7.3,4.2l-12.2,21.1c-1.5,2.6-1.5,5.8,0,8.5l12.2,21.1
		c1.5,2.6,4.3,4.2,7.3,4.2h24.3c3,0,5.8-1.6,7.3-4.2l12.2-21.1c1.5-2.6,1.5-5.8,0-8.5l-12.2-21.1
		C993,1628.8,990.3,1627.2,987.2,1627.2z"/>
	<path class="st6" d="M1006.4,1566.5l11.4-19.8c1.7-3,1.7-6.7,0-9.7l-11.4-19.8c-1.7-3-5-4.9-8.4-4.9h-22.9c-3.5,0-6.7,1.9-8.4,4.9
		l-11.4,19.8c-1.7,3-1.7,6.7,0,9.7l11.4,19.8c1.7,3,5,4.9,8.4,4.9H998C1001.5,1571.4,1004.7,1569.5,1006.4,1566.5z M1004.5,1520.4
		l9.5,16.5c1.7,3,1.7,6.7,0,9.7l-9.5,16.5c-1.7,3-5,4.9-8.4,4.9H977c-3.5,0-6.7-1.9-8.4-4.9l-9.5-16.5c-1.7-3-1.7-6.7,0-9.7
		l9.5-16.5c1.7-3,5-4.9,8.4-4.9h19.1C999.6,1515.6,1002.8,1517.4,1004.5,1520.4z"/>
	<path class="st6" d="M844.5,1394.1h-42.9c-2.6,0-4.9,1.4-6.2,3.6l-21.4,37.1c-1.3,2.2-1.3,5,0,7.2l21.4,37.1
		c1.3,2.2,3.7,3.6,6.2,3.6h42.9c2.6,0,4.9-1.4,6.2-3.6l21.4-37.1c1.3-2.2,1.3-5,0-7.2l-21.4-37.1
		C849.4,1395.5,847.1,1394.1,844.5,1394.1z"/>
	<path class="st6" d="M843.7,1497.5h-41.3c-3,0-5.9,1.6-7.4,4.3l-20.7,35.8c-1.5,2.6-1.5,5.9,0,8.5l20.7,35.8
		c1.5,2.6,4.3,4.3,7.4,4.3h41.3c3,0,5.9-1.6,7.4-4.3l20.7-35.8c1.5-2.6,1.5-5.9,0-8.5l-20.7-35.8
		C849.6,1499.1,846.8,1497.5,843.7,1497.5z"/>
	<path class="st6" d="M755.2,1446.6h-38.3c-4,0-7.7,2.1-9.7,5.6l-19.1,33.2c-2,3.5-2,7.7,0,11.2l19.1,33.2c2,3.5,5.7,5.6,9.7,5.6
		h38.3c4,0,7.7-2.1,9.7-5.6l19.1-33.2c2-3.5,2-7.7,0-11.2l-19.1-33.2C762.9,1448.8,759.2,1446.6,755.2,1446.6z M753.3,1532h-34.5
		c-4,0-7.7-2.1-9.7-5.6l-17.2-29.9c-2-3.5-2-7.7,0-11.2l17.2-29.9c2-3.5,5.7-5.6,9.7-5.6h34.5c4,0,7.7,2.1,9.7,5.6l17.2,29.9
		c2,3.5,2,7.7,0,11.2l-17.2,29.9C761,1529.8,757.3,1532,753.3,1532z"/>
	<path class="st6" d="M931.1,1448.3h-32.2c-5.9,0-11.3,3.1-14.2,8.2l-16.1,27.9c-2.9,5.1-2.9,11.3,0,16.4l16.1,27.9
		c2.9,5.1,8.3,8.2,14.2,8.2h32.2c5.9,0,11.3-3.1,14.2-8.2l16.1-27.9c2.9-5.1,2.9-11.3,0-16.4l-16.1-27.9
		C942.4,1451.4,937,1448.3,931.1,1448.3z M928.1,1530.3h-26.2c-5.4,0-10.4-2.9-13.1-7.5l-13.1-22.7c-2.7-4.7-2.7-10.4,0-15.1
		l13.1-22.7c2.7-4.7,7.7-7.5,13.1-7.5h26.2c5.4,0,10.4,2.9,13.1,7.5l13.1,22.7c2.7,4.7,2.7,10.4,0,15.1l-13.1,22.7
		C938.4,1527.4,933.5,1530.3,928.1,1530.3z"/>
	<path class="st6" d="M935.3,1546.7h-40.6c-3.3,0-6.3,1.7-7.9,4.6l-20.3,35.2c-1.6,2.8-1.6,6.3,0,9.1l20.3,35.2
		c1.6,2.8,4.6,4.6,7.9,4.6h40.6c3.3,0,6.3-1.7,7.9-4.6l20.3-35.2c1.6-2.8,1.6-6.3,0-9.1l-20.3-35.2
		C941.6,1548.5,938.6,1546.7,935.3,1546.7z M933.4,1632.1h-36.8c-3.3,0-6.3-1.7-7.9-4.6l-18.4-31.9c-1.6-2.8-1.6-6.3,0-9.1
		l18.4-31.9c1.6-2.8,4.6-4.6,7.9-4.6h36.8c3.3,0,6.3,1.7,7.9,4.6l18.4,31.9c1.6,2.8,1.6,6.3,0,9.1l-18.4,31.9
		C939.7,1630.3,936.7,1632.1,933.4,1632.1z"/>
	<path class="st6" d="M757.9,1430.2H677v-3.3h80.9c4.2,0,8-2.3,10-5.9l10.8-19.7c2.5-4.5,7.2-7.3,12.3-7.3h45.2v3.3H791
		c-3.9,0-7.5,2.1-9.4,5.6l-10.8,19.7C768.2,1427.3,763.3,1430.2,757.9,1430.2z"/>
	<path class="st6" d="M873.8,1481.9l-2.9-1.6l26.3-46.8c2.3-4.1,6.6-6.6,11.3-6.6h83.6v3.3h-83.6c-3.5,0-6.7,1.9-8.4,4.9
		L873.8,1481.9z"/>
	<path class="st6" d="M950.9,1646l-2.8-1.6l20.8-36.1c2.6-4.6,7.5-7.4,12.8-7.4h115.5v3.3H981.7c-4.1,0-7.9,2.2-10,5.8L950.9,1646z"
		/>
	<path class="st6" d="M962.4,1531.1l-2.8-1.6l17.3-30.3c1.8-3.1,5.1-5,8.6-5h64.1v3.3h-64.1c-2.4,0-4.6,1.3-5.8,3.4L962.4,1531.1z"
		/>
</g>
<g>
	<text transform="matrix(1 0 0 1 -763.958 873.6094)" class="st3 st4">lekcja</text>
	<text transform="matrix(1 0 0 1 -1133.3574 981.2129)" class="st3 st5">cyfrowa</text>
	<path d="M-444.6,691h-28c-1.9,0-3.7,1-4.6,2.7l-14,24.2c-0.9,1.6-0.9,3.7,0,5.3l14,24.2c0.9,1.6,2.7,2.7,4.6,2.7h28
		c1.9,0,3.7-1,4.6-2.7l14-24.2c0.9-1.6,0.9-3.7,0-5.3l-14-24.2C-441,692-442.7,691-444.6,691z"/>
	<path d="M-514.8,752.5h-9c-0.5,0-0.9,0.2-1.1,0.6l-4.5,7.8c-0.2,0.4-0.2,0.9,0,1.3l4.5,7.8c0.2,0.4,0.7,0.6,1.1,0.6h9
		c0.5,0,0.9-0.2,1.1-0.6l4.5-7.8c0.2-0.4,0.2-0.9,0-1.3l-4.5-7.8C-514,752.7-514.4,752.5-514.8,752.5z"/>
	<path d="M-198.3,752.5h-8.7c-0.6,0-1.1,0.3-1.4,0.8l-4.3,7.5c-0.3,0.5-0.3,1.1,0,1.6l4.3,7.5c0.3,0.5,0.8,0.8,1.4,0.8h8.7
		c0.6,0,1.1-0.3,1.4-0.8l4.3-7.5c0.3-0.5,0.3-1.1,0-1.6l-4.3-7.5C-197.2,752.8-197.7,752.5-198.3,752.5z"/>
	<path d="M-140.9,819.8h-8.6c-0.6,0-1.1,0.3-1.4,0.8l-4.3,7.5c-0.3,0.5-0.3,1.1,0,1.6l4.3,7.5c0.3,0.5,0.8,0.8,1.4,0.8h8.6
		c0.6,0,1.1-0.3,1.4-0.8l4.3-7.5c0.3-0.5,0.3-1.1,0-1.6l-4.3-7.5C-139.7,820.1-140.3,819.8-140.9,819.8z"/>
	<path d="M-314.9,722.9h-8.5c-0.6,0-1.2,0.3-1.5,0.9l-4.3,7.4c-0.3,0.5-0.3,1.2,0,1.7l4.3,7.4c0.3,0.5,0.9,0.9,1.5,0.9h8.5
		c0.6,0,1.2-0.3,1.5-0.9l4.3-7.4c0.3-0.5,0.3-1.2,0-1.7l-4.3-7.4C-313.7,723.3-314.3,722.9-314.9,722.9z"/>
	<path d="M-98.2,926.4h-8.5c-0.6,0-1.2,0.3-1.5,0.9l-4.3,7.4c-0.3,0.5-0.3,1.2,0,1.7l4.3,7.4c0.3,0.5,0.9,0.9,1.5,0.9h8.5
		c0.6,0,1.2-0.3,1.5-0.9l4.3-7.4c0.3-0.5,0.3-1.2,0-1.7l-4.3-7.4C-97.1,926.8-97.6,926.4-98.2,926.4z"/>
	<path d="M-344.4,947h-14.9c-1.7,0-3.3,0.9-4.1,2.4l-7.5,12.9c-0.8,1.5-0.8,3.3,0,4.7l7.5,12.9c0.8,1.5,2.4,2.4,4.1,2.4h14.9
		c1.7,0,3.3-0.9,4.1-2.4l7.5-12.9c0.8-1.5,0.8-3.3,0-4.7l-7.5-12.9C-341.2,947.9-342.7,947-344.4,947z"/>
	<path d="M-211.8,960.2h-24.3c-3,0-5.8,1.6-7.3,4.2l-12.2,21.1c-1.5,2.6-1.5,5.8,0,8.5l12.2,21.1c1.5,2.6,4.3,4.2,7.3,4.2h24.3
		c3,0,5.8-1.6,7.3-4.2l12.2-21.1c1.5-2.6,1.5-5.8,0-8.5l-12.2-21.1C-206,961.8-208.7,960.2-211.8,960.2z"/>
	<path d="M-192.6,899.5l11.4-19.8c1.7-3,1.7-6.7,0-9.7l-11.4-19.8c-1.7-3-5-4.9-8.4-4.9h-22.9c-3.5,0-6.7,1.9-8.4,4.9l-11.4,19.8
		c-1.7,3-1.7,6.7,0,9.7l11.4,19.8c1.7,3,5,4.9,8.4,4.9h22.9C-197.5,904.4-194.3,902.5-192.6,899.5z M-194.5,853.4l9.5,16.5
		c1.7,3,1.7,6.7,0,9.7l-9.5,16.5c-1.7,3-5,4.9-8.4,4.9H-222c-3.5,0-6.7-1.9-8.4-4.9l-9.5-16.5c-1.7-3-1.7-6.7,0-9.7l9.5-16.5
		c1.7-3,5-4.9,8.4-4.9h19.1C-199.4,848.6-196.2,850.4-194.5,853.4z"/>
	<path d="M-354.5,727.1h-42.9c-2.6,0-4.9,1.4-6.2,3.6l-21.4,37.1c-1.3,2.2-1.3,5,0,7.2l21.4,37.1c1.3,2.2,3.7,3.6,6.2,3.6h42.9
		c2.6,0,4.9-1.4,6.2-3.6l21.4-37.1c1.3-2.2,1.3-5,0-7.2l-21.4-37.1C-349.6,728.5-351.9,727.1-354.5,727.1z"/>
	<path d="M-355.3,830.5h-41.3c-3,0-5.9,1.6-7.4,4.3l-20.7,35.8c-1.5,2.6-1.5,5.9,0,8.5l20.7,35.8c1.5,2.6,4.3,4.3,7.4,4.3h41.3
		c3,0,5.9-1.6,7.4-4.3l20.7-35.8c1.5-2.6,1.5-5.9,0-8.5l-20.7-35.8C-349.4,832.1-352.2,830.5-355.3,830.5z"/>
	<path d="M-443.8,779.6h-38.3c-4,0-7.7,2.1-9.7,5.6l-19.1,33.2c-2,3.5-2,7.7,0,11.2l19.1,33.2c2,3.5,5.7,5.6,9.7,5.6h38.3
		c4,0,7.7-2.1,9.7-5.6l19.1-33.2c2-3.5,2-7.7,0-11.2l-19.1-33.2C-436.1,781.8-439.8,779.6-443.8,779.6z M-445.7,865h-34.5
		c-4,0-7.7-2.1-9.7-5.6l-17.2-29.9c-2-3.5-2-7.7,0-11.2l17.2-29.9c2-3.5,5.7-5.6,9.7-5.6h34.5c4,0,7.7,2.1,9.7,5.6l17.2,29.9
		c2,3.5,2,7.7,0,11.2l-17.2,29.9C-438,862.8-441.7,865-445.7,865z"/>
	<path d="M-267.9,781.3h-32.2c-5.9,0-11.3,3.1-14.2,8.2l-16.1,27.9c-2.9,5.1-2.9,11.3,0,16.4l16.1,27.9c2.9,5.1,8.3,8.2,14.2,8.2
		h32.2c5.9,0,11.3-3.1,14.2-8.2l16.1-27.9c2.9-5.1,2.9-11.3,0-16.4l-16.1-27.9C-256.6,784.4-262,781.3-267.9,781.3z M-270.9,863.3
		h-26.2c-5.4,0-10.4-2.9-13.1-7.5l-13.1-22.7c-2.7-4.7-2.7-10.4,0-15.1l13.1-22.7c2.7-4.7,7.7-7.5,13.1-7.5h26.2
		c5.4,0,10.4,2.9,13.1,7.5l13.1,22.7c2.7,4.7,2.7,10.4,0,15.1l-13.1,22.7C-260.6,860.4-265.5,863.3-270.9,863.3z"/>
	<path d="M-263.7,879.7h-40.6c-3.3,0-6.3,1.7-7.9,4.6l-20.3,35.2c-1.6,2.8-1.6,6.3,0,9.1l20.3,35.2c1.6,2.8,4.6,4.6,7.9,4.6h40.6
		c3.3,0,6.3-1.7,7.9-4.6l20.3-35.2c1.6-2.8,1.6-6.3,0-9.1l-20.3-35.2C-257.4,881.5-260.4,879.7-263.7,879.7z M-265.6,965.1h-36.8
		c-3.3,0-6.3-1.7-7.9-4.6l-18.4-31.9c-1.6-2.8-1.6-6.3,0-9.1l18.4-31.9c1.6-2.8,4.6-4.6,7.9-4.6h36.8c3.3,0,6.3,1.7,7.9,4.6
		l18.4,31.9c1.6,2.8,1.6,6.3,0,9.1l-18.4,31.9C-259.3,963.3-262.3,965.1-265.6,965.1z"/>
	<path d="M-441.1,763.2H-522v-3.3h80.9c4.2,0,8-2.3,10-5.9l10.8-19.7c2.5-4.5,7.2-7.3,12.3-7.3h45.2v3.3H-408
		c-3.9,0-7.5,2.1-9.4,5.6l-10.8,19.7C-430.8,760.3-435.7,763.2-441.1,763.2z"/>
	<path d="M-325.2,814.9l-2.9-1.6l26.3-46.8c2.3-4.1,6.6-6.6,11.3-6.6h83.6v3.3h-83.6c-3.5,0-6.7,1.9-8.4,4.9L-325.2,814.9z"/>
	<path d="M-248.1,979l-2.8-1.6l20.8-36.1c2.6-4.6,7.5-7.4,12.8-7.4h115.5v3.3h-115.5c-4.1,0-7.9,2.2-10,5.8L-248.1,979z"/>
	<path d="M-236.6,864.1l-2.8-1.6l17.3-30.3c1.8-3.1,5.1-5,8.6-5h64.1v3.3h-64.1c-2.4,0-4.6,1.3-5.8,3.4L-236.6,864.1z"/>
</g>
<circle class="st6" cx="-2253" cy="561.5" r="407.5"/>
<g>
	<path class="st2" d="M-519.3,180.2h-34.6c-3.6,0-6.9,2-8.7,5.1l-17.3,30.6c-1.8,3.2-1.8,7.1,0,10.3l17.3,30.6
		c1.8,3.2,5.1,5.1,8.7,5.1h34.6c3.6,0,6.9-2,8.7-5.1l17.3-30.6c1.8-3.2,1.8-7.1,0-10.3l-17.3-30.6
		C-512.3,182.2-515.7,180.2-519.3,180.2z"/>
	<path class="st2" d="M-351.6,273.4h-34.2c-3.6,0-6.9,2-8.6,5.1l-17.1,30.6c-1.8,3.2-1.8,7.1,0,10.3l17.1,30.6
		c1.8,3.2,5.1,5.1,8.6,5.1h34.2c3.6,0,6.9-2,8.6-5.1l17.1-30.6c1.8-3.2,1.8-7.1,0-10.3l-17.1-30.6
		C-344.7,275.3-348,273.4-351.6,273.4z"/>
	<path class="st2" d="M-290,241.7h-22.6c-2.4,0-4.5,1.3-5.7,3.4l-11.3,20c-1.2,2.1-1.2,4.6,0,6.7l11.3,20c1.2,2.1,3.4,3.4,5.7,3.4
		h22.6c2.4,0,4.5-1.3,5.7-3.4l11.3-20c1.2-2.1,1.2-4.6,0-6.7l-11.3-20C-285.5,243-287.7,241.7-290,241.7z"/>
	<path class="st2" d="M-351.6,182.1H-385c-3.5,0-6.7,1.9-8.4,5l-16.7,29.4c-1.7,3.1-1.7,6.8,0,9.9l16.7,29.4c1.7,3.1,5,5,8.4,5h33.5
		c3.5,0,6.7-1.9,8.4-5l16.7-29.4c1.7-3.1,1.7-6.8,0-9.9l-16.7-29.4C-344.9,184-348.1,182.1-351.6,182.1z"/>
	<g>
		<path d="M-520,95h-26c-1.9,0-3.7,1-4.6,2.7l-13,22.5c-0.9,1.6-0.9,3.7,0,5.3l13,22.5c0.9,1.6,2.7,2.7,4.6,2.7h26
			c1.9,0,3.7-1,4.6-2.7l13-22.5c0.9-1.6,0.9-3.7,0-5.3l-13-22.5C-516.4,96-518.1,95-520,95z"/>
		<path d="M-586,152.9h-8.4c-0.5,0-0.9,0.2-1.1,0.6l-4.2,7.3c-0.2,0.4-0.2,0.9,0,1.3l4.2,7.3c0.2,0.4,0.7,0.6,1.1,0.6h8.4
			c0.5,0,0.9-0.2,1.1-0.6l4.2-7.3c0.2-0.4,0.2-0.9,0-1.3l-4.2-7.3C-585.1,153.1-585.5,152.9-586,152.9z"/>
		<path d="M-288,152.9h-8c-0.6,0-1.1,0.3-1.4,0.8l-4,7c-0.3,0.5-0.3,1.1,0,1.6l4,7c0.3,0.5,0.8,0.8,1.4,0.8h8c0.6,0,1.1-0.3,1.4-0.8
			l4-7c0.3-0.5,0.3-1.1,0-1.6l-4-7C-286.9,153.2-287.4,152.9-288,152.9z"/>
		<path d="M-233.9,216.2h-8c-0.6,0-1.1,0.3-1.4,0.8l-4,6.9c-0.3,0.5-0.3,1.1,0,1.6l4,6.9c0.3,0.5,0.8,0.8,1.4,0.8h8
			c0.6,0,1.1-0.3,1.4-0.8l4-6.9c0.3-0.5,0.3-1.1,0-1.6l-4-6.9C-232.8,216.5-233.3,216.2-233.9,216.2z"/>
		<path d="M-397.7,125.1h-7.9c-0.6,0-1.2,0.3-1.5,0.9l-4,6.8c-0.3,0.5-0.3,1.2,0,1.7l4,6.8c0.3,0.5,0.9,0.9,1.5,0.9h7.9
			c0.6,0,1.2-0.3,1.5-0.9l4-6.8c0.3-0.5,0.3-1.2,0-1.7l-4-6.8C-396.6,125.4-397.1,125.1-397.7,125.1z"/>
		<path d="M-193.8,316.6h-7.9c-0.6,0-1.2,0.3-1.5,0.9l-4,6.8c-0.3,0.5-0.3,1.2,0,1.7l4,6.8c0.3,0.5,0.9,0.9,1.5,0.9h7.9
			c0.6,0,1.2-0.3,1.5-0.9l4-6.8c0.3-0.5,0.3-1.2,0-1.7l-4-6.8C-192.6,317-193.2,316.6-193.8,316.6z"/>
		<path d="M-425.7,336h-13.8c-1.7,0-3.3,0.9-4.1,2.4l-6.9,11.9c-0.8,1.5-0.8,3.3,0,4.7l6.9,11.9c0.8,1.5,2.4,2.4,4.1,2.4h13.8
			c1.7,0,3.3-0.9,4.1-2.4l6.9-11.9c0.8-1.5,0.8-3.3,0-4.7l-6.9-11.9C-422.4,336.9-424,336-425.7,336z"/>
		<path d="M-300.6,348.4h-22.9c-2.8,0-5.5,1.5-6.9,4l-11.5,19.9c-1.4,2.5-1.4,5.5,0,8l11.5,19.9c1.4,2.5,4,4,6.9,4h22.9
			c2.8,0,5.5-1.5,6.9-4l11.5-19.9c1.4-2.5,1.4-5.5,0-8l-11.5-19.9C-295.1,349.9-297.8,348.4-300.6,348.4z"/>
		<path d="M-282.6,291.3l10.8-18.6c1.6-2.8,1.6-6.3,0-9.2l-10.8-18.6c-1.6-2.8-4.7-4.6-7.9-4.6H-312c-3.3,0-6.3,1.7-7.9,4.6
			l-10.8,18.6c-1.6,2.8-1.6,6.3,0,9.2l10.8,18.6c1.6,2.8,4.7,4.6,7.9,4.6h21.5C-287.2,295.9-284.2,294.1-282.6,291.3z M-284.3,247.9
			l9,15.6c1.6,2.8,1.6,6.3,0,9.2l-9,15.6c-1.6,2.8-4.7,4.6-7.9,4.6h-18c-3.3,0-6.3-1.7-7.9-4.6l-9-15.6c-1.6-2.8-1.6-6.3,0-9.2
			l9-15.6c1.6-2.8,4.7-4.6,7.9-4.6h18C-289,243.3-286,245.1-284.3,247.9z"/>
		<path d="M-436,226.3h-38.3c-3,0-5.9,1.6-7.4,4.3l-19.2,33.2c-1.5,2.6-1.5,5.9,0,8.5l19.2,33.2c1.5,2.6,4.3,4.3,7.4,4.3h38.3
			c3,0,5.9-1.6,7.4-4.3l19.2-33.2c1.5-2.6,1.5-5.9,0-8.5l-19.2-33.2C-430.1,228-433,226.3-436,226.3z"/>
		<path d="M-519,178.4h-36c-3.8,0-7.2,2-9.1,5.3l-18,31.2c-1.9,3.2-1.9,7.3,0,10.5l18,31.2c1.9,3.2,5.3,5.3,9.1,5.3h36
			c3.8,0,7.2-2,9.1-5.3l18-31.2c1.9-3.2,1.9-7.3,0-10.5l-18-31.2C-511.8,180.4-515.3,178.4-519,178.4z M-520.8,258.8h-32.5
			c-3.8,0-7.2-2-9.1-5.3l-16.2-28.1c-1.9-3.2-1.9-7.3,0-10.5l16.2-28.1c1.9-3.2,5.3-5.3,9.1-5.3h32.5c3.8,0,7.2,2,9.1,5.3l16.2,28.1
			c1.9,3.2,1.9,7.3,0,10.5l-16.2,28.1C-513.6,256.8-517.1,258.8-520.8,258.8z"/>
		<path d="M-353.5,180h-30.3c-5.5,0-10.6,2.9-13.4,7.7l-15.2,26.3c-2.8,4.8-2.8,10.7,0,15.4l15.2,26.3c2.8,4.8,7.9,7.7,13.4,7.7
			h30.3c5.5,0,10.6-2.9,13.4-7.7l15.2-26.3c2.8-4.8,2.8-10.7,0-15.4l-15.2-26.3C-342.9,182.9-348,180-353.5,180z M-356.3,257.2H-381
			c-5.1,0-9.8-2.7-12.3-7.1l-12.3-21.3c-2.5-4.4-2.5-9.8,0-14.2l12.3-21.3c2.5-4.4,7.2-7.1,12.3-7.1h24.6c5.1,0,9.8,2.7,12.3,7.1
			l12.3,21.3c2.5,4.4,2.5,9.8,0,14.2l-12.3,21.3C-346.6,254.5-351.3,257.2-356.3,257.2z"/>
		<path d="M-349.5,272.7h-38.3c-3.1,0-5.9,1.6-7.4,4.3l-19.1,33.1c-1.5,2.7-1.5,5.9,0,8.6l19.1,33.1c1.5,2.7,4.4,4.3,7.4,4.3h38.3
			c3.1,0,5.9-1.6,7.4-4.3l19.1-33.1c1.5-2.7,1.5-5.9,0-8.6l-19.1-33.1C-343.6,274.3-346.4,272.7-349.5,272.7z M-351.3,353H-386
			c-3.1,0-5.9-1.6-7.4-4.3l-17.3-30c-1.5-2.7-1.5-5.9,0-8.6l17.3-30c1.5-2.7,4.4-4.3,7.4-4.3h34.7c3.1,0,5.9,1.6,7.4,4.3l17.3,30
			c1.5,2.7,1.5,5.9,0,8.6l-17.3,30C-345.4,351.4-348.2,353-351.3,353z"/>
		<path d="M-409.1,167.1l-19.9-34.5c-1.3-2.2-3.7-3.6-6.2-3.6h-7.6h-32.3h-10.3c-4.8,0-9.2,2.6-11.6,6.8l-10.2,18.5
			c-1.9,3.4-5.5,5.6-9.4,5.6h-76.2v3.1h76.2c5,0,9.7-2.7,12.1-7.2l10.2-18.5c1.8-3.2,5.2-5.2,8.9-5.2h4.4c-0.1,0.2-0.2,0.3-0.3,0.5
			l-19.9,34.5c-1.3,2.2-1.3,5,0,7.2l19.9,34.5c1.3,2.2,3.7,3.6,6.2,3.6h39.9c2.6,0,4.9-1.4,6.2-3.6l19.9-34.5
			C-407.8,172.1-407.8,169.3-409.1,167.1z"/>
		<path d="M-407.5,211.6l-2.7-1.5l24.7-44c2.2-3.8,6.2-6.2,10.6-6.2h78.7v3.1h-78.7c-3.3,0-6.3,1.8-8,4.6L-407.5,211.6z"/>
		<path d="M-334.8,366.1l-2.7-1.5l19.6-33.9c2.5-4.3,7.1-7,12.1-7h108.7v3.1h-108.7c-3.9,0-7.5,2.1-9.4,5.4L-334.8,366.1z"/>
		<path d="M-324,258l-2.7-1.5l16.3-28.5c1.7-2.9,4.8-4.7,8.1-4.7h60.4v3.1h-60.4c-2.2,0-4.3,1.2-5.4,3.2L-324,258z"/>
	</g>
</g>
<g>
	<path class="st2" d="M-1090.4,160.4h-24c-2.5,0-4.8,1.4-6,3.6l-12,21.1c-1.2,2.2-1.2,4.9,0,7.1l12,21.1c1.2,2.2,3.6,3.6,6,3.6h24
		c2.5,0,4.8-1.4,6-3.6l12-21.1c1.2-2.2,1.2-4.9,0-7.1l-12-21.1C-1085.6,161.7-1088,160.4-1090.4,160.4z"/>
	<path class="st2" d="M-972.8,226.1h-23.7c-2.5,0-4.7,1.4-6,3.6l-11.8,21.1c-1.2,2.2-1.2,4.9,0,7.1l11.8,21.1c1.2,2.2,3.5,3.6,6,3.6
		h23.7c2.5,0,4.7-1.4,6-3.6l11.8-21.1c1.2-2.2,1.2-4.9,0-7.1l-11.8-21.1C-968,227.4-970.3,226.1-972.8,226.1z"/>
	<path class="st2" d="M-930.2,203.3h-15.6c-1.6,0-3.1,0.9-3.9,2.3l-7.8,13.8c-0.8,1.4-0.8,3.2,0,4.7l7.8,13.8
		c0.8,1.4,2.3,2.3,3.9,2.3h15.6c1.6,0,3.1-0.9,3.9-2.3l7.8-13.8c0.8-1.4,0.8-3.2,0-4.7l-7.8-13.8
		C-927.1,204.2-928.6,203.3-930.2,203.3z"/>
	<path class="st2" d="M-973.2,162.5h-23.1c-2.4,0-4.6,1.3-5.8,3.4l-11.6,20.4c-1.2,2.1-1.2,4.7,0,6.8l11.6,20.4
		c1.2,2.1,3.4,3.4,5.8,3.4h23.1c2.4,0,4.6-1.3,5.8-3.4l11.6-20.4c1.2-2.1,1.2-4.7,0-6.8l-11.6-20.4
		C-968.6,163.8-970.8,162.5-973.2,162.5z"/>
	<g>
		<path d="M-1091.2,102h-16.2c-1.9,0-3.7,1-4.6,2.7l-8.1,14c-0.9,1.6-0.9,3.7,0,5.3l8.1,14c0.9,1.6,2.7,2.7,4.6,2.7h16.2
			c1.9,0,3.7-1,4.6-2.7l8.1-14c0.9-1.6,0.9-3.7,0-5.3l-8.1-14C-1087.5,103-1089.3,102-1091.2,102z"/>
		<path d="M-1136.4,142.3h-5.4c-0.5,0-0.9,0.2-1.1,0.6l-2.7,4.7c-0.2,0.4-0.2,0.9,0,1.3l2.7,4.7c0.2,0.4,0.7,0.6,1.1,0.6h5.4
			c0.5,0,0.9-0.2,1.1-0.6l2.7-4.7c0.2-0.4,0.2-0.9,0-1.3l-2.7-4.7C-1135.5,142.5-1135.9,142.3-1136.4,142.3z"/>
		<path d="M-929,142.3h-5c-0.6,0-1.1,0.3-1.4,0.8l-2.5,4.4c-0.3,0.5-0.3,1.1,0,1.6l2.5,4.4c0.3,0.5,0.8,0.8,1.4,0.8h5
			c0.6,0,1.1-0.3,1.4-0.8l2.5-4.4c0.3-0.5,0.3-1.1,0-1.6l-2.5-4.4C-927.9,142.6-928.4,142.3-929,142.3z"/>
		<path d="M-891.3,186.4h-5c-0.6,0-1.1,0.3-1.4,0.8l-2.5,4.3c-0.3,0.5-0.3,1.1,0,1.6l2.5,4.3c0.3,0.5,0.8,0.8,1.4,0.8h5
			c0.6,0,1.1-0.3,1.4-0.8l2.5-4.3c0.3-0.5,0.3-1.1,0-1.6l-2.5-4.3C-890.2,186.7-890.7,186.4-891.3,186.4z"/>
		<path d="M-1005.4,122.9h-4.9c-0.6,0-1.2,0.3-1.5,0.9l-2.5,4.2c-0.3,0.5-0.3,1.2,0,1.7l2.5,4.2c0.3,0.5,0.9,0.9,1.5,0.9h4.9
			c0.6,0,1.2-0.3,1.5-0.9l2.5-4.2c0.3-0.5,0.3-1.2,0-1.7l-2.5-4.2C-1004.2,123.3-1004.8,122.9-1005.4,122.9z"/>
		<path d="M-863.4,256.3h-4.9c-0.6,0-1.2,0.3-1.5,0.9l-2.5,4.2c-0.3,0.5-0.3,1.2,0,1.7l2.5,4.2c0.3,0.5,0.9,0.9,1.5,0.9h4.9
			c0.6,0,1.2-0.3,1.5-0.9l2.5-4.2c0.3-0.5,0.3-1.2,0-1.7l-2.5-4.2C-862.2,256.6-862.8,256.3-863.4,256.3z"/>
		<path d="M-1025.4,269.8h-7.9c-1.7,0-3.3,0.9-4.1,2.4l-4,6.9c-0.8,1.5-0.8,3.3,0,4.7l4,6.9c0.8,1.5,2.4,2.4,4.1,2.4h7.9
			c1.7,0,3.3-0.9,4.1-2.4l4-6.9c0.8-1.5,0.8-3.3,0-4.7l-4-6.9C-1022.1,270.7-1023.7,269.8-1025.4,269.8z"/>
		<path d="M-937.5,278.4h-16c-2,0-3.8,1.1-4.8,2.8l-8,13.8c-1,1.7-1,3.8,0,5.5l8,13.8c1,1.7,2.8,2.8,4.8,2.8h16c2,0,3.8-1.1,4.8-2.8
			l8-13.8c1-1.7,1-3.8,0-5.5l-8-13.8C-933.7,279.5-935.5,278.4-937.5,278.4z"/>
		<path d="M-924.9,238.7l7.5-13c1.1-2,1.1-4.4,0-6.4l-7.5-13c-1.1-2-3.2-3.2-5.5-3.2h-15c-2.3,0-4.4,1.2-5.5,3.2l-7.5,13
			c-1.1,2-1.1,4.4,0,6.4l7.5,13c1.1,2,3.2,3.2,5.5,3.2h15C-928.2,241.8-926,240.6-924.9,238.7z M-926.2,208.5l6.3,10.8
			c1.1,2,1.1,4.4,0,6.4l-6.3,10.8c-1.1,2-3.2,3.2-5.5,3.2h-12.5c-2.3,0-4.4-1.2-5.5-3.2l-6.3-10.8c-1.1-2-1.1-4.4,0-6.4l6.3-10.8
			c1.1-2,3.2-3.2,5.5-3.2h12.5C-929.4,205.3-927.3,206.5-926.2,208.5z"/>
		<path d="M-1033.2,193.4h-23.7c-3,0-5.9,1.6-7.4,4.3l-11.8,20.5c-1.5,2.6-1.5,5.9,0,8.5l11.8,20.5c1.5,2.6,4.3,4.3,7.4,4.3h23.7
			c3,0,5.9-1.6,7.4-4.3l11.8-20.5c1.5-2.6,1.5-5.9,0-8.5l-11.8-20.5C-1027.4,195.1-1030.2,193.4-1033.2,193.4z"/>
		<path d="M-1089.5,160.1h-25.1c-2.6,0-5,1.4-6.3,3.7l-12.5,21.7c-1.3,2.3-1.3,5,0,7.3l12.5,21.7c1.3,2.3,3.7,3.7,6.3,3.7h25.1
			c2.6,0,5-1.4,6.3-3.7l12.5-21.7c1.3-2.3,1.3-5,0-7.3l-12.5-21.7C-1084.5,161.5-1086.9,160.1-1089.5,160.1z M-1090.8,216h-22.6
			c-2.6,0-5-1.4-6.3-3.7l-11.3-19.6c-1.3-2.3-1.3-5,0-7.3l11.3-19.6c1.3-2.3,3.7-3.7,6.3-3.7h22.6c2.6,0,5,1.4,6.3,3.7l11.3,19.6
			c1.3,2.3,1.3,5,0,7.3l-11.3,19.6C-1085.8,214.6-1088.2,216-1090.8,216z"/>
		<path d="M-974.3,161.2h-21.1c-3.8,0-7.4,2-9.3,5.4l-10.6,18.3c-1.9,3.3-1.9,7.4,0,10.8l10.6,18.3c1.9,3.3,5.5,5.4,9.3,5.4h21.1
			c3.8,0,7.4-2,9.3-5.4l10.6-18.3c1.9-3.3,1.9-7.4,0-10.8l-10.6-18.3C-966.9,163.2-970.4,161.2-974.3,161.2z M-976.3,214.9h-17.1
			c-3.5,0-6.8-1.9-8.6-4.9l-8.6-14.9c-1.8-3.1-1.8-6.8,0-9.9l8.6-14.9c1.8-3.1,5-4.9,8.6-4.9h17.1c3.5,0,6.8,1.9,8.6,4.9l8.6,14.9
			c1.8,3.1,1.8,6.8,0,9.9l-8.6,14.9C-969.5,213.1-972.7,214.9-976.3,214.9z"/>
		<path d="M-971.5,225.7h-26.6c-2.1,0-4.1,1.1-5.2,3l-13.3,23.1c-1.1,1.8-1.1,4.1,0,6l13.3,23.1c1.1,1.8,3,3,5.2,3h26.6
			c2.1,0,4.1-1.1,5.2-3l13.3-23.1c1.1-1.8,1.1-4.1,0-6l-13.3-23.1C-967.4,226.8-969.4,225.7-971.5,225.7z M-972.8,281.6h-24.2
			c-2.1,0-4.1-1.1-5.2-3l-12.1-20.9c-1.1-1.8-1.1-4.1,0-6l12.1-20.9c1.1-1.8,3-3,5.2-3h24.2c2.1,0,4.1,1.1,5.2,3l12.1,20.9
			c1.1,1.8,1.1,4.1,0,6l-12.1,20.9C-968.7,280.5-970.6,281.6-972.8,281.6z"/>
		<path d="M-1013.6,151.1l-12.6-21.9c-1.3-2.2-3.7-3.6-6.2-3.6h-4h-21.2h-8.4c-3.4,0-6.4,1.8-8,4.8l-7.1,12.9
			c-1.3,2.4-3.8,3.9-6.6,3.9h-53v2.2h53c3.5,0,6.7-1.9,8.4-5l7.1-12.9c1.2-2.2,3.6-3.6,6.2-3.6h3.3c-0.4,0.4-0.8,0.9-1.1,1.4
			l-12.6,21.9c-1.3,2.2-1.3,5,0,7.2l12.6,21.9c1.3,2.2,3.7,3.6,6.2,3.6h25.2c2.6,0,4.9-1.4,6.2-3.6l12.6-21.9
			C-1012.3,156.1-1012.3,153.3-1013.6,151.1z"/>
		<path d="M-1011.9,183.2l-1.9-1.1l17.2-30.6c1.5-2.7,4.3-4.3,7.4-4.3h54.8v2.2h-54.8c-2.3,0-4.4,1.2-5.5,3.2L-1011.9,183.2z"/>
		<path d="M-961.3,290.8l-1.9-1.1l13.7-23.6c1.7-3,4.9-4.9,8.4-4.9h75.7v2.2h-75.7c-2.7,0-5.2,1.5-6.5,3.8L-961.3,290.8z"/>
		<path d="M-953.8,215.5l-1.9-1.1l11.3-19.9c1.2-2,3.3-3.3,5.7-3.3h42v2.2h-42c-1.6,0-3,0.8-3.8,2.2L-953.8,215.5z"/>
	</g>
	<g>
		<g>
			<path d="M-988,337h-3.4v-1.6h5.4v14.5h3.4v1.7h-9.2v-1.7h3.8V337z"/>
			<path d="M-969.2,345.2c0,0.3,0,0.5,0,0.7c0,0.2,0,0.4,0,0.5h-8.1c0,1.2,0.3,2.1,1,2.7c0.7,0.6,1.6,0.9,2.8,0.9c0.3,0,0.7,0,1,0
				c0.3,0,0.7-0.1,1-0.1c0.3,0,0.6-0.1,0.9-0.2c0.3-0.1,0.6-0.1,0.8-0.2v1.6c-0.5,0.2-1.2,0.3-1.8,0.4c-0.7,0.1-1.4,0.1-2.1,0.1
				c-1,0-1.8-0.1-2.5-0.4c-0.7-0.3-1.3-0.7-1.7-1.2c-0.5-0.5-0.8-1.1-1-1.9c-0.2-0.7-0.3-1.6-0.3-2.5c0-0.8,0.1-1.6,0.3-2.3
				c0.2-0.7,0.6-1.4,1-1.9c0.4-0.5,1-1,1.6-1.3c0.6-0.3,1.4-0.5,2.2-0.5c0.8,0,1.5,0.1,2.1,0.4c0.6,0.3,1.1,0.6,1.6,1.1
				c0.4,0.5,0.7,1,1,1.7C-969.4,343.7-969.2,344.4-969.2,345.2z M-971.3,344.9c0-0.5,0-1-0.1-1.4c-0.1-0.4-0.3-0.8-0.6-1.1
				c-0.3-0.3-0.6-0.5-1-0.7c-0.4-0.2-0.8-0.3-1.3-0.3c-0.4,0-0.8,0.1-1.2,0.3c-0.4,0.2-0.7,0.4-0.9,0.7c-0.3,0.3-0.5,0.7-0.6,1.1
				c-0.2,0.4-0.3,0.9-0.3,1.4H-971.3z"/>
			<path d="M-955.7,351.6h-2.7l-5.4-6.2v6.2h-2v-16.2h2v10l5.2-5.3h2.6l-5.4,5.3L-955.7,351.6z"/>
			<path d="M-944.2,351.2c-0.5,0.2-1.1,0.3-1.6,0.4c-0.5,0.1-1.1,0.1-1.7,0.1c-1.8,0-3.2-0.5-4.2-1.5c-1-1-1.5-2.4-1.5-4.3
				c0-0.9,0.1-1.7,0.4-2.5c0.3-0.7,0.7-1.4,1.2-1.9c0.5-0.5,1.1-0.9,1.8-1.2c0.7-0.3,1.5-0.4,2.4-0.4c0.6,0,1.2,0,1.7,0.1
				c0.5,0.1,1,0.2,1.5,0.4v1.9c-0.5-0.3-1-0.4-1.5-0.6c-0.5-0.1-1-0.2-1.6-0.2c-0.5,0-1,0.1-1.5,0.3c-0.5,0.2-0.9,0.5-1.2,0.8
				c-0.3,0.4-0.6,0.8-0.8,1.3c-0.2,0.5-0.3,1.1-0.3,1.8c0,1.4,0.3,2.4,1,3.1c0.7,0.7,1.6,1,2.8,1c0.5,0,1.1-0.1,1.6-0.2
				c0.5-0.1,1-0.3,1.5-0.6V351.2z"/>
			<path d="M-932.4,340.1v11.3c0,0.8-0.1,1.5-0.3,2.1c-0.2,0.6-0.6,1.1-1,1.6c-0.4,0.4-1,0.8-1.6,1c-0.6,0.2-1.3,0.3-2.1,0.3
				c-0.6,0-1.1-0.1-1.7-0.2c-0.5-0.1-1-0.2-1.5-0.4v-1.9c0.2,0.1,0.5,0.2,0.8,0.3c0.3,0.1,0.6,0.2,0.8,0.3c0.3,0.1,0.6,0.1,0.9,0.2
				c0.3,0,0.6,0.1,0.8,0.1c0.9,0,1.6-0.3,2.1-0.8c0.5-0.6,0.7-1.4,0.7-2.4v-9.7h-5.6v-1.7H-932.4z M-933.6,335.2
				c0.2,0,0.4,0,0.6,0.1c0.2,0.1,0.4,0.2,0.5,0.3c0.1,0.1,0.3,0.3,0.3,0.5c0.1,0.2,0.1,0.4,0.1,0.6c0,0.2,0,0.4-0.1,0.6
				c-0.1,0.2-0.2,0.4-0.3,0.5c-0.1,0.1-0.3,0.3-0.5,0.3c-0.2,0.1-0.4,0.1-0.6,0.1c-0.2,0-0.4,0-0.6-0.1c-0.2-0.1-0.4-0.2-0.5-0.3
				c-0.1-0.1-0.3-0.3-0.3-0.5c-0.1-0.2-0.1-0.4-0.1-0.6c0-0.2,0-0.4,0.1-0.6c0.1-0.2,0.2-0.4,0.3-0.5c0.1-0.1,0.3-0.3,0.5-0.3
				C-934.1,335.3-933.9,335.2-933.6,335.2z"/>
			<path d="M-919.9,351.6l0-1.5c-0.6,0.6-1.3,1.1-1.9,1.3c-0.6,0.3-1.3,0.4-2,0.4c-0.7,0-1.2-0.1-1.7-0.3c-0.5-0.2-0.9-0.4-1.2-0.7
				c-0.3-0.3-0.5-0.6-0.7-1c-0.1-0.4-0.2-0.8-0.2-1.3c0-1.2,0.4-2.1,1.3-2.7c0.9-0.7,2.1-1,3.8-1h2.4v-1c0-0.7-0.2-1.2-0.7-1.6
				c-0.4-0.4-1.1-0.6-2-0.6c-0.7,0-1.3,0.1-1.9,0.2c-0.6,0.1-1.3,0.4-2,0.6v-1.8c0.3-0.1,0.5-0.2,0.8-0.3c0.3-0.1,0.6-0.2,1-0.2
				c0.3-0.1,0.7-0.1,1.1-0.2c0.4,0,0.8-0.1,1.1-0.1c0.7,0,1.3,0.1,1.9,0.2c0.6,0.2,1,0.4,1.4,0.7c0.4,0.3,0.7,0.7,0.9,1.2
				c0.2,0.5,0.3,1,0.3,1.7v7.9H-919.9z M-920.1,346.3h-2.5c-0.5,0-0.9,0-1.3,0.1c-0.4,0.1-0.7,0.2-0.9,0.4c-0.2,0.2-0.4,0.4-0.5,0.7
				c-0.1,0.3-0.2,0.5-0.2,0.9c0,0.2,0,0.4,0.1,0.6c0.1,0.2,0.2,0.4,0.3,0.5c0.2,0.2,0.4,0.3,0.6,0.4c0.2,0.1,0.5,0.1,0.9,0.1
				c0.5,0,1-0.1,1.6-0.4c0.6-0.3,1.2-0.7,1.9-1.3V346.3z"/>
		</g>
		<g>
			<path d="M-1086.6,385.3c-1.3,0.5-2.6,0.8-3.9,1.1c-1.3,0.2-2.7,0.4-4.1,0.4c-4.5,0-7.9-1.2-10.3-3.6c-2.4-2.4-3.6-5.9-3.6-10.6
				c0-2.2,0.3-4.2,1-6.1c0.7-1.8,1.7-3.4,2.9-4.7c1.3-1.3,2.8-2.3,4.5-3c1.7-0.7,3.7-1.1,5.8-1.1c1.5,0,2.8,0.1,4.1,0.3
				c1.3,0.2,2.5,0.5,3.6,1v4.7c-1.2-0.6-2.5-1.1-3.7-1.4c-1.3-0.3-2.6-0.4-3.9-0.4c-1.3,0-2.4,0.2-3.5,0.7c-1.1,0.5-2.1,1.2-2.9,2.1
				c-0.8,0.9-1.5,2-2,3.3c-0.5,1.3-0.7,2.8-0.7,4.4c0,3.4,0.8,6,2.5,7.6c1.7,1.7,4,2.5,6.9,2.5c1.3,0,2.6-0.1,3.9-0.4
				c1.2-0.3,2.4-0.7,3.6-1.3V385.3z"/>
			<path d="M-1051.8,358.2l-9.6,25.2c-1,2.6-2,4.8-3.1,6.6c-1.1,1.9-2.2,3.4-3.5,4.6c-1.3,1.2-2.6,2.1-4.1,2.6
				c-1.5,0.6-3.2,0.8-5,0.8c-0.5,0-0.9,0-1.3,0c-0.4,0-0.8,0-1.3-0.1v-4.4c0.4,0.1,0.9,0.1,1.3,0.2c0.5,0,1,0.1,1.5,0.1
				c0.9,0,1.7-0.1,2.5-0.4c0.8-0.3,1.5-0.7,2.2-1.3c0.7-0.6,1.4-1.4,2-2.3c0.6-0.9,1.3-2.1,1.9-3.4l-11.3-28.2h5.6l7.1,18.6l1.4,4.4
				l1.6-4.5l6.6-18.5H-1051.8z"/>
			<path d="M-1020.3,351.2c-2.6-0.5-4.8-0.8-6.6-0.8c-4.4,0-6.6,2.3-6.6,6.9v4.9h12.3v4.1h-12.3v20h-5v-20h-9.1v-4.1h9.1v-4.7
				c0-7.5,3.9-11.3,11.7-11.3c1.9,0,4.1,0.2,6.5,0.7V351.2z"/>
			<path d="M-1012.6,358.2h4.5l0.1,5.2c1.7-2,3.3-3.5,4.9-4.3c1.6-0.9,3.3-1.3,4.9-1.3c2.9,0,5.1,0.9,6.6,2.8
				c1.5,1.9,2.2,4.7,2.1,8.4h-4.9c0.1-2.5-0.3-4.3-1.1-5.4c-0.8-1.1-1.9-1.7-3.4-1.7c-0.7,0-1.3,0.1-2,0.4c-0.7,0.2-1.3,0.6-2,1.1
				c-0.7,0.5-1.4,1.2-2.2,2c-0.8,0.8-1.6,1.8-2.5,2.9v18.1h-4.9V358.2z"/>
			<path d="M-957.6,372c0,2.2-0.3,4.2-0.9,6s-1.5,3.4-2.7,4.7c-1.2,1.3-2.6,2.3-4.2,3c-1.7,0.7-3.6,1.1-5.7,1.1
				c-2,0-3.8-0.3-5.4-0.9c-1.6-0.6-3-1.5-4.1-2.8c-1.1-1.2-2-2.7-2.6-4.5c-0.6-1.8-0.9-3.9-0.9-6.2c0-2.2,0.3-4.2,0.9-6
				c0.6-1.8,1.5-3.4,2.7-4.7c1.2-1.3,2.6-2.3,4.2-3c1.7-0.7,3.6-1.1,5.7-1.1c2,0,3.8,0.3,5.4,0.9c1.6,0.6,3,1.5,4.1,2.7
				c1.1,1.2,2,2.7,2.6,4.5C-957.9,367.6-957.6,369.7-957.6,372z M-962.6,372.2c0-1.7-0.2-3.3-0.6-4.6c-0.4-1.3-0.9-2.4-1.6-3.3
				c-0.7-0.9-1.6-1.5-2.6-2c-1-0.4-2.2-0.7-3.4-0.7c-1.5,0-2.7,0.3-3.7,0.9c-1,0.6-1.9,1.3-2.6,2.3c-0.7,1-1.2,2.1-1.5,3.3
				c-0.3,1.3-0.5,2.6-0.5,4c0,1.7,0.2,3.3,0.6,4.6c0.4,1.3,0.9,2.4,1.6,3.3c0.7,0.9,1.6,1.5,2.6,2c1,0.4,2.2,0.7,3.4,0.7
				c1.5,0,2.7-0.3,3.7-0.9c1-0.6,1.9-1.3,2.6-2.3c0.7-1,1.2-2.1,1.5-3.3C-962.7,375-962.6,373.6-962.6,372.2z"/>
			<path d="M-924.4,358.2l-4.1,28.2h-5.9l-4.1-11.8l-0.8-2.9l-0.9,3l-3.9,11.6h-5.8l-4.1-28.2h4.8l2.4,19.1l0.5,4.3l1.2-3.7
				l4.1-12.7h3.5l4.4,12.5l1.3,3.7l0.4-4l2.2-19.3H-924.4z"/>
			<path d="M-900.8,386.3l-0.1-3.8c-1.5,1.5-3.1,2.6-4.7,3.3c-1.6,0.7-3.2,1-5,1c-1.6,0-3-0.2-4.1-0.6c-1.1-0.4-2.1-1-2.8-1.7
				c-0.7-0.7-1.3-1.6-1.6-2.5c-0.3-1-0.5-2-0.5-3.2c0-2.8,1.1-5,3.2-6.6c2.1-1.6,5.2-2.4,9.3-2.4h5.8v-2.5c0-1.7-0.5-3-1.6-4
				c-1.1-1-2.7-1.5-4.9-1.5c-1.6,0-3.2,0.2-4.7,0.5c-1.5,0.4-3.1,0.9-4.8,1.5v-4.4c0.6-0.2,1.3-0.4,2.1-0.7c0.8-0.2,1.6-0.4,2.4-0.6
				c0.8-0.2,1.7-0.3,2.6-0.4c0.9-0.1,1.8-0.2,2.8-0.2c1.7,0,3.2,0.2,4.6,0.6c1.4,0.4,2.5,0.9,3.5,1.7c0.9,0.8,1.7,1.7,2.2,2.9
				c0.5,1.2,0.8,2.5,0.8,4.1v19.4H-900.8z M-901.4,373.5h-6.2c-1.2,0-2.3,0.1-3.1,0.4c-0.9,0.2-1.6,0.6-2.2,1c-0.6,0.4-1,1-1.2,1.6
				c-0.3,0.6-0.4,1.3-0.4,2.1c0,0.5,0.1,1.1,0.3,1.6c0.2,0.5,0.4,0.9,0.8,1.3c0.4,0.4,0.9,0.7,1.5,0.9c0.6,0.2,1.3,0.3,2.2,0.3
				c1.1,0,2.4-0.3,3.9-1c1.4-0.7,3-1.8,4.6-3.2V373.5z"/>
		</g>
	</g>
</g>
<g>
	<g>
		<path d="M-2426.4,261.8h-39.1c-1.9,0-3.7,1-4.6,2.7l-19.6,33.9c-0.9,1.6-0.9,3.7,0,5.3l19.6,33.9c0.9,1.6,2.7,2.7,4.6,2.7h39.1
			c1.9,0,3.7-1,4.6-2.7l19.6-33.9c0.9-1.6,0.9-3.7,0-5.3l-19.6-33.9C-2422.8,262.8-2424.5,261.8-2426.4,261.8z"/>
		<path d="M-2520.4,343.4h-12.5c-0.5,0-0.9,0.2-1.1,0.6l-6.2,10.8c-0.2,0.4-0.2,0.9,0,1.3l6.2,10.8c0.2,0.4,0.7,0.6,1.1,0.6h12.5
			c0.5,0,0.9-0.2,1.1-0.6l6.2-10.8c0.2-0.4,0.2-0.9,0-1.3l-6.2-10.8C-2519.5,343.7-2519.9,343.4-2520.4,343.4z"/>
		<path d="M-2100.2,343.4h-12.1c-0.6,0-1.1,0.3-1.4,0.8l-6,10.5c-0.3,0.5-0.3,1.1,0,1.6l6,10.5c0.3,0.5,0.8,0.8,1.4,0.8h12.1
			c0.6,0,1.1-0.3,1.4-0.8l6-10.5c0.3-0.5,0.3-1.1,0-1.6l-6-10.5C-2099.1,343.7-2099.6,343.4-2100.2,343.4z"/>
		<path d="M-2024,432.7h-12.1c-0.6,0-1.1,0.3-1.4,0.8l-6,10.4c-0.3,0.5-0.3,1.1,0,1.6l6,10.4c0.3,0.5,0.8,0.8,1.4,0.8h12.1
			c0.6,0,1.1-0.3,1.4-0.8l6-10.4c0.3-0.5,0.3-1.1,0-1.6l-6-10.4C-2022.8,433-2023.4,432.7-2024,432.7z"/>
		<path d="M-2254.9,304.2h-12c-0.6,0-1.2,0.3-1.5,0.9l-6,10.4c-0.3,0.5-0.3,1.2,0,1.7l6,10.4c0.3,0.5,0.9,0.9,1.5,0.9h12
			c0.6,0,1.2-0.3,1.5-0.9l6-10.4c0.3-0.5,0.3-1.2,0-1.7l-6-10.4C-2253.7,304.5-2254.3,304.2-2254.9,304.2z"/>
		<path d="M-1967.4,574.3h-12c-0.6,0-1.2,0.3-1.5,0.9l-6,10.4c-0.3,0.5-0.3,1.2,0,1.7l6,10.4c0.3,0.5,0.9,0.9,1.5,0.9h12
			c0.6,0,1.2-0.3,1.5-0.9l6-10.4c0.3-0.5,0.3-1.2,0-1.7l-6-10.4C-1966.2,574.6-1966.8,574.3-1967.4,574.3z"/>
		<path d="M-2293.5,601.6h-21.6c-1.7,0-3.3,0.9-4.1,2.4l-10.8,18.7c-0.8,1.5-0.8,3.3,0,4.7l10.8,18.7c0.8,1.5,2.4,2.4,4.1,2.4h21.6
			c1.7,0,3.3-0.9,4.1-2.4l10.8-18.7c0.8-1.5,0.8-3.3,0-4.7l-10.8-18.7C-2290.3,602.5-2291.8,601.6-2293.5,601.6z"/>
		<path d="M-2118.4,619h-32.3c-4,0-7.7,2.1-9.7,5.6l-16.2,28c-2,3.5-2,7.7,0,11.2l16.2,28c2,3.5,5.7,5.6,9.7,5.6h32.3
			c4,0,7.7-2.1,9.7-5.6l16.2-28c2-3.5,2-7.7,0-11.2l-16.2-28C-2110.7,621.2-2114.4,619-2118.4,619z"/>
		<path d="M-2092.9,538.5l15.2-26.3c2.3-4,2.3-8.9,0-12.9l-15.2-26.3c-2.3-4-6.6-6.5-11.2-6.5h-30.4c-4.6,0-8.9,2.5-11.2,6.5
			l-15.2,26.3c-2.3,4-2.3,8.9,0,12.9l15.2,26.3c2.3,4,6.6,6.5,11.2,6.5h30.4C-2099.5,545-2095.2,542.5-2092.9,538.5z M-2095.4,477.4
			l12.7,21.9c2.3,4,2.3,8.9,0,12.9l-12.7,21.9c-2.3,4-6.6,6.5-11.2,6.5h-25.3c-4.6,0-8.9-2.5-11.2-6.5l-12.7-21.9
			c-2.3-4-2.3-8.9,0-12.9l12.7-21.9c2.3-4,6.6-6.5,11.2-6.5h25.3C-2102,470.9-2097.7,473.4-2095.4,477.4z"/>
		<path d="M-2306.4,309.8h-59.6c-2.6,0-4.9,1.4-6.2,3.6l-29.8,51.6c-1.3,2.2-1.3,5,0,7.2l29.8,51.6c1.3,2.2,3.7,3.6,6.2,3.6h59.6
			c2.6,0,4.9-1.4,6.2-3.6l29.8-51.6c1.3-2.2,1.3-5,0-7.2l-29.8-51.6C-2301.5,311.1-2303.9,309.8-2306.4,309.8z"/>
		<path d="M-2307.2,447h-58.1c-3,0-5.9,1.6-7.4,4.3l-29,50.3c-1.5,2.6-1.5,5.9,0,8.5l29,50.3c1.5,2.6,4.3,4.3,7.4,4.3h58.1
			c3,0,5.9-1.6,7.4-4.3l29-50.3c1.5-2.6,1.5-5.9,0-8.5l-29-50.3C-2301.3,448.6-2304.2,447-2307.2,447z"/>
		<path d="M-2426.3,379.4h-50.8c-5.3,0-10.2,2.8-12.8,7.4l-25.4,44c-2.6,4.6-2.6,10.2,0,14.8l25.4,44c2.6,4.6,7.5,7.4,12.8,7.4h50.8
			c5.3,0,10.2-2.8,12.8-7.4l25.4-44c2.6-4.6,2.6-10.2,0-14.8l-25.4-44C-2416.1,382.3-2421,379.4-2426.3,379.4z M-2428.8,492.7h-45.8
			c-5.3,0-10.2-2.8-12.8-7.4l-22.9-39.6c-2.6-4.6-2.6-10.2,0-14.8l22.9-39.6c2.6-4.6,7.5-7.4,12.8-7.4h45.8c5.3,0,10.2,2.8,12.8,7.4
			l22.9,39.6c2.6,4.6,2.6,10.2,0,14.8l-22.9,39.6C-2418.6,489.9-2423.5,492.7-2428.8,492.7z"/>
		<path d="M-2192.9,381.6h-42.8c-7.8,0-15,4.1-18.9,10.9l-21.4,37c-3.9,6.7-3.9,15,0,21.8l21.4,37c3.9,6.7,11.1,10.9,18.9,10.9h42.8
			c7.8,0,15-4.1,18.9-10.9l21.4-37c3.9-6.7,3.9-15,0-21.8l-21.4-37C-2177.9,385.8-2185.1,381.6-2192.9,381.6z M-2196.9,490.5h-34.7
			c-7.2,0-13.8-3.8-17.3-10l-17.4-30.1c-3.6-6.2-3.6-13.8,0-20l17.4-30.1c3.6-6.2,10.2-10,17.3-10h34.7c7.2,0,13.8,3.8,17.3,10
			l17.4,30.1c3.6,6.2,3.6,13.8,0,20l-17.4,30.1C-2183.1,486.7-2189.7,490.5-2196.9,490.5z"/>
		<path d="M-2187.3,512.3h-53.9c-4.3,0-8.3,2.3-10.5,6.1l-27,46.7c-2.2,3.7-2.2,8.4,0,12.1l27,46.7c2.2,3.7,6.2,6.1,10.5,6.1h53.9
			c4.3,0,8.3-2.3,10.5-6.1l27-46.7c2.2-3.7,2.2-8.4,0-12.1l-27-46.7C-2179,514.6-2183,512.3-2187.3,512.3z M-2189.8,625.6h-48.9
			c-4.3,0-8.3-2.3-10.5-6.1l-24.5-42.3c-2.2-3.7-2.2-8.4,0-12.1l24.5-42.3c2.2-3.7,6.2-6.1,10.5-6.1h48.9c4.3,0,8.3,2.3,10.5,6.1
			l24.4,42.3c2.2,3.7,2.2,8.4,0,12.1l-24.4,42.3C-2181.5,623.3-2185.5,625.6-2189.8,625.6z"/>
		<path d="M-2422.7,357.7h-107.4v-4.4h107.4c5.5,0,10.6-3,13.3-7.8l14.3-26.1c3.3-5.9,9.5-9.6,16.3-9.6h60v4.4h-60
			c-5.2,0-10,2.8-12.5,7.4l-14.3,26.1C-2409,353.8-2415.6,357.7-2422.7,357.7z"/>
		<path d="M-2269,426.3l-3.8-2.1l34.9-62c3.1-5.4,8.8-8.8,15-8.8h111v4.4h-111c-4.6,0-8.9,2.5-11.2,6.5L-2269,426.3z"/>
		<path d="M-2166.6,644.1l-3.8-2.2l27.7-47.9c3.5-6.1,10-9.9,17-9.9h153.2v4.4h-153.2c-5.5,0-10.5,2.9-13.2,7.7L-2166.6,644.1z"/>
		<path d="M-2151.4,491.6l-3.8-2.2l23-40.2c2.3-4.1,6.7-6.6,11.4-6.6h85.1v4.4h-85.1c-3.2,0-6.1,1.7-7.7,4.4L-2151.4,491.6z"/>
	</g>
	<g>
		<g>
			<path d="M-2220.6,737.7h-6.9v-3.3h11v29.4h6.9v3.4h-18.7v-3.4h7.7V737.7z"/>
			<path d="M-2182.7,754.3c0,0.6,0,1.1,0,1.4c0,0.4,0,0.8-0.1,1.1h-16.4c0,2.4,0.7,4.2,2,5.5c1.3,1.3,3.3,1.9,5.8,1.9
				c0.7,0,1.4,0,2-0.1c0.7-0.1,1.3-0.1,2-0.2c0.6-0.1,1.2-0.2,1.8-0.3c0.6-0.1,1.1-0.2,1.6-0.4v3.3c-1.1,0.3-2.3,0.6-3.7,0.8
				c-1.4,0.2-2.8,0.3-4.3,0.3c-2,0-3.7-0.3-5.2-0.8c-1.4-0.5-2.6-1.3-3.5-2.4c-0.9-1-1.6-2.3-2-3.8c-0.4-1.5-0.7-3.2-0.7-5.1
				c0-1.6,0.2-3.2,0.7-4.7c0.5-1.5,1.2-2.7,2.1-3.9c0.9-1.1,2-2,3.3-2.6c1.3-0.7,2.8-1,4.5-1c1.6,0,3.1,0.3,4.3,0.8
				c1.3,0.5,2.3,1.2,3.2,2.2c0.9,0.9,1.5,2.1,2,3.4C-2182.9,751.1-2182.7,752.6-2182.7,754.3z M-2186.9,753.7c0-1-0.1-2-0.3-2.8
				c-0.2-0.9-0.6-1.6-1.1-2.2c-0.5-0.6-1.2-1.1-1.9-1.5c-0.8-0.3-1.7-0.5-2.7-0.5c-0.9,0-1.7,0.2-2.4,0.5c-0.7,0.3-1.4,0.8-1.9,1.4
				c-0.5,0.6-1,1.4-1.3,2.2c-0.3,0.9-0.5,1.8-0.6,2.9H-2186.9z"/>
			<path d="M-2155.3,767.2h-5.6l-10.9-12.5v12.5h-4v-32.8h4v20.2l10.5-10.7h5.3l-10.9,10.8L-2155.3,767.2z"/>
			<path d="M-2132,766.3c-1.1,0.4-2.1,0.7-3.2,0.9c-1.1,0.2-2.2,0.3-3.4,0.3c-3.7,0-6.5-1-8.5-3c-2-2-3-4.9-3-8.8
				c0-1.8,0.3-3.5,0.9-5c0.6-1.5,1.4-2.8,2.4-3.9c1-1.1,2.3-1.9,3.7-2.5c1.4-0.6,3-0.9,4.8-0.9c1.2,0,2.3,0.1,3.4,0.3
				c1.1,0.2,2.1,0.4,3,0.8v3.9c-1-0.5-2-0.9-3.1-1.1c-1-0.2-2.1-0.4-3.2-0.4c-1,0-2,0.2-2.9,0.6s-1.7,1-2.4,1.7
				c-0.7,0.7-1.2,1.6-1.6,2.7c-0.4,1.1-0.6,2.3-0.6,3.6c0,2.8,0.7,4.9,2.1,6.3s3.3,2.1,5.7,2.1c1.1,0,2.2-0.1,3.2-0.4
				c1-0.2,2-0.6,3-1.1V766.3z"/>
			<path d="M-2108.2,743.9v22.9c0,1.6-0.2,3.1-0.7,4.3c-0.5,1.3-1.1,2.3-2,3.2c-0.9,0.9-1.9,1.5-3.2,2c-1.3,0.4-2.7,0.7-4.3,0.7
				c-1.1,0-2.3-0.1-3.4-0.3c-1.1-0.2-2.1-0.5-3-0.9v-3.9c0.5,0.2,1,0.5,1.5,0.7c0.5,0.2,1.1,0.4,1.7,0.5c0.6,0.1,1.2,0.2,1.8,0.3
				c0.6,0.1,1.2,0.1,1.7,0.1c1.8,0,3.2-0.6,4.2-1.7c1-1.1,1.5-2.8,1.5-4.9v-19.7h-11.4v-3.3H-2108.2z M-2110.6,734.1
				c0.4,0,0.9,0.1,1.3,0.2c0.4,0.2,0.7,0.4,1,0.7c0.3,0.3,0.5,0.6,0.7,1c0.2,0.4,0.2,0.8,0.2,1.2c0,0.4-0.1,0.9-0.2,1.2
				c-0.2,0.4-0.4,0.7-0.7,1c-0.3,0.3-0.6,0.5-1,0.7c-0.4,0.2-0.8,0.2-1.3,0.2s-0.9-0.1-1.3-0.2c-0.4-0.2-0.7-0.4-1-0.7
				c-0.3-0.3-0.5-0.6-0.7-1c-0.2-0.4-0.2-0.8-0.2-1.2c0-0.4,0.1-0.8,0.2-1.2c0.2-0.4,0.4-0.7,0.7-1c0.3-0.3,0.6-0.5,1-0.7
				C-2111.5,734.2-2111,734.1-2110.6,734.1z"/>
			<path d="M-2082.8,767.2l-0.1-3.1c-1.3,1.3-2.6,2.2-3.9,2.7c-1.3,0.6-2.7,0.8-4.1,0.8c-1.3,0-2.5-0.2-3.4-0.5
				c-0.9-0.3-1.7-0.8-2.3-1.4c-0.6-0.6-1.1-1.3-1.3-2.1s-0.4-1.7-0.4-2.6c0-2.3,0.9-4.2,2.6-5.5c1.7-1.3,4.3-2,7.7-2h4.8v-2
				c0-1.4-0.4-2.5-1.3-3.3c-0.9-0.8-2.2-1.2-4-1.2c-1.3,0-2.6,0.1-3.9,0.4c-1.3,0.3-2.6,0.7-4,1.3v-3.6c0.5-0.2,1.1-0.4,1.7-0.5
				c0.6-0.2,1.3-0.3,2-0.5c0.7-0.1,1.4-0.3,2.2-0.3c0.8-0.1,1.5-0.1,2.3-0.1c1.4,0,2.7,0.2,3.8,0.5c1.1,0.3,2.1,0.8,2.9,1.4
				c0.8,0.6,1.4,1.4,1.8,2.4c0.4,1,0.6,2.1,0.6,3.4v16.1H-2082.8z M-2083.3,756.6h-5.1c-1,0-1.9,0.1-2.6,0.3
				c-0.7,0.2-1.3,0.5-1.8,0.9c-0.5,0.4-0.8,0.8-1,1.3c-0.2,0.5-0.3,1.1-0.3,1.8c0,0.4,0.1,0.9,0.2,1.3c0.1,0.4,0.4,0.8,0.7,1.1
				c0.3,0.3,0.7,0.6,1.2,0.8c0.5,0.2,1.1,0.3,1.8,0.3c0.9,0,2-0.3,3.2-0.8c1.2-0.6,2.5-1.5,3.8-2.7V756.6z"/>
		</g>
		<g>
			<path d="M-2420.3,835.4c-2.6,1-5.2,1.7-7.9,2.2c-2.7,0.5-5.5,0.7-8.4,0.7c-9,0-16-2.4-20.8-7.3c-4.9-4.9-7.3-12-7.3-21.4
				c0-4.5,0.7-8.6,2.1-12.3c1.4-3.7,3.4-6.8,5.9-9.4c2.5-2.6,5.6-4.6,9.1-6.1c3.5-1.4,7.4-2.1,11.6-2.1c3,0,5.7,0.2,8.3,0.6
				c2.6,0.4,5,1.1,7.4,2v9.4c-2.5-1.3-5-2.2-7.5-2.8c-2.6-0.6-5.2-0.9-7.9-0.9c-2.5,0-4.9,0.5-7.2,1.4c-2.3,1-4.2,2.4-5.9,4.2
				s-3,4-4,6.6c-1,2.6-1.5,5.6-1.5,8.9c0,6.9,1.7,12.1,5,15.5c3.4,3.4,8,5.1,13.9,5.1c2.7,0,5.3-0.3,7.8-0.9c2.5-0.6,5-1.5,7.3-2.7
				V835.4z"/>
			<path d="M-2349.9,780.5l-19.4,51c-2,5.2-4.1,9.7-6.2,13.4c-2.1,3.8-4.5,6.8-7,9.2c-2.5,2.4-5.3,4.2-8.4,5.3
				c-3,1.1-6.4,1.7-10.2,1.7c-1,0-1.9,0-2.7-0.1c-0.8,0-1.7-0.1-2.6-0.2v-9c0.8,0.1,1.7,0.2,2.7,0.3c1,0.1,2,0.1,3.1,0.1
				c1.8,0,3.5-0.3,5.1-0.8c1.6-0.5,3.1-1.4,4.5-2.6c1.4-1.2,2.7-2.7,4-4.6c1.3-1.9,2.5-4.2,3.8-6.9l-22.8-57h11.2l14.4,37.7l2.9,8.9
				l3.3-9.1l13.4-37.5H-2349.9z"/>
			<path d="M-2286.1,766.5c-5.2-1.1-9.7-1.6-13.4-1.6c-8.9,0-13.4,4.7-13.4,14v10h25v8.2h-25v40.5h-10.1V797h-18.4v-8.2h18.4v-9.4
				c0-15.2,7.9-22.8,23.7-22.8c3.9,0,8.3,0.5,13.1,1.4V766.5z"/>
			<path d="M-2270.4,780.5h9l0.3,10.5c3.4-4.1,6.7-7,10-8.8c3.3-1.8,6.6-2.7,9.9-2.7c5.9,0,10.4,1.9,13.4,5.7c3,3.8,4.5,9.5,4.2,17
				h-10c0.1-5-0.6-8.6-2.2-10.9c-1.6-2.3-3.9-3.4-6.9-3.4c-1.3,0-2.7,0.2-4,0.7c-1.3,0.5-2.7,1.2-4.1,2.3c-1.4,1-2.9,2.4-4.5,4
				c-1.6,1.6-3.3,3.6-5.1,5.9v36.6h-10V780.5z"/>
			<path d="M-2159.1,808.6c0,4.4-0.6,8.5-1.9,12.2c-1.2,3.7-3,6.9-5.4,9.5c-2.3,2.6-5.2,4.7-8.6,6.1c-3.4,1.5-7.2,2.2-11.5,2.2
				c-4.1,0-7.8-0.6-11-1.9c-3.2-1.3-6-3.1-8.2-5.6c-2.3-2.5-4-5.5-5.2-9.1c-1.2-3.6-1.8-7.8-1.8-12.6c0-4.4,0.6-8.5,1.9-12.1
				c1.2-3.7,3-6.8,5.4-9.4c2.3-2.6,5.2-4.7,8.6-6.1c3.4-1.5,7.2-2.2,11.5-2.2c4.1,0,7.8,0.6,11,1.9c3.2,1.3,6,3.1,8.2,5.6
				c2.3,2.4,4,5.5,5.2,9.1C-2159.7,799.7-2159.1,803.9-2159.1,808.6z M-2169.2,809c0-3.5-0.4-6.6-1.2-9.2c-0.8-2.6-1.9-4.8-3.3-6.6
				c-1.4-1.8-3.2-3.1-5.3-4c-2.1-0.9-4.4-1.3-6.9-1.3c-3,0-5.5,0.6-7.6,1.7c-2.1,1.2-3.8,2.7-5.2,4.6c-1.3,1.9-2.3,4.2-3,6.7
				c-0.6,2.6-0.9,5.2-0.9,8c0,3.5,0.4,6.6,1.2,9.3c0.8,2.7,1.9,4.9,3.3,6.6c1.4,1.8,3.2,3.1,5.2,4c2,0.9,4.4,1.3,6.9,1.3
				c3,0,5.5-0.6,7.6-1.7s3.8-2.7,5.2-4.6c1.3-1.9,2.3-4.2,3-6.7C-2169.5,814.5-2169.2,811.8-2169.2,809z"/>
			<path d="M-2091.9,780.5l-8.3,57h-12l-8.2-23.9l-1.6-5.8l-1.9,6.1l-7.9,23.5h-11.6l-8.2-57h9.7l4.8,38.7l1,8.6l2.4-7.6l8.3-25.6
				h7.1l8.9,25.3l2.6,7.6l0.9-8l4.4-39H-2091.9z"/>
			<path d="M-2044.1,837.5l-0.2-7.7c-3.1,3.1-6.3,5.3-9.5,6.6c-3.2,1.4-6.6,2-10.1,2c-3.3,0-6-0.4-8.4-1.2c-2.3-0.8-4.2-2-5.7-3.4
				c-1.5-1.5-2.6-3.2-3.3-5.1c-0.7-2-1.1-4.1-1.1-6.4c0-5.7,2.1-10.2,6.4-13.4c4.3-3.2,10.6-4.9,18.9-4.9h11.8v-5
				c0-3.4-1.1-6.1-3.2-8.1c-2.2-2-5.5-3-9.9-3c-3.2,0-6.4,0.4-9.5,1.1c-3.1,0.7-6.4,1.7-9.7,3.1v-8.9c1.2-0.5,2.6-0.9,4.2-1.3
				c1.5-0.4,3.2-0.8,4.9-1.2c1.7-0.3,3.5-0.6,5.3-0.8c1.9-0.2,3.7-0.3,5.6-0.3c3.4,0,6.6,0.4,9.3,1.1c2.8,0.8,5.1,1.9,7,3.5
				c1.9,1.6,3.4,3.5,4.4,5.9c1,2.3,1.5,5.1,1.5,8.3v39.3H-2044.1z M-2045.2,811.6h-12.6c-2.5,0-4.6,0.2-6.4,0.7
				c-1.8,0.5-3.2,1.2-4.4,2.1c-1.1,0.9-2,2-2.5,3.3c-0.5,1.3-0.8,2.7-0.8,4.3c0,1.1,0.2,2.2,0.5,3.2c0.3,1,0.9,1.9,1.6,2.7
				c0.8,0.8,1.7,1.4,3,1.8c1.2,0.5,2.7,0.7,4.4,0.7c2.3,0,4.9-0.7,7.8-2.1c2.9-1.4,6-3.6,9.3-6.6V811.6z"/>
		</g>
	</g>
</g>
</svg>
