<?xml version="1.0" encoding="utf-8"?>
<!-- Generator: Adobe Illustrator 26.3.1, SVG Export Plug-In . SVG Version: 6.00 Build 0)  -->
<svg version="1.1" id="Warstwa_1" xmlns="http://www.w3.org/2000/svg" x="0px" y="0px"
     viewBox="0 0 500 500" style="enable-background:new 0 0 500 500;" xml:space="preserve">
<style type="text/css">
	.st0{fill:#00C3FF;}
	.st1{fill:#CC129C;}
	.st2{fill:#3FA9F5;}
	.st3{fill:#FFFFFF;}
	.st4{fill:#3E9E16;}
	.st5{fill:#4D4D4D;}
</style>
<rect x="-811.5" y="1280.5" class="st0" width="1265" height="484"/>
<rect x="-2238.5" y="0.5" class="st1" width="1265" height="1123"/>
<g>
	<path class="st2" d="M1597.7,180.4H1562c-3.7,0-7.1,2-9,5.2l-17.8,30.9c-1.9,3.2-1.9,7.2,0,10.4l17.8,30.9c1.9,3.2,5.3,5.2,9,5.2
		h35.7c3.7,0,7.1-2,9-5.2l17.8-30.9c1.9-3.2,1.9-7.2,0-10.4l-17.8-30.9C1604.9,182.3,1601.4,180.4,1597.7,180.4z"/>
	<path class="st2" d="M1598.9,276.9h-36.3c-3.8,0-7.3,2-9.2,5.3l-18.2,31.6c-1.9,3.3-1.9,7.3,0,10.6l18.2,31.6
		c1.9,3.3,5.4,5.3,9.2,5.3h36.3c3.8,0,7.3-2,9.2-5.3l18.2-31.6c1.9-3.3,1.9-7.3,0-10.6l-18.2-31.6
		C1606.1,278.9,1602.6,276.9,1598.9,276.9z"/>
	<path class="st2" d="M1663.1,242.4h-23.6c-2.5,0-4.7,1.3-6,3.5l-11.8,20.6c-1.2,2.1-1.2,4.8,0,6.9l11.8,20.6c1.2,2.1,3.5,3.5,6,3.5
		h23.6c2.5,0,4.7-1.3,6-3.5l11.8-20.6c1.2-2.1,1.2-4.8,0-6.9l-11.8-20.6C1667.8,243.7,1665.5,242.4,1663.1,242.4z"/>
	<path class="st2" d="M1419,178.4H1383c-3.7,0-7.2,2-9.1,5.2l-18,31.1c-1.9,3.2-1.9,7.2,0,10.5l18,31.1c1.9,3.2,5.3,5.2,9.1,5.2
		h35.9c3.7,0,7.2-2,9.1-5.2l18-31.1c1.9-3.2,1.9-7.2,0-10.5l-18-31.1C1426.2,180.4,1422.7,178.4,1419,178.4z"/>
	<text transform="matrix(1 0 0 1 1100.042 269.1094)" style="font-family:'Consolas'; font-size:72.7571px;">lekcja</text>
	<text transform="matrix(1 0 0 1 730.6426 376.7129)" style="font-family:'Consolas'; font-size:178px;">cyfrowa</text>
	<path d="M1419.4,86.5h-28c-1.9,0-3.7,1-4.6,2.7l-14,24.2c-0.9,1.6-0.9,3.7,0,5.3l14,24.2c0.9,1.6,2.7,2.7,4.6,2.7h28
		c1.9,0,3.7-1,4.6-2.7l14-24.2c0.9-1.6,0.9-3.7,0-5.3l-14-24.2C1423,87.5,1421.3,86.5,1419.4,86.5z"/>
	<path d="M1349.2,148h-9c-0.5,0-0.9,0.2-1.1,0.6l-4.5,7.8c-0.2,0.4-0.2,0.9,0,1.3l4.5,7.8c0.2,0.4,0.7,0.6,1.1,0.6h9
		c0.5,0,0.9-0.2,1.1-0.6l4.5-7.8c0.2-0.4,0.2-0.9,0-1.3l-4.5-7.8C1350,148.2,1349.6,148,1349.2,148z"/>
	<path d="M1665.7,148h-8.7c-0.6,0-1.1,0.3-1.4,0.8l-4.3,7.5c-0.3,0.5-0.3,1.1,0,1.6l4.3,7.5c0.3,0.5,0.8,0.8,1.4,0.8h8.7
		c0.6,0,1.1-0.3,1.4-0.8l4.3-7.5c0.3-0.5,0.3-1.1,0-1.6l-4.3-7.5C1666.8,148.3,1666.3,148,1665.7,148z"/>
	<path d="M1723.1,215.3h-8.6c-0.6,0-1.1,0.3-1.4,0.8l-4.3,7.5c-0.3,0.5-0.3,1.1,0,1.6l4.3,7.5c0.3,0.5,0.8,0.8,1.4,0.8h8.6
		c0.6,0,1.1-0.3,1.4-0.8l4.3-7.5c0.3-0.5,0.3-1.1,0-1.6l-4.3-7.5C1724.3,215.6,1723.7,215.3,1723.1,215.3z"/>
	<path d="M1549.1,118.4h-8.5c-0.6,0-1.2,0.3-1.5,0.9l-4.3,7.4c-0.3,0.5-0.3,1.2,0,1.7l4.3,7.4c0.3,0.5,0.9,0.9,1.5,0.9h8.5
		c0.6,0,1.2-0.3,1.5-0.9l4.3-7.4c0.3-0.5,0.3-1.2,0-1.7l-4.3-7.4C1550.3,118.8,1549.7,118.4,1549.1,118.4z"/>
	<path d="M1765.8,321.9h-8.5c-0.6,0-1.2,0.3-1.5,0.9l-4.3,7.4c-0.3,0.5-0.3,1.2,0,1.7l4.3,7.4c0.3,0.5,0.9,0.9,1.5,0.9h8.5
		c0.6,0,1.2-0.3,1.5-0.9l4.3-7.4c0.3-0.5,0.3-1.2,0-1.7l-4.3-7.4C1766.9,322.3,1766.4,321.9,1765.8,321.9z"/>
	<path d="M1519.6,342.5h-14.9c-1.7,0-3.3,0.9-4.1,2.4l-7.5,12.9c-0.8,1.5-0.8,3.3,0,4.7l7.5,12.9c0.8,1.5,2.4,2.4,4.1,2.4h14.9
		c1.7,0,3.3-0.9,4.1-2.4l7.5-12.9c0.8-1.5,0.8-3.3,0-4.7l-7.5-12.9C1522.8,343.4,1521.3,342.5,1519.6,342.5z"/>
	<path d="M1652.2,355.7h-24.3c-3,0-5.8,1.6-7.3,4.2l-12.2,21.1c-1.5,2.6-1.5,5.8,0,8.5l12.2,21.1c1.5,2.6,4.3,4.2,7.3,4.2h24.3
		c3,0,5.8-1.6,7.3-4.2l12.2-21.1c1.5-2.6,1.5-5.8,0-8.5l-12.2-21.1C1658,357.3,1655.3,355.7,1652.2,355.7z"/>
	<path d="M1671.4,295l11.4-19.8c1.7-3,1.7-6.7,0-9.7l-11.4-19.8c-1.7-3-5-4.9-8.4-4.9h-22.9c-3.5,0-6.7,1.9-8.4,4.9l-11.4,19.8
		c-1.7,3-1.7,6.7,0,9.7l11.4,19.8c1.7,3,5,4.9,8.4,4.9h22.9C1666.5,299.9,1669.7,298,1671.4,295z M1669.5,248.9l9.5,16.5
		c1.7,3,1.7,6.7,0,9.7l-9.5,16.5c-1.7,3-5,4.9-8.4,4.9H1642c-3.5,0-6.7-1.9-8.4-4.9l-9.5-16.5c-1.7-3-1.7-6.7,0-9.7l9.5-16.5
		c1.7-3,5-4.9,8.4-4.9h19.1C1664.6,244.1,1667.8,245.9,1669.5,248.9z"/>
	<path d="M1509.5,122.6h-42.9c-2.6,0-4.9,1.4-6.2,3.6l-21.4,37.1c-1.3,2.2-1.3,5,0,7.2l21.4,37.1c1.3,2.2,3.7,3.6,6.2,3.6h42.9
		c2.6,0,4.9-1.4,6.2-3.6l21.4-37.1c1.3-2.2,1.3-5,0-7.2l-21.4-37.1C1514.4,124,1512.1,122.6,1509.5,122.6z"/>
	<path d="M1508.7,226h-41.3c-3,0-5.9,1.6-7.4,4.3l-20.7,35.8c-1.5,2.6-1.5,5.9,0,8.5l20.7,35.8c1.5,2.6,4.3,4.3,7.4,4.3h41.3
		c3,0,5.9-1.6,7.4-4.3l20.7-35.8c1.5-2.6,1.5-5.9,0-8.5l-20.7-35.8C1514.6,227.6,1511.8,226,1508.7,226z"/>
	<path d="M1420.2,175.1h-38.3c-4,0-7.7,2.1-9.7,5.6l-19.1,33.2c-2,3.5-2,7.7,0,11.2l19.1,33.2c2,3.5,5.7,5.6,9.7,5.6h38.3
		c4,0,7.7-2.1,9.7-5.6L1449,225c2-3.5,2-7.7,0-11.2l-19.1-33.2C1427.9,177.3,1424.2,175.1,1420.2,175.1z M1418.3,260.5h-34.5
		c-4,0-7.7-2.1-9.7-5.6l-17.2-29.9c-2-3.5-2-7.7,0-11.2l17.2-29.9c2-3.5,5.7-5.6,9.7-5.6h34.5c4,0,7.7,2.1,9.7,5.6l17.2,29.9
		c2,3.5,2,7.7,0,11.2l-17.2,29.9C1426,258.3,1422.3,260.5,1418.3,260.5z"/>
	<path d="M1596.1,176.8h-32.2c-5.9,0-11.3,3.1-14.2,8.2l-16.1,27.9c-2.9,5.1-2.9,11.3,0,16.4l16.1,27.9c2.9,5.1,8.3,8.2,14.2,8.2
		h32.2c5.9,0,11.3-3.1,14.2-8.2l16.1-27.9c2.9-5.1,2.9-11.3,0-16.4l-16.1-27.9C1607.4,179.9,1602,176.8,1596.1,176.8z M1593.1,258.8
		h-26.2c-5.4,0-10.4-2.9-13.1-7.5l-13.1-22.7c-2.7-4.7-2.7-10.4,0-15.1l13.1-22.7c2.7-4.7,7.7-7.5,13.1-7.5h26.2
		c5.4,0,10.4,2.9,13.1,7.5l13.1,22.7c2.7,4.7,2.7,10.4,0,15.1l-13.1,22.7C1603.4,255.9,1598.5,258.8,1593.1,258.8z"/>
	<path d="M1600.3,275.2h-40.6c-3.3,0-6.3,1.7-7.9,4.6l-20.3,35.2c-1.6,2.8-1.6,6.3,0,9.1l20.3,35.2c1.6,2.8,4.6,4.6,7.9,4.6h40.6
		c3.3,0,6.3-1.7,7.9-4.6l20.3-35.2c1.6-2.8,1.6-6.3,0-9.1l-20.3-35.2C1606.6,277,1603.6,275.2,1600.3,275.2z M1598.4,360.6h-36.8
		c-3.3,0-6.3-1.7-7.9-4.6l-18.4-31.9c-1.6-2.8-1.6-6.3,0-9.1l18.4-31.9c1.6-2.8,4.6-4.6,7.9-4.6h36.8c3.3,0,6.3,1.7,7.9,4.6
		l18.4,31.9c1.6,2.8,1.6,6.3,0,9.1l-18.4,31.9C1604.7,358.8,1601.7,360.6,1598.4,360.6z"/>
	<path d="M1422.9,158.7H1342v-3.3h80.9c4.2,0,8-2.3,10-5.9l10.8-19.7c2.5-4.5,7.2-7.3,12.3-7.3h45.2v3.3H1456
		c-3.9,0-7.5,2.1-9.4,5.6l-10.8,19.7C1433.2,155.8,1428.3,158.7,1422.9,158.7z"/>
	<path d="M1538.8,210.4l-2.9-1.6l26.3-46.8c2.3-4.1,6.6-6.6,11.3-6.6h83.6v3.3h-83.6c-3.5,0-6.7,1.9-8.4,4.9L1538.8,210.4z"/>
	<path d="M1615.9,374.5l-2.8-1.6l20.8-36.1c2.6-4.6,7.5-7.4,12.8-7.4h115.5v3.3h-115.5c-4.1,0-7.9,2.2-10,5.8L1615.9,374.5z"/>
	<path d="M1627.4,259.6l-2.8-1.6l17.3-30.3c1.8-3.1,5.1-5,8.6-5h64.1v3.3h-64.1c-2.4,0-4.6,1.3-5.8,3.4L1627.4,259.6z"/>
</g>
<g>
	<text transform="matrix(1 0 0 1 -322.958 1541.1094)" class="st3" style="font-family:'Consolas'; font-size:72.7571px;">lekcja</text>
	<text transform="matrix(1 0 0 1 -692.3574 1648.7129)" class="st3" style="font-family:'Consolas'; font-size:178px;">cyfrowa</text>
	<path class="st3" d="M-3.6,1358.5h-28c-1.9,0-3.7,1-4.6,2.7l-14,24.2c-0.9,1.6-0.9,3.7,0,5.3l14,24.2c0.9,1.6,2.7,2.7,4.6,2.7h28
		c1.9,0,3.7-1,4.6-2.7l14-24.2c0.9-1.6,0.9-3.7,0-5.3l-14-24.2C0,1359.5-1.7,1358.5-3.6,1358.5z"/>
	<path class="st3" d="M-73.8,1420h-9c-0.5,0-0.9,0.2-1.1,0.6l-4.5,7.8c-0.2,0.4-0.2,0.9,0,1.3l4.5,7.8c0.2,0.4,0.7,0.6,1.1,0.6h9
		c0.5,0,0.9-0.2,1.1-0.6l4.5-7.8c0.2-0.4,0.2-0.9,0-1.3l-4.5-7.8C-73,1420.2-73.4,1420-73.8,1420z"/>
	<path class="st3" d="M242.7,1420h-8.7c-0.6,0-1.1,0.3-1.4,0.8l-4.3,7.5c-0.3,0.5-0.3,1.1,0,1.6l4.3,7.5c0.3,0.5,0.8,0.8,1.4,0.8
		h8.7c0.6,0,1.1-0.3,1.4-0.8l4.3-7.5c0.3-0.5,0.3-1.1,0-1.6l-4.3-7.5C243.8,1420.3,243.3,1420,242.7,1420z"/>
	<path class="st3" d="M300.1,1487.3h-8.6c-0.6,0-1.1,0.3-1.4,0.8l-4.3,7.5c-0.3,0.5-0.3,1.1,0,1.6l4.3,7.5c0.3,0.5,0.8,0.8,1.4,0.8
		h8.6c0.6,0,1.1-0.3,1.4-0.8l4.3-7.5c0.3-0.5,0.3-1.1,0-1.6l-4.3-7.5C301.3,1487.6,300.7,1487.3,300.1,1487.3z"/>
	<path class="st3" d="M126.1,1390.4h-8.5c-0.6,0-1.2,0.3-1.5,0.9l-4.3,7.4c-0.3,0.5-0.3,1.2,0,1.7l4.3,7.4c0.3,0.5,0.9,0.9,1.5,0.9
		h8.5c0.6,0,1.2-0.3,1.5-0.9l4.3-7.4c0.3-0.5,0.3-1.2,0-1.7l-4.3-7.4C127.3,1390.8,126.7,1390.4,126.1,1390.4z"/>
	<path class="st3" d="M342.8,1593.9h-8.5c-0.6,0-1.2,0.3-1.5,0.9l-4.3,7.4c-0.3,0.5-0.3,1.2,0,1.7l4.3,7.4c0.3,0.5,0.9,0.9,1.5,0.9
		h8.5c0.6,0,1.2-0.3,1.5-0.9l4.3-7.4c0.3-0.5,0.3-1.2,0-1.7l-4.3-7.4C343.9,1594.3,343.4,1593.9,342.8,1593.9z"/>
	<path class="st3" d="M96.6,1614.5H81.6c-1.7,0-3.3,0.9-4.1,2.4l-7.5,12.9c-0.8,1.5-0.8,3.3,0,4.7l7.5,12.9c0.8,1.5,2.4,2.4,4.1,2.4
		h14.9c1.7,0,3.3-0.9,4.1-2.4l7.5-12.9c0.8-1.5,0.8-3.3,0-4.7l-7.5-12.9C99.8,1615.4,98.3,1614.5,96.6,1614.5z"/>
	<path class="st3" d="M229.2,1627.7h-24.3c-3,0-5.8,1.6-7.3,4.2l-12.2,21.1c-1.5,2.6-1.5,5.8,0,8.5l12.2,21.1
		c1.5,2.6,4.3,4.2,7.3,4.2h24.3c3,0,5.8-1.6,7.3-4.2l12.2-21.1c1.5-2.6,1.5-5.8,0-8.5l-12.2-21.1
		C235,1629.3,232.3,1627.7,229.2,1627.7z"/>
	<path class="st3" d="M248.4,1567l11.4-19.8c1.7-3,1.7-6.7,0-9.7l-11.4-19.8c-1.7-3-5-4.9-8.4-4.9h-22.9c-3.5,0-6.7,1.9-8.4,4.9
		l-11.4,19.8c-1.7,3-1.7,6.7,0,9.7l11.4,19.8c1.7,3,5,4.9,8.4,4.9H240C243.5,1571.9,246.7,1570,248.4,1567z M246.5,1520.9l9.5,16.5
		c1.7,3,1.7,6.7,0,9.7l-9.5,16.5c-1.7,3-5,4.9-8.4,4.9H219c-3.5,0-6.7-1.9-8.4-4.9l-9.5-16.5c-1.7-3-1.7-6.7,0-9.7l9.5-16.5
		c1.7-3,5-4.9,8.4-4.9h19.1C241.6,1516.1,244.8,1517.9,246.5,1520.9z"/>
	<path class="st3" d="M86.5,1394.6H43.6c-2.6,0-4.9,1.4-6.2,3.6L16,1435.3c-1.3,2.2-1.3,5,0,7.2l21.4,37.1c1.3,2.2,3.7,3.6,6.2,3.6
		h42.9c2.6,0,4.9-1.4,6.2-3.6l21.4-37.1c1.3-2.2,1.3-5,0-7.2l-21.4-37.1C91.4,1396,89.1,1394.6,86.5,1394.6z"/>
	<path class="st3" d="M85.7,1498H44.4c-3,0-5.9,1.6-7.4,4.3L16.4,1538c-1.5,2.6-1.5,5.9,0,8.5l20.7,35.8c1.5,2.6,4.3,4.3,7.4,4.3
		h41.3c3,0,5.9-1.6,7.4-4.3l20.7-35.8c1.5-2.6,1.5-5.9,0-8.5l-20.7-35.8C91.6,1499.6,88.8,1498,85.7,1498z"/>
	<path class="st3" d="M-2.8,1447.1h-38.3c-4,0-7.7,2.1-9.7,5.6l-19.1,33.2c-2,3.5-2,7.7,0,11.2l19.1,33.2c2,3.5,5.7,5.6,9.7,5.6
		h38.3c4,0,7.7-2.1,9.7-5.6L26,1497c2-3.5,2-7.7,0-11.2l-19.1-33.2C4.9,1449.3,1.2,1447.1-2.8,1447.1z M-4.7,1532.5h-34.5
		c-4,0-7.7-2.1-9.7-5.6l-17.2-29.9c-2-3.5-2-7.7,0-11.2l17.2-29.9c2-3.5,5.7-5.6,9.7-5.6h34.5c4,0,7.7,2.1,9.7,5.6l17.2,29.9
		c2,3.5,2,7.7,0,11.2L5,1526.9C3,1530.3-0.7,1532.5-4.7,1532.5z"/>
	<path class="st3" d="M173.1,1448.8h-32.2c-5.9,0-11.3,3.1-14.2,8.2l-16.1,27.9c-2.9,5.1-2.9,11.3,0,16.4l16.1,27.9
		c2.9,5.1,8.3,8.2,14.2,8.2h32.2c5.9,0,11.3-3.1,14.2-8.2l16.1-27.9c2.9-5.1,2.9-11.3,0-16.4l-16.1-27.9
		C184.4,1451.9,179,1448.8,173.1,1448.8z M170.1,1530.8h-26.2c-5.4,0-10.4-2.9-13.1-7.5l-13.1-22.7c-2.7-4.7-2.7-10.4,0-15.1
		l13.1-22.7c2.7-4.7,7.7-7.5,13.1-7.5h26.2c5.4,0,10.4,2.9,13.1,7.5l13.1,22.7c2.7,4.7,2.7,10.4,0,15.1l-13.1,22.7
		C180.4,1527.9,175.5,1530.8,170.1,1530.8z"/>
	<path class="st3" d="M177.3,1547.2h-40.6c-3.3,0-6.3,1.7-7.9,4.6l-20.3,35.2c-1.6,2.8-1.6,6.3,0,9.1l20.3,35.2
		c1.6,2.8,4.6,4.6,7.9,4.6h40.6c3.3,0,6.3-1.7,7.9-4.6l20.3-35.2c1.6-2.8,1.6-6.3,0-9.1l-20.3-35.2
		C183.6,1549,180.6,1547.2,177.3,1547.2z M175.4,1632.6h-36.8c-3.3,0-6.3-1.7-7.9-4.6l-18.4-31.9c-1.6-2.8-1.6-6.3,0-9.1l18.4-31.9
		c1.6-2.8,4.6-4.6,7.9-4.6h36.8c3.3,0,6.3,1.7,7.9,4.6l18.4,31.9c1.6,2.8,1.6,6.3,0,9.1l-18.4,31.9
		C181.7,1630.8,178.7,1632.6,175.4,1632.6z"/>
	<path class="st3" d="M-0.1,1430.7H-81v-3.3h80.9c4.2,0,8-2.3,10-5.9l10.8-19.7c2.5-4.5,7.2-7.3,12.3-7.3h45.2v3.3H33
		c-3.9,0-7.5,2.1-9.4,5.6l-10.8,19.7C10.2,1427.8,5.3,1430.7-0.1,1430.7z"/>
	<path class="st3" d="M115.8,1482.4l-2.9-1.6l26.3-46.8c2.3-4.1,6.6-6.6,11.3-6.6h83.6v3.3h-83.6c-3.5,0-6.7,1.9-8.4,4.9
		L115.8,1482.4z"/>
	<path class="st3" d="M192.9,1646.5l-2.8-1.6l20.8-36.1c2.6-4.6,7.5-7.4,12.8-7.4h115.5v3.3H223.7c-4.1,0-7.9,2.2-10,5.8
		L192.9,1646.5z"/>
	<path class="st3" d="M204.4,1531.6l-2.8-1.6l17.3-30.3c1.8-3.1,5.1-5,8.6-5h64.1v3.3h-64.1c-2.4,0-4.6,1.3-5.8,3.4L204.4,1531.6z"
		/>
</g>
<rect x="590.5" y="1926.5" class="st4" width="1265" height="484"/>
<g>
	<text transform="matrix(1 0 0 1 1079.042 2187.1094)" class="st3" style="font-family:'Consolas'; font-size:72.7571px;">lekcja</text>
	<text transform="matrix(1 0 0 1 709.6426 2294.7129)" class="st3" style="font-family:'Consolas'; font-size:178px;">cyfrowa</text>
	<path class="st3" d="M1398.4,2004.5h-28c-1.9,0-3.7,1-4.6,2.7l-14,24.2c-0.9,1.6-0.9,3.7,0,5.3l14,24.2c0.9,1.6,2.7,2.7,4.6,2.7h28
		c1.9,0,3.7-1,4.6-2.7l14-24.2c0.9-1.6,0.9-3.7,0-5.3l-14-24.2C1402,2005.5,1400.3,2004.5,1398.4,2004.5z"/>
	<path class="st3" d="M1328.2,2066h-9c-0.5,0-0.9,0.2-1.1,0.6l-4.5,7.8c-0.2,0.4-0.2,0.9,0,1.3l4.5,7.8c0.2,0.4,0.7,0.6,1.1,0.6h9
		c0.5,0,0.9-0.2,1.1-0.6l4.5-7.8c0.2-0.4,0.2-0.9,0-1.3l-4.5-7.8C1329,2066.2,1328.6,2066,1328.2,2066z"/>
	<path class="st3" d="M1644.7,2066h-8.7c-0.6,0-1.1,0.3-1.4,0.8l-4.3,7.5c-0.3,0.5-0.3,1.1,0,1.6l4.3,7.5c0.3,0.5,0.8,0.8,1.4,0.8
		h8.7c0.6,0,1.1-0.3,1.4-0.8l4.3-7.5c0.3-0.5,0.3-1.1,0-1.6l-4.3-7.5C1645.8,2066.3,1645.3,2066,1644.7,2066z"/>
	<path class="st3" d="M1702.1,2133.3h-8.6c-0.6,0-1.1,0.3-1.4,0.8l-4.3,7.5c-0.3,0.5-0.3,1.1,0,1.6l4.3,7.5c0.3,0.5,0.8,0.8,1.4,0.8
		h8.6c0.6,0,1.1-0.3,1.4-0.8l4.3-7.5c0.3-0.5,0.3-1.1,0-1.6l-4.3-7.5C1703.3,2133.6,1702.7,2133.3,1702.1,2133.3z"/>
	<path class="st3" d="M1528.1,2036.4h-8.5c-0.6,0-1.2,0.3-1.5,0.9l-4.3,7.4c-0.3,0.5-0.3,1.2,0,1.7l4.3,7.4c0.3,0.5,0.9,0.9,1.5,0.9
		h8.5c0.6,0,1.2-0.3,1.5-0.9l4.3-7.4c0.3-0.5,0.3-1.2,0-1.7l-4.3-7.4C1529.3,2036.8,1528.7,2036.4,1528.1,2036.4z"/>
	<path class="st3" d="M1744.8,2239.9h-8.5c-0.6,0-1.2,0.3-1.5,0.9l-4.3,7.4c-0.3,0.5-0.3,1.2,0,1.7l4.3,7.4c0.3,0.5,0.9,0.9,1.5,0.9
		h8.5c0.6,0,1.2-0.3,1.5-0.9l4.3-7.4c0.3-0.5,0.3-1.2,0-1.7l-4.3-7.4C1745.9,2240.3,1745.4,2239.9,1744.8,2239.9z"/>
	<path class="st3" d="M1498.6,2260.5h-14.9c-1.7,0-3.3,0.9-4.1,2.4l-7.5,12.9c-0.8,1.5-0.8,3.3,0,4.7l7.5,12.9
		c0.8,1.5,2.4,2.4,4.1,2.4h14.9c1.7,0,3.3-0.9,4.1-2.4l7.5-12.9c0.8-1.5,0.8-3.3,0-4.7l-7.5-12.9
		C1501.8,2261.4,1500.3,2260.5,1498.6,2260.5z"/>
	<path class="st3" d="M1631.2,2273.7h-24.3c-3,0-5.8,1.6-7.3,4.2l-12.2,21.1c-1.5,2.6-1.5,5.8,0,8.5l12.2,21.1
		c1.5,2.6,4.3,4.2,7.3,4.2h24.3c3,0,5.8-1.6,7.3-4.2l12.2-21.1c1.5-2.6,1.5-5.8,0-8.5l-12.2-21.1
		C1637,2275.3,1634.3,2273.7,1631.2,2273.7z"/>
	<path class="st3" d="M1650.4,2213l11.4-19.8c1.7-3,1.7-6.7,0-9.7l-11.4-19.8c-1.7-3-5-4.9-8.4-4.9h-22.9c-3.5,0-6.7,1.9-8.4,4.9
		l-11.4,19.8c-1.7,3-1.7,6.7,0,9.7l11.4,19.8c1.7,3,5,4.9,8.4,4.9h22.9C1645.5,2217.9,1648.7,2216,1650.4,2213z M1648.5,2166.9
		l9.5,16.5c1.7,3,1.7,6.7,0,9.7l-9.5,16.5c-1.7,3-5,4.9-8.4,4.9H1621c-3.5,0-6.7-1.9-8.4-4.9l-9.5-16.5c-1.7-3-1.7-6.7,0-9.7
		l9.5-16.5c1.7-3,5-4.9,8.4-4.9h19.1C1643.6,2162.1,1646.8,2163.9,1648.5,2166.9z"/>
	<path class="st3" d="M1488.5,2040.6h-42.9c-2.6,0-4.9,1.4-6.2,3.6l-21.4,37.1c-1.3,2.2-1.3,5,0,7.2l21.4,37.1
		c1.3,2.2,3.7,3.6,6.2,3.6h42.9c2.6,0,4.9-1.4,6.2-3.6l21.4-37.1c1.3-2.2,1.3-5,0-7.2l-21.4-37.1
		C1493.4,2042,1491.1,2040.6,1488.5,2040.6z"/>
	<path class="st3" d="M1487.7,2144h-41.3c-3,0-5.9,1.6-7.4,4.3l-20.7,35.8c-1.5,2.6-1.5,5.9,0,8.5l20.7,35.8
		c1.5,2.6,4.3,4.3,7.4,4.3h41.3c3,0,5.9-1.6,7.4-4.3l20.7-35.8c1.5-2.6,1.5-5.9,0-8.5l-20.7-35.8
		C1493.6,2145.6,1490.8,2144,1487.7,2144z"/>
	<path class="st3" d="M1399.2,2093.1h-38.3c-4,0-7.7,2.1-9.7,5.6l-19.1,33.2c-2,3.5-2,7.7,0,11.2l19.1,33.2c2,3.5,5.7,5.6,9.7,5.6
		h38.3c4,0,7.7-2.1,9.7-5.6l19.1-33.2c2-3.5,2-7.7,0-11.2l-19.1-33.2C1406.9,2095.3,1403.2,2093.1,1399.2,2093.1z M1397.3,2178.5
		h-34.5c-4,0-7.7-2.1-9.7-5.6l-17.2-29.9c-2-3.5-2-7.7,0-11.2l17.2-29.9c2-3.5,5.7-5.6,9.7-5.6h34.5c4,0,7.7,2.1,9.7,5.6l17.2,29.9
		c2,3.5,2,7.7,0,11.2l-17.2,29.9C1405,2176.3,1401.3,2178.5,1397.3,2178.5z"/>
	<path class="st3" d="M1575.1,2094.8h-32.2c-5.9,0-11.3,3.1-14.2,8.2l-16.1,27.9c-2.9,5.1-2.9,11.3,0,16.4l16.1,27.9
		c2.9,5.1,8.3,8.2,14.2,8.2h32.2c5.9,0,11.3-3.1,14.2-8.2l16.1-27.9c2.9-5.1,2.9-11.3,0-16.4l-16.1-27.9
		C1586.4,2097.9,1581,2094.8,1575.1,2094.8z M1572.1,2176.8h-26.2c-5.4,0-10.4-2.9-13.1-7.5l-13.1-22.7c-2.7-4.7-2.7-10.4,0-15.1
		l13.1-22.7c2.7-4.7,7.7-7.5,13.1-7.5h26.2c5.4,0,10.4,2.9,13.1,7.5l13.1,22.7c2.7,4.7,2.7,10.4,0,15.1l-13.1,22.7
		C1582.4,2173.9,1577.5,2176.8,1572.1,2176.8z"/>
	<path class="st3" d="M1579.3,2193.2h-40.6c-3.3,0-6.3,1.7-7.9,4.6l-20.3,35.2c-1.6,2.8-1.6,6.3,0,9.1l20.3,35.2
		c1.6,2.8,4.6,4.6,7.9,4.6h40.6c3.3,0,6.3-1.7,7.9-4.6l20.3-35.2c1.6-2.8,1.6-6.3,0-9.1l-20.3-35.2
		C1585.6,2195,1582.6,2193.2,1579.3,2193.2z M1577.4,2278.6h-36.8c-3.3,0-6.3-1.7-7.9-4.6l-18.4-31.9c-1.6-2.8-1.6-6.3,0-9.1
		l18.4-31.9c1.6-2.8,4.6-4.6,7.9-4.6h36.8c3.3,0,6.3,1.7,7.9,4.6l18.4,31.9c1.6,2.8,1.6,6.3,0,9.1l-18.4,31.9
		C1583.7,2276.8,1580.7,2278.6,1577.4,2278.6z"/>
	<path class="st3" d="M1401.9,2076.7H1321v-3.3h80.9c4.2,0,8-2.3,10-5.9l10.8-19.7c2.5-4.5,7.2-7.3,12.3-7.3h45.2v3.3H1435
		c-3.9,0-7.5,2.1-9.4,5.6l-10.8,19.7C1412.2,2073.8,1407.3,2076.7,1401.9,2076.7z"/>
	<path class="st3" d="M1517.8,2128.4l-2.9-1.6l26.3-46.8c2.3-4.1,6.6-6.6,11.3-6.6h83.6v3.3h-83.6c-3.5,0-6.7,1.9-8.4,4.9
		L1517.8,2128.4z"/>
	<path class="st3" d="M1594.9,2292.5l-2.8-1.6l20.8-36.1c2.6-4.6,7.5-7.4,12.8-7.4h115.5v3.3h-115.5c-4.1,0-7.9,2.2-10,5.8
		L1594.9,2292.5z"/>
	<path class="st3" d="M1606.4,2177.6l-2.8-1.6l17.3-30.3c1.8-3.1,5.1-5,8.6-5h64.1v3.3h-64.1c-2.4,0-4.6,1.3-5.8,3.4L1606.4,2177.6z
		"/>
</g>
<rect x="590.5" y="1280.5" class="st5" width="1265" height="484"/>
<g>
	<text transform="matrix(1 0 0 1 1079.042 1541.1094)" class="st3" style="font-family:'Consolas'; font-size:72.7571px;">lekcja</text>
	<text transform="matrix(1 0 0 1 709.6426 1648.7129)" class="st3" style="font-family:'Consolas'; font-size:178px;">cyfrowa</text>
	<path class="st3" d="M1398.4,1358.5h-28c-1.9,0-3.7,1-4.6,2.7l-14,24.2c-0.9,1.6-0.9,3.7,0,5.3l14,24.2c0.9,1.6,2.7,2.7,4.6,2.7h28
		c1.9,0,3.7-1,4.6-2.7l14-24.2c0.9-1.6,0.9-3.7,0-5.3l-14-24.2C1402,1359.5,1400.3,1358.5,1398.4,1358.5z"/>
	<path class="st3" d="M1328.2,1420h-9c-0.5,0-0.9,0.2-1.1,0.6l-4.5,7.8c-0.2,0.4-0.2,0.9,0,1.3l4.5,7.8c0.2,0.4,0.7,0.6,1.1,0.6h9
		c0.5,0,0.9-0.2,1.1-0.6l4.5-7.8c0.2-0.4,0.2-0.9,0-1.3l-4.5-7.8C1329,1420.2,1328.6,1420,1328.2,1420z"/>
	<path class="st3" d="M1644.7,1420h-8.7c-0.6,0-1.1,0.3-1.4,0.8l-4.3,7.5c-0.3,0.5-0.3,1.1,0,1.6l4.3,7.5c0.3,0.5,0.8,0.8,1.4,0.8
		h8.7c0.6,0,1.1-0.3,1.4-0.8l4.3-7.5c0.3-0.5,0.3-1.1,0-1.6l-4.3-7.5C1645.8,1420.3,1645.3,1420,1644.7,1420z"/>
	<path class="st3" d="M1702.1,1487.3h-8.6c-0.6,0-1.1,0.3-1.4,0.8l-4.3,7.5c-0.3,0.5-0.3,1.1,0,1.6l4.3,7.5c0.3,0.5,0.8,0.8,1.4,0.8
		h8.6c0.6,0,1.1-0.3,1.4-0.8l4.3-7.5c0.3-0.5,0.3-1.1,0-1.6l-4.3-7.5C1703.3,1487.6,1702.7,1487.3,1702.1,1487.3z"/>
	<path class="st3" d="M1528.1,1390.4h-8.5c-0.6,0-1.2,0.3-1.5,0.9l-4.3,7.4c-0.3,0.5-0.3,1.2,0,1.7l4.3,7.4c0.3,0.5,0.9,0.9,1.5,0.9
		h8.5c0.6,0,1.2-0.3,1.5-0.9l4.3-7.4c0.3-0.5,0.3-1.2,0-1.7l-4.3-7.4C1529.3,1390.8,1528.7,1390.4,1528.1,1390.4z"/>
	<path class="st3" d="M1744.8,1593.9h-8.5c-0.6,0-1.2,0.3-1.5,0.9l-4.3,7.4c-0.3,0.5-0.3,1.2,0,1.7l4.3,7.4c0.3,0.5,0.9,0.9,1.5,0.9
		h8.5c0.6,0,1.2-0.3,1.5-0.9l4.3-7.4c0.3-0.5,0.3-1.2,0-1.7l-4.3-7.4C1745.9,1594.3,1745.4,1593.9,1744.8,1593.9z"/>
	<path class="st3" d="M1498.6,1614.5h-14.9c-1.7,0-3.3,0.9-4.1,2.4l-7.5,12.9c-0.8,1.5-0.8,3.3,0,4.7l7.5,12.9
		c0.8,1.5,2.4,2.4,4.1,2.4h14.9c1.7,0,3.3-0.9,4.1-2.4l7.5-12.9c0.8-1.5,0.8-3.3,0-4.7l-7.5-12.9
		C1501.8,1615.4,1500.3,1614.5,1498.6,1614.5z"/>
	<path class="st3" d="M1631.2,1627.7h-24.3c-3,0-5.8,1.6-7.3,4.2l-12.2,21.1c-1.5,2.6-1.5,5.8,0,8.5l12.2,21.1
		c1.5,2.6,4.3,4.2,7.3,4.2h24.3c3,0,5.8-1.6,7.3-4.2l12.2-21.1c1.5-2.6,1.5-5.8,0-8.5l-12.2-21.1
		C1637,1629.3,1634.3,1627.7,1631.2,1627.7z"/>
	<path class="st3" d="M1650.4,1567l11.4-19.8c1.7-3,1.7-6.7,0-9.7l-11.4-19.8c-1.7-3-5-4.9-8.4-4.9h-22.9c-3.5,0-6.7,1.9-8.4,4.9
		l-11.4,19.8c-1.7,3-1.7,6.7,0,9.7l11.4,19.8c1.7,3,5,4.9,8.4,4.9h22.9C1645.5,1571.9,1648.7,1570,1650.4,1567z M1648.5,1520.9
		l9.5,16.5c1.7,3,1.7,6.7,0,9.7l-9.5,16.5c-1.7,3-5,4.9-8.4,4.9H1621c-3.5,0-6.7-1.9-8.4-4.9l-9.5-16.5c-1.7-3-1.7-6.7,0-9.7
		l9.5-16.5c1.7-3,5-4.9,8.4-4.9h19.1C1643.6,1516.1,1646.8,1517.9,1648.5,1520.9z"/>
	<path class="st3" d="M1488.5,1394.6h-42.9c-2.6,0-4.9,1.4-6.2,3.6l-21.4,37.1c-1.3,2.2-1.3,5,0,7.2l21.4,37.1
		c1.3,2.2,3.7,3.6,6.2,3.6h42.9c2.6,0,4.9-1.4,6.2-3.6l21.4-37.1c1.3-2.2,1.3-5,0-7.2l-21.4-37.1
		C1493.4,1396,1491.1,1394.6,1488.5,1394.6z"/>
	<path class="st3" d="M1487.7,1498h-41.3c-3,0-5.9,1.6-7.4,4.3l-20.7,35.8c-1.5,2.6-1.5,5.9,0,8.5l20.7,35.8
		c1.5,2.6,4.3,4.3,7.4,4.3h41.3c3,0,5.9-1.6,7.4-4.3l20.7-35.8c1.5-2.6,1.5-5.9,0-8.5l-20.7-35.8
		C1493.6,1499.6,1490.8,1498,1487.7,1498z"/>
	<path class="st3" d="M1399.2,1447.1h-38.3c-4,0-7.7,2.1-9.7,5.6l-19.1,33.2c-2,3.5-2,7.7,0,11.2l19.1,33.2c2,3.5,5.7,5.6,9.7,5.6
		h38.3c4,0,7.7-2.1,9.7-5.6l19.1-33.2c2-3.5,2-7.7,0-11.2l-19.1-33.2C1406.9,1449.3,1403.2,1447.1,1399.2,1447.1z M1397.3,1532.5
		h-34.5c-4,0-7.7-2.1-9.7-5.6l-17.2-29.9c-2-3.5-2-7.7,0-11.2l17.2-29.9c2-3.5,5.7-5.6,9.7-5.6h34.5c4,0,7.7,2.1,9.7,5.6l17.2,29.9
		c2,3.5,2,7.7,0,11.2l-17.2,29.9C1405,1530.3,1401.3,1532.5,1397.3,1532.5z"/>
	<path class="st3" d="M1575.1,1448.8h-32.2c-5.9,0-11.3,3.1-14.2,8.2l-16.1,27.9c-2.9,5.1-2.9,11.3,0,16.4l16.1,27.9
		c2.9,5.1,8.3,8.2,14.2,8.2h32.2c5.9,0,11.3-3.1,14.2-8.2l16.1-27.9c2.9-5.1,2.9-11.3,0-16.4l-16.1-27.9
		C1586.4,1451.9,1581,1448.8,1575.1,1448.8z M1572.1,1530.8h-26.2c-5.4,0-10.4-2.9-13.1-7.5l-13.1-22.7c-2.7-4.7-2.7-10.4,0-15.1
		l13.1-22.7c2.7-4.7,7.7-7.5,13.1-7.5h26.2c5.4,0,10.4,2.9,13.1,7.5l13.1,22.7c2.7,4.7,2.7,10.4,0,15.1l-13.1,22.7
		C1582.4,1527.9,1577.5,1530.8,1572.1,1530.8z"/>
	<path class="st3" d="M1579.3,1547.2h-40.6c-3.3,0-6.3,1.7-7.9,4.6l-20.3,35.2c-1.6,2.8-1.6,6.3,0,9.1l20.3,35.2
		c1.6,2.8,4.6,4.6,7.9,4.6h40.6c3.3,0,6.3-1.7,7.9-4.6l20.3-35.2c1.6-2.8,1.6-6.3,0-9.1l-20.3-35.2
		C1585.6,1549,1582.6,1547.2,1579.3,1547.2z M1577.4,1632.6h-36.8c-3.3,0-6.3-1.7-7.9-4.6l-18.4-31.9c-1.6-2.8-1.6-6.3,0-9.1
		l18.4-31.9c1.6-2.8,4.6-4.6,7.9-4.6h36.8c3.3,0,6.3,1.7,7.9,4.6l18.4,31.9c1.6,2.8,1.6,6.3,0,9.1l-18.4,31.9
		C1583.7,1630.8,1580.7,1632.6,1577.4,1632.6z"/>
	<path class="st3" d="M1401.9,1430.7H1321v-3.3h80.9c4.2,0,8-2.3,10-5.9l10.8-19.7c2.5-4.5,7.2-7.3,12.3-7.3h45.2v3.3H1435
		c-3.9,0-7.5,2.1-9.4,5.6l-10.8,19.7C1412.2,1427.8,1407.3,1430.7,1401.9,1430.7z"/>
	<path class="st3" d="M1517.8,1482.4l-2.9-1.6l26.3-46.8c2.3-4.1,6.6-6.6,11.3-6.6h83.6v3.3h-83.6c-3.5,0-6.7,1.9-8.4,4.9
		L1517.8,1482.4z"/>
	<path class="st3" d="M1594.9,1646.5l-2.8-1.6l20.8-36.1c2.6-4.6,7.5-7.4,12.8-7.4h115.5v3.3h-115.5c-4.1,0-7.9,2.2-10,5.8
		L1594.9,1646.5z"/>
	<path class="st3" d="M1606.4,1531.6l-2.8-1.6l17.3-30.3c1.8-3.1,5.1-5,8.6-5h64.1v3.3h-64.1c-2.4,0-4.6,1.3-5.8,3.4L1606.4,1531.6z
		"/>
</g>
<g>
	<text transform="matrix(1 0 0 1 -119.958 874.1094)" style="font-family:'Consolas'; font-size:72.7571px;">lekcja</text>
	<text transform="matrix(1 0 0 1 -489.3574 981.7129)" style="font-family:'Consolas'; font-size:178px;">cyfrowa</text>
	<path d="M199.4,691.5h-28c-1.9,0-3.7,1-4.6,2.7l-14,24.2c-0.9,1.6-0.9,3.7,0,5.3l14,24.2c0.9,1.6,2.7,2.7,4.6,2.7h28
		c1.9,0,3.7-1,4.6-2.7l14-24.2c0.9-1.6,0.9-3.7,0-5.3l-14-24.2C203,692.5,201.3,691.5,199.4,691.5z"/>
	<path d="M129.2,753h-9c-0.5,0-0.9,0.2-1.1,0.6l-4.5,7.8c-0.2,0.4-0.2,0.9,0,1.3l4.5,7.8c0.2,0.4,0.7,0.6,1.1,0.6h9
		c0.5,0,0.9-0.2,1.1-0.6l4.5-7.8c0.2-0.4,0.2-0.9,0-1.3l-4.5-7.8C130,753.2,129.6,753,129.2,753z"/>
	<path d="M445.7,753h-8.7c-0.6,0-1.1,0.3-1.4,0.8l-4.3,7.5c-0.3,0.5-0.3,1.1,0,1.6l4.3,7.5c0.3,0.5,0.8,0.8,1.4,0.8h8.7
		c0.6,0,1.1-0.3,1.4-0.8l4.3-7.5c0.3-0.5,0.3-1.1,0-1.6l-4.3-7.5C446.8,753.3,446.3,753,445.7,753z"/>
	<path d="M503.1,820.3h-8.6c-0.6,0-1.1,0.3-1.4,0.8l-4.3,7.5c-0.3,0.5-0.3,1.1,0,1.6l4.3,7.5c0.3,0.5,0.8,0.8,1.4,0.8h8.6
		c0.6,0,1.1-0.3,1.4-0.8l4.3-7.5c0.3-0.5,0.3-1.1,0-1.6l-4.3-7.5C504.3,820.6,503.7,820.3,503.1,820.3z"/>
	<path d="M329.1,723.4h-8.5c-0.6,0-1.2,0.3-1.5,0.9l-4.3,7.4c-0.3,0.5-0.3,1.2,0,1.7l4.3,7.4c0.3,0.5,0.9,0.9,1.5,0.9h8.5
		c0.6,0,1.2-0.3,1.5-0.9l4.3-7.4c0.3-0.5,0.3-1.2,0-1.7l-4.3-7.4C330.3,723.8,329.7,723.4,329.1,723.4z"/>
	<path d="M545.8,926.9h-8.5c-0.6,0-1.2,0.3-1.5,0.9l-4.3,7.4c-0.3,0.5-0.3,1.2,0,1.7l4.3,7.4c0.3,0.5,0.9,0.9,1.5,0.9h8.5
		c0.6,0,1.2-0.3,1.5-0.9l4.3-7.4c0.3-0.5,0.3-1.2,0-1.7l-4.3-7.4C546.9,927.3,546.4,926.9,545.8,926.9z"/>
	<path d="M299.6,947.5h-14.9c-1.7,0-3.3,0.9-4.1,2.4l-7.5,12.9c-0.8,1.5-0.8,3.3,0,4.7l7.5,12.9c0.8,1.5,2.4,2.4,4.1,2.4h14.9
		c1.7,0,3.3-0.9,4.1-2.4l7.5-12.9c0.8-1.5,0.8-3.3,0-4.7l-7.5-12.9C302.8,948.4,301.3,947.5,299.6,947.5z"/>
	<path d="M432.2,960.7h-24.3c-3,0-5.8,1.6-7.3,4.2L388.4,986c-1.5,2.6-1.5,5.8,0,8.5l12.2,21.1c1.5,2.6,4.3,4.2,7.3,4.2h24.3
		c3,0,5.8-1.6,7.3-4.2l12.2-21.1c1.5-2.6,1.5-5.8,0-8.5l-12.2-21.1C438,962.3,435.3,960.7,432.2,960.7z"/>
	<path d="M451.4,900l11.4-19.8c1.7-3,1.7-6.7,0-9.7l-11.4-19.8c-1.7-3-5-4.9-8.4-4.9h-22.9c-3.5,0-6.7,1.9-8.4,4.9l-11.4,19.8
		c-1.7,3-1.7,6.7,0,9.7l11.4,19.8c1.7,3,5,4.9,8.4,4.9H443C446.5,904.9,449.7,903,451.4,900z M449.5,853.9l9.5,16.5
		c1.7,3,1.7,6.7,0,9.7l-9.5,16.5c-1.7,3-5,4.9-8.4,4.9H422c-3.5,0-6.7-1.9-8.4-4.9l-9.5-16.5c-1.7-3-1.7-6.7,0-9.7l9.5-16.5
		c1.7-3,5-4.9,8.4-4.9h19.1C444.6,849.1,447.8,850.9,449.5,853.9z"/>
	<path d="M289.5,727.6h-42.9c-2.6,0-4.9,1.4-6.2,3.6L219,768.3c-1.3,2.2-1.3,5,0,7.2l21.4,37.1c1.3,2.2,3.7,3.6,6.2,3.6h42.9
		c2.6,0,4.9-1.4,6.2-3.6l21.4-37.1c1.3-2.2,1.3-5,0-7.2l-21.4-37.1C294.4,729,292.1,727.6,289.5,727.6z"/>
	<path d="M288.7,831h-41.3c-3,0-5.9,1.6-7.4,4.3L219.4,871c-1.5,2.6-1.5,5.9,0,8.5l20.7,35.8c1.5,2.6,4.3,4.3,7.4,4.3h41.3
		c3,0,5.9-1.6,7.4-4.3l20.7-35.8c1.5-2.6,1.5-5.9,0-8.5l-20.7-35.8C294.6,832.6,291.8,831,288.7,831z"/>
	<path d="M200.2,780.1h-38.3c-4,0-7.7,2.1-9.7,5.6l-19.1,33.2c-2,3.5-2,7.7,0,11.2l19.1,33.2c2,3.5,5.7,5.6,9.7,5.6h38.3
		c4,0,7.7-2.1,9.7-5.6L229,830c2-3.5,2-7.7,0-11.2l-19.1-33.2C207.9,782.3,204.2,780.1,200.2,780.1z M198.3,865.5h-34.5
		c-4,0-7.7-2.1-9.7-5.6L136.9,830c-2-3.5-2-7.7,0-11.2l17.2-29.9c2-3.5,5.7-5.6,9.7-5.6h34.5c4,0,7.7,2.1,9.7,5.6l17.2,29.9
		c2,3.5,2,7.7,0,11.2L208,859.9C206,863.3,202.3,865.5,198.3,865.5z"/>
	<path d="M376.1,781.8h-32.2c-5.9,0-11.3,3.1-14.2,8.2l-16.1,27.9c-2.9,5.1-2.9,11.3,0,16.4l16.1,27.9c2.9,5.1,8.3,8.2,14.2,8.2
		h32.2c5.9,0,11.3-3.1,14.2-8.2l16.1-27.9c2.9-5.1,2.9-11.3,0-16.4L390.3,790C387.4,784.9,382,781.8,376.1,781.8z M373.1,863.8
		h-26.2c-5.4,0-10.4-2.9-13.1-7.5l-13.1-22.7c-2.7-4.7-2.7-10.4,0-15.1l13.1-22.7c2.7-4.7,7.7-7.5,13.1-7.5h26.2
		c5.4,0,10.4,2.9,13.1,7.5l13.1,22.7c2.7,4.7,2.7,10.4,0,15.1l-13.1,22.7C383.4,860.9,378.5,863.8,373.1,863.8z"/>
	<path d="M380.3,880.2h-40.6c-3.3,0-6.3,1.7-7.9,4.6L311.4,920c-1.6,2.8-1.6,6.3,0,9.1l20.3,35.2c1.6,2.8,4.6,4.6,7.9,4.6h40.6
		c3.3,0,6.3-1.7,7.9-4.6l20.3-35.2c1.6-2.8,1.6-6.3,0-9.1l-20.3-35.2C386.6,882,383.6,880.2,380.3,880.2z M378.4,965.6h-36.8
		c-3.3,0-6.3-1.7-7.9-4.6l-18.4-31.9c-1.6-2.8-1.6-6.3,0-9.1l18.4-31.9c1.6-2.8,4.6-4.6,7.9-4.6h36.8c3.3,0,6.3,1.7,7.9,4.6
		l18.4,31.9c1.6,2.8,1.6,6.3,0,9.1L386.3,961C384.7,963.8,381.7,965.6,378.4,965.6z"/>
	<path d="M202.9,763.7H122v-3.3h80.9c4.2,0,8-2.3,10-5.9l10.8-19.7c2.5-4.5,7.2-7.3,12.3-7.3h45.2v3.3H236c-3.9,0-7.5,2.1-9.4,5.6
		l-10.8,19.7C213.2,760.8,208.3,763.7,202.9,763.7z"/>
	<path d="M318.8,815.4l-2.9-1.6l26.3-46.8c2.3-4.1,6.6-6.6,11.3-6.6h83.6v3.3h-83.6c-3.5,0-6.7,1.9-8.4,4.9L318.8,815.4z"/>
	<path d="M395.9,979.5l-2.8-1.6l20.8-36.1c2.6-4.6,7.5-7.4,12.8-7.4h115.5v3.3H426.7c-4.1,0-7.9,2.2-10,5.8L395.9,979.5z"/>
	<path d="M407.4,864.6l-2.8-1.6l17.3-30.3c1.8-3.1,5.1-5,8.6-5h64.1v3.3h-64.1c-2.4,0-4.6,1.3-5.8,3.4L407.4,864.6z"/>
</g>
<circle class="st3" cx="-1609" cy="562" r="407.5"/>
<g>
	<path class="st2" d="M124.7,180.7H90.1c-3.6,0-6.9,2-8.7,5.1L64,216.4c-1.8,3.2-1.8,7.1,0,10.3l17.3,30.6c1.8,3.2,5.1,5.1,8.7,5.1
		h34.6c3.6,0,6.9-2,8.7-5.1l17.3-30.6c1.8-3.2,1.8-7.1,0-10.3l-17.3-30.6C131.7,182.7,128.3,180.7,124.7,180.7z"/>
	<path class="st2" d="M292.4,273.9h-34.2c-3.6,0-6.9,2-8.6,5.1l-17.1,30.6c-1.8,3.2-1.8,7.1,0,10.3l17.1,30.6
		c1.8,3.2,5.1,5.1,8.6,5.1h34.2c3.6,0,6.9-2,8.6-5.1l17.1-30.6c1.8-3.2,1.8-7.1,0-10.3L301.1,279C299.3,275.8,296,273.9,292.4,273.9
		z"/>
	<path class="st2" d="M354,242.2h-22.6c-2.4,0-4.5,1.3-5.7,3.4l-11.3,20c-1.2,2.1-1.2,4.6,0,6.7l11.3,20c1.2,2.1,3.4,3.4,5.7,3.4
		H354c2.4,0,4.5-1.3,5.7-3.4l11.3-20c1.2-2.1,1.2-4.6,0-6.7l-11.3-20C358.5,243.5,356.3,242.2,354,242.2z"/>
	<path class="st2" d="M292.4,182.6H259c-3.5,0-6.7,1.9-8.4,5L233.8,217c-1.7,3.1-1.7,6.8,0,9.9l16.7,29.4c1.7,3.1,5,5,8.4,5h33.5
		c3.5,0,6.7-1.9,8.4-5l16.7-29.4c1.7-3.1,1.7-6.8,0-9.9l-16.7-29.4C299.1,184.5,295.9,182.6,292.4,182.6z"/>
	<g>
		<path d="M124,95.5H98c-1.9,0-3.7,1-4.6,2.7l-13,22.5c-0.9,1.6-0.9,3.7,0,5.3l13,22.5c0.9,1.6,2.7,2.7,4.6,2.7h26
			c1.9,0,3.7-1,4.6-2.7l13-22.5c0.9-1.6,0.9-3.7,0-5.3l-13-22.5C127.6,96.5,125.9,95.5,124,95.5z"/>
		<path d="M58,153.4h-8.4c-0.5,0-0.9,0.2-1.1,0.6l-4.2,7.3c-0.2,0.4-0.2,0.9,0,1.3l4.2,7.3c0.2,0.4,0.7,0.6,1.1,0.6H58
			c0.5,0,0.9-0.2,1.1-0.6l4.2-7.3c0.2-0.4,0.2-0.9,0-1.3l-4.2-7.3C58.9,153.6,58.5,153.4,58,153.4z"/>
		<path d="M356,153.4h-8c-0.6,0-1.1,0.3-1.4,0.8l-4,7c-0.3,0.5-0.3,1.1,0,1.6l4,7c0.3,0.5,0.8,0.8,1.4,0.8h8c0.6,0,1.1-0.3,1.4-0.8
			l4-7c0.3-0.5,0.3-1.1,0-1.6l-4-7C357.1,153.7,356.6,153.4,356,153.4z"/>
		<path d="M410.1,216.7h-8c-0.6,0-1.1,0.3-1.4,0.8l-4,6.9c-0.3,0.5-0.3,1.1,0,1.6l4,6.9c0.3,0.5,0.8,0.8,1.4,0.8h8
			c0.6,0,1.1-0.3,1.4-0.8l4-6.9c0.3-0.5,0.3-1.1,0-1.6l-4-6.9C411.2,217,410.7,216.7,410.1,216.7z"/>
		<path d="M246.3,125.6h-7.9c-0.6,0-1.2,0.3-1.5,0.9l-4,6.8c-0.3,0.5-0.3,1.2,0,1.7l4,6.8c0.3,0.5,0.9,0.9,1.5,0.9h7.9
			c0.6,0,1.2-0.3,1.5-0.9l4-6.8c0.3-0.5,0.3-1.2,0-1.7l-4-6.8C247.4,125.9,246.9,125.6,246.3,125.6z"/>
		<path d="M450.2,317.1h-7.9c-0.6,0-1.2,0.3-1.5,0.9l-4,6.8c-0.3,0.5-0.3,1.2,0,1.7l4,6.8c0.3,0.5,0.9,0.9,1.5,0.9h7.9
			c0.6,0,1.2-0.3,1.5-0.9l4-6.8c0.3-0.5,0.3-1.2,0-1.7l-4-6.8C451.4,317.5,450.8,317.1,450.2,317.1z"/>
		<path d="M218.3,336.5h-13.8c-1.7,0-3.3,0.9-4.1,2.4l-6.9,11.9c-0.8,1.5-0.8,3.3,0,4.7l6.9,11.9c0.8,1.5,2.4,2.4,4.1,2.4h13.8
			c1.7,0,3.3-0.9,4.1-2.4l6.9-11.9c0.8-1.5,0.8-3.3,0-4.7l-6.9-11.9C221.6,337.4,220,336.5,218.3,336.5z"/>
		<path d="M343.4,348.9h-22.9c-2.8,0-5.5,1.5-6.9,4l-11.5,19.9c-1.4,2.5-1.4,5.5,0,8l11.5,19.9c1.4,2.5,4,4,6.9,4h22.9
			c2.8,0,5.5-1.5,6.9-4l11.5-19.9c1.4-2.5,1.4-5.5,0-8l-11.5-19.9C348.9,350.4,346.2,348.9,343.4,348.9z"/>
		<path d="M361.4,291.8l10.8-18.6c1.6-2.8,1.6-6.3,0-9.2l-10.8-18.6c-1.6-2.8-4.7-4.6-7.9-4.6H332c-3.3,0-6.3,1.7-7.9,4.6L313.3,264
			c-1.6,2.8-1.6,6.3,0,9.2l10.8,18.6c1.6,2.8,4.7,4.6,7.9,4.6h21.5C356.8,296.4,359.8,294.6,361.4,291.8z M359.7,248.4l9,15.6
			c1.6,2.8,1.6,6.3,0,9.2l-9,15.6c-1.6,2.8-4.7,4.6-7.9,4.6h-18c-3.3,0-6.3-1.7-7.9-4.6l-9-15.6c-1.6-2.8-1.6-6.3,0-9.2l9-15.6
			c1.6-2.8,4.7-4.6,7.9-4.6h18C355,243.8,358,245.6,359.7,248.4z"/>
		<path d="M208,226.8h-38.3c-3,0-5.9,1.6-7.4,4.3l-19.2,33.2c-1.5,2.6-1.5,5.9,0,8.5l19.2,33.2c1.5,2.6,4.3,4.3,7.4,4.3H208
			c3,0,5.9-1.6,7.4-4.3l19.2-33.2c1.5-2.6,1.5-5.9,0-8.5l-19.2-33.2C213.9,228.5,211,226.8,208,226.8z"/>
		<path d="M125,178.9h-36c-3.8,0-7.2,2-9.1,5.3l-18,31.2c-1.9,3.2-1.9,7.3,0,10.5l18,31.2c1.9,3.2,5.3,5.3,9.1,5.3h36
			c3.8,0,7.2-2,9.1-5.3l18-31.2c1.9-3.2,1.9-7.3,0-10.5l-18-31.2C132.2,180.9,128.7,178.9,125,178.9z M123.2,259.3H90.7
			c-3.8,0-7.2-2-9.1-5.3l-16.2-28.1c-1.9-3.2-1.9-7.3,0-10.5l16.2-28.1c1.9-3.2,5.3-5.3,9.1-5.3h32.5c3.8,0,7.2,2,9.1,5.3l16.2,28.1
			c1.9,3.2,1.9,7.3,0,10.5L132.3,254C130.4,257.3,126.9,259.3,123.2,259.3z"/>
		<path d="M290.5,180.5h-30.3c-5.5,0-10.6,2.9-13.4,7.7l-15.2,26.3c-2.8,4.8-2.8,10.7,0,15.4l15.2,26.3c2.8,4.8,7.9,7.7,13.4,7.7
			h30.3c5.5,0,10.6-2.9,13.4-7.7l15.2-26.3c2.8-4.8,2.8-10.7,0-15.4l-15.2-26.3C301.1,183.4,296,180.5,290.5,180.5z M287.7,257.7
			H263c-5.1,0-9.8-2.7-12.3-7.1l-12.3-21.3c-2.5-4.4-2.5-9.8,0-14.2l12.3-21.3c2.5-4.4,7.2-7.1,12.3-7.1h24.6
			c5.1,0,9.8,2.7,12.3,7.1l12.3,21.3c2.5,4.4,2.5,9.8,0,14.2L300,250.6C297.4,255,292.7,257.7,287.7,257.7z"/>
		<path d="M294.5,273.2h-38.3c-3.1,0-5.9,1.6-7.4,4.3l-19.1,33.1c-1.5,2.7-1.5,5.9,0,8.6l19.1,33.1c1.5,2.7,4.4,4.3,7.4,4.3h38.3
			c3.1,0,5.9-1.6,7.4-4.3l19.1-33.1c1.5-2.7,1.5-5.9,0-8.6l-19.1-33.1C300.4,274.8,297.6,273.2,294.5,273.2z M292.7,353.5H258
			c-3.1,0-5.9-1.6-7.4-4.3l-17.3-30c-1.5-2.7-1.5-5.9,0-8.6l17.3-30c1.5-2.7,4.4-4.3,7.4-4.3h34.7c3.1,0,5.9,1.6,7.4,4.3l17.3,30
			c1.5,2.7,1.5,5.9,0,8.6l-17.3,30C298.6,351.9,295.8,353.5,292.7,353.5z"/>
		<path d="M234.9,167.6L215,133.1c-1.3-2.2-3.7-3.6-6.2-3.6h-7.6h-32.3h-10.3c-4.8,0-9.2,2.6-11.6,6.8l-10.2,18.5
			c-1.9,3.4-5.5,5.6-9.4,5.6H51.3v3.1h76.2c5,0,9.7-2.7,12.1-7.2l10.2-18.5c1.8-3.2,5.2-5.2,8.9-5.2h4.4c-0.1,0.2-0.2,0.3-0.3,0.5
			l-19.9,34.5c-1.3,2.2-1.3,5,0,7.2l19.9,34.5c1.3,2.2,3.7,3.6,6.2,3.6h39.9c2.6,0,4.9-1.4,6.2-3.6l19.9-34.5
			C236.2,172.6,236.2,169.8,234.9,167.6z"/>
		<path d="M236.5,212.1l-2.7-1.5l24.7-44c2.2-3.8,6.2-6.2,10.6-6.2H348v3.1h-78.7c-3.3,0-6.3,1.8-8,4.6L236.5,212.1z"/>
		<path d="M309.2,366.6l-2.7-1.5l19.6-33.9c2.5-4.3,7.1-7,12.1-7h108.7v3.1H338.2c-3.9,0-7.5,2.1-9.4,5.4L309.2,366.6z"/>
		<path d="M320,258.5l-2.7-1.5l16.3-28.5c1.7-2.9,4.8-4.7,8.1-4.7h60.4v3.1h-60.4c-2.2,0-4.3,1.2-5.4,3.2L320,258.5z"/>
	</g>
</g>
<g>
	<path class="st2" d="M-446.4,160.9h-24c-2.5,0-4.8,1.4-6,3.6l-12,21.1c-1.2,2.2-1.2,4.9,0,7.1l12,21.1c1.2,2.2,3.6,3.6,6,3.6h24
		c2.5,0,4.8-1.4,6-3.6l12-21.1c1.2-2.2,1.2-4.9,0-7.1l-12-21.1C-441.6,162.2-444,160.9-446.4,160.9z"/>
	<path class="st2" d="M-328.8,226.6h-23.7c-2.5,0-4.7,1.4-6,3.6l-11.8,21.1c-1.2,2.2-1.2,4.9,0,7.1l11.8,21.1c1.2,2.2,3.5,3.6,6,3.6
		h23.7c2.5,0,4.7-1.4,6-3.6l11.8-21.1c1.2-2.2,1.2-4.9,0-7.1l-11.8-21.1C-324,227.9-326.3,226.6-328.8,226.6z"/>
	<path class="st2" d="M-286.2,203.8h-15.6c-1.6,0-3.1,0.9-3.9,2.3l-7.8,13.8c-0.8,1.4-0.8,3.2,0,4.7l7.8,13.8
		c0.8,1.4,2.3,2.3,3.9,2.3h15.6c1.6,0,3.1-0.9,3.9-2.3l7.8-13.8c0.8-1.4,0.8-3.2,0-4.7l-7.8-13.8
		C-283.1,204.7-284.6,203.8-286.2,203.8z"/>
	<path class="st2" d="M-329.2,163h-23.1c-2.4,0-4.6,1.3-5.8,3.4l-11.6,20.4c-1.2,2.1-1.2,4.7,0,6.8l11.6,20.4
		c1.2,2.1,3.4,3.4,5.8,3.4h23.1c2.4,0,4.6-1.3,5.8-3.4l11.6-20.4c1.2-2.1,1.2-4.7,0-6.8l-11.6-20.4
		C-324.6,164.3-326.8,163-329.2,163z"/>
	<g>
		<path d="M-447.2,102.5h-16.2c-1.9,0-3.7,1-4.6,2.7l-8.1,14c-0.9,1.6-0.9,3.7,0,5.3l8.1,14c0.9,1.6,2.7,2.7,4.6,2.7h16.2
			c1.9,0,3.7-1,4.6-2.7l8.1-14c0.9-1.6,0.9-3.7,0-5.3l-8.1-14C-443.5,103.5-445.3,102.5-447.2,102.5z"/>
		<path d="M-492.4,142.8h-5.4c-0.5,0-0.9,0.2-1.1,0.6l-2.7,4.7c-0.2,0.4-0.2,0.9,0,1.3l2.7,4.7c0.2,0.4,0.7,0.6,1.1,0.6h5.4
			c0.5,0,0.9-0.2,1.1-0.6l2.7-4.7c0.2-0.4,0.2-0.9,0-1.3l-2.7-4.7C-491.5,143-491.9,142.8-492.4,142.8z"/>
		<path d="M-285,142.8h-5c-0.6,0-1.1,0.3-1.4,0.8l-2.5,4.4c-0.3,0.5-0.3,1.1,0,1.6l2.5,4.4c0.3,0.5,0.8,0.8,1.4,0.8h5
			c0.6,0,1.1-0.3,1.4-0.8l2.5-4.4c0.3-0.5,0.3-1.1,0-1.6l-2.5-4.4C-283.9,143.1-284.4,142.8-285,142.8z"/>
		<path d="M-247.3,186.9h-5c-0.6,0-1.1,0.3-1.4,0.8l-2.5,4.3c-0.3,0.5-0.3,1.1,0,1.6l2.5,4.3c0.3,0.5,0.8,0.8,1.4,0.8h5
			c0.6,0,1.1-0.3,1.4-0.8l2.5-4.3c0.3-0.5,0.3-1.1,0-1.6l-2.5-4.3C-246.2,187.2-246.7,186.9-247.3,186.9z"/>
		<path d="M-361.4,123.4h-4.9c-0.6,0-1.2,0.3-1.5,0.9l-2.5,4.2c-0.3,0.5-0.3,1.2,0,1.7l2.5,4.2c0.3,0.5,0.9,0.9,1.5,0.9h4.9
			c0.6,0,1.2-0.3,1.5-0.9l2.5-4.2c0.3-0.5,0.3-1.2,0-1.7l-2.5-4.2C-360.2,123.8-360.8,123.4-361.4,123.4z"/>
		<path d="M-219.4,256.8h-4.9c-0.6,0-1.2,0.3-1.5,0.9l-2.5,4.2c-0.3,0.5-0.3,1.2,0,1.7l2.5,4.2c0.3,0.5,0.9,0.9,1.5,0.9h4.9
			c0.6,0,1.2-0.3,1.5-0.9l2.5-4.2c0.3-0.5,0.3-1.2,0-1.7l-2.5-4.2C-218.2,257.1-218.8,256.8-219.4,256.8z"/>
		<path d="M-381.4,270.3h-7.9c-1.7,0-3.3,0.9-4.1,2.4l-4,6.9c-0.8,1.5-0.8,3.3,0,4.7l4,6.9c0.8,1.5,2.4,2.4,4.1,2.4h7.9
			c1.7,0,3.3-0.9,4.1-2.4l4-6.9c0.8-1.5,0.8-3.3,0-4.7l-4-6.9C-378.1,271.2-379.7,270.3-381.4,270.3z"/>
		<path d="M-293.5,278.9h-16c-2,0-3.8,1.1-4.8,2.8l-8,13.8c-1,1.7-1,3.8,0,5.5l8,13.8c1,1.7,2.8,2.8,4.8,2.8h16c2,0,3.8-1.1,4.8-2.8
			l8-13.8c1-1.7,1-3.8,0-5.5l-8-13.8C-289.7,280-291.5,278.9-293.5,278.9z"/>
		<path d="M-280.9,239.2l7.5-13c1.1-2,1.1-4.4,0-6.4l-7.5-13c-1.1-2-3.2-3.2-5.5-3.2h-15c-2.3,0-4.4,1.2-5.5,3.2l-7.5,13
			c-1.1,2-1.1,4.4,0,6.4l7.5,13c1.1,2,3.2,3.2,5.5,3.2h15C-284.2,242.3-282,241.1-280.9,239.2z M-282.2,209l6.3,10.8
			c1.1,2,1.1,4.4,0,6.4l-6.3,10.8c-1.1,2-3.2,3.2-5.5,3.2h-12.5c-2.3,0-4.4-1.2-5.5-3.2l-6.3-10.8c-1.1-2-1.1-4.4,0-6.4l6.3-10.8
			c1.1-2,3.2-3.2,5.5-3.2h12.5C-285.4,205.8-283.3,207-282.2,209z"/>
		<path d="M-388.5,126.2h-25.2c-2.6,0-4.9,1.4-6.2,3.6l-12.6,21.9c-1.3,2.2-1.3,5,0,7.2l12.6,21.9c1.3,2.2,3.7,3.6,6.2,3.6h25.2
			c2.6,0,4.9-1.4,6.2-3.6l12.6-21.9c1.3-2.2,1.3-5,0-7.2l-12.6-21.9C-383.5,127.5-385.9,126.2-388.5,126.2z"/>
		<path d="M-389.2,193.9h-23.7c-3,0-5.9,1.6-7.4,4.3l-11.8,20.5c-1.5,2.6-1.5,5.9,0,8.5l11.8,20.5c1.5,2.6,4.3,4.3,7.4,4.3h23.7
			c3,0,5.9-1.6,7.4-4.3l11.8-20.5c1.5-2.6,1.5-5.9,0-8.5l-11.8-20.5C-383.4,195.6-386.2,193.9-389.2,193.9z"/>
		<path d="M-445.5,160.6h-25.1c-2.6,0-5,1.4-6.3,3.7l-12.5,21.7c-1.3,2.3-1.3,5,0,7.3L-477,215c1.3,2.3,3.7,3.7,6.3,3.7h25.1
			c2.6,0,5-1.4,6.3-3.7l12.5-21.7c1.3-2.3,1.3-5,0-7.3l-12.5-21.7C-440.5,162-442.9,160.6-445.5,160.6z M-446.8,216.5h-22.6
			c-2.6,0-5-1.4-6.3-3.7l-11.3-19.6c-1.3-2.3-1.3-5,0-7.3l11.3-19.6c1.3-2.3,3.7-3.7,6.3-3.7h22.6c2.6,0,5,1.4,6.3,3.7l11.3,19.6
			c1.3,2.3,1.3,5,0,7.3l-11.3,19.6C-441.8,215.1-444.2,216.5-446.8,216.5z"/>
		<path d="M-330.3,161.7h-21.1c-3.8,0-7.4,2-9.3,5.4l-10.6,18.3c-1.9,3.3-1.9,7.4,0,10.8l10.6,18.3c1.9,3.3,5.5,5.4,9.3,5.4h21.1
			c3.8,0,7.4-2,9.3-5.4l10.6-18.3c1.9-3.3,1.9-7.4,0-10.8L-321,167C-322.9,163.7-326.4,161.7-330.3,161.7z M-332.3,215.4h-17.1
			c-3.5,0-6.8-1.9-8.6-4.9l-8.6-14.9c-1.8-3.1-1.8-6.8,0-9.9l8.6-14.9c1.8-3.1,5-4.9,8.6-4.9h17.1c3.5,0,6.8,1.9,8.6,4.9l8.6,14.9
			c1.8,3.1,1.8,6.8,0,9.9l-8.6,14.9C-325.5,213.6-328.7,215.4-332.3,215.4z"/>
		<path d="M-327.5,226.2h-26.6c-2.1,0-4.1,1.1-5.2,3l-13.3,23.1c-1.1,1.8-1.1,4.1,0,6l13.3,23.1c1.1,1.8,3,3,5.2,3h26.6
			c2.1,0,4.1-1.1,5.2-3l13.3-23.1c1.1-1.8,1.1-4.1,0-6l-13.3-23.1C-323.4,227.3-325.4,226.2-327.5,226.2z M-328.8,282.1h-24.2
			c-2.1,0-4.1-1.1-5.2-3l-12.1-20.9c-1.1-1.8-1.1-4.1,0-6l12.1-20.9c1.1-1.8,3-3,5.2-3h24.2c2.1,0,4.1,1.1,5.2,3l12.1,20.9
			c1.1,1.8,1.1,4.1,0,6l-12.1,20.9C-324.7,281-326.6,282.1-328.8,282.1z"/>
		<path d="M-443.8,149.8h-53v-2.2h53c2.7,0,5.2-1.5,6.6-3.9l7.1-12.9c1.6-2.9,4.7-4.8,8-4.8h29.6v2.2h-29.6c-2.6,0-4.9,1.4-6.2,3.6
			l-7.1,12.9C-437,147.9-440.3,149.8-443.8,149.8z"/>
		<path d="M-367.9,183.7l-1.9-1.1l17.2-30.6c1.5-2.7,4.3-4.3,7.4-4.3h54.8v2.2h-54.8c-2.3,0-4.4,1.2-5.5,3.2L-367.9,183.7z"/>
		<path d="M-317.3,291.3l-1.9-1.1l13.7-23.6c1.7-3,4.9-4.9,8.4-4.9h75.7v2.2h-75.7c-2.7,0-5.2,1.5-6.5,3.8L-317.3,291.3z"/>
		<path d="M-309.8,216l-1.9-1.1l11.3-19.9c1.2-2,3.3-3.3,5.7-3.3h42v2.2h-42c-1.6,0-3,0.8-3.8,2.2L-309.8,216z"/>
	</g>
	<g>
		<g>
			<path d="M-344,337.5h-3.4v-1.6h5.4v14.5h3.4v1.7h-9.2v-1.7h3.8V337.5z"/>
			<path d="M-325.2,345.7c0,0.3,0,0.5,0,0.7c0,0.2,0,0.4,0,0.5h-8.1c0,1.2,0.3,2.1,1,2.7c0.7,0.6,1.6,0.9,2.8,0.9c0.3,0,0.7,0,1,0
				c0.3,0,0.7-0.1,1-0.1c0.3,0,0.6-0.1,0.9-0.2c0.3-0.1,0.6-0.1,0.8-0.2v1.6c-0.5,0.2-1.2,0.3-1.8,0.4c-0.7,0.1-1.4,0.1-2.1,0.1
				c-1,0-1.8-0.1-2.5-0.4c-0.7-0.3-1.3-0.7-1.7-1.2c-0.5-0.5-0.8-1.1-1-1.9c-0.2-0.7-0.3-1.6-0.3-2.5c0-0.8,0.1-1.6,0.3-2.3
				c0.2-0.7,0.6-1.4,1-1.9c0.4-0.5,1-1,1.6-1.3c0.6-0.3,1.4-0.5,2.2-0.5c0.8,0,1.5,0.1,2.1,0.4c0.6,0.3,1.1,0.6,1.6,1.1
				c0.4,0.5,0.7,1,1,1.7C-325.4,344.2-325.2,344.9-325.2,345.7z M-327.3,345.4c0-0.5,0-1-0.1-1.4c-0.1-0.4-0.3-0.8-0.6-1.1
				c-0.3-0.3-0.6-0.5-1-0.7c-0.4-0.2-0.8-0.3-1.3-0.3c-0.4,0-0.8,0.1-1.2,0.3c-0.4,0.2-0.7,0.4-0.9,0.7c-0.3,0.3-0.5,0.7-0.6,1.1
				c-0.2,0.4-0.3,0.9-0.3,1.4H-327.3z"/>
			<path d="M-311.7,352.1h-2.7l-5.4-6.2v6.2h-2v-16.2h2v10l5.2-5.3h2.6l-5.4,5.3L-311.7,352.1z"/>
			<path d="M-300.2,351.7c-0.5,0.2-1.1,0.3-1.6,0.4c-0.5,0.1-1.1,0.1-1.7,0.1c-1.8,0-3.2-0.5-4.2-1.5c-1-1-1.5-2.4-1.5-4.3
				c0-0.9,0.1-1.7,0.4-2.5c0.3-0.7,0.7-1.4,1.2-1.9c0.5-0.5,1.1-0.9,1.8-1.2c0.7-0.3,1.5-0.4,2.4-0.4c0.6,0,1.2,0,1.7,0.1
				c0.5,0.1,1,0.2,1.5,0.4v1.9c-0.5-0.3-1-0.4-1.5-0.6c-0.5-0.1-1-0.2-1.6-0.2c-0.5,0-1,0.1-1.5,0.3c-0.5,0.2-0.9,0.5-1.2,0.8
				c-0.3,0.4-0.6,0.8-0.8,1.3c-0.2,0.5-0.3,1.1-0.3,1.8c0,1.4,0.3,2.4,1,3.1c0.7,0.7,1.6,1,2.8,1c0.5,0,1.1-0.1,1.6-0.2
				c0.5-0.1,1-0.3,1.5-0.6V351.7z"/>
			<path d="M-288.4,340.6v11.3c0,0.8-0.1,1.5-0.3,2.1c-0.2,0.6-0.6,1.1-1,1.6c-0.4,0.4-1,0.8-1.6,1c-0.6,0.2-1.3,0.3-2.1,0.3
				c-0.6,0-1.1-0.1-1.7-0.2c-0.5-0.1-1-0.2-1.5-0.4v-1.9c0.2,0.1,0.5,0.2,0.8,0.3c0.3,0.1,0.6,0.2,0.8,0.3c0.3,0.1,0.6,0.1,0.9,0.2
				c0.3,0,0.6,0.1,0.8,0.1c0.9,0,1.6-0.3,2.1-0.8c0.5-0.6,0.7-1.4,0.7-2.4v-9.7h-5.6v-1.7H-288.4z M-289.6,335.7
				c0.2,0,0.4,0,0.6,0.1c0.2,0.1,0.4,0.2,0.5,0.3c0.1,0.1,0.3,0.3,0.3,0.5c0.1,0.2,0.1,0.4,0.1,0.6c0,0.2,0,0.4-0.1,0.6
				c-0.1,0.2-0.2,0.4-0.3,0.5c-0.1,0.1-0.3,0.3-0.5,0.3c-0.2,0.1-0.4,0.1-0.6,0.1c-0.2,0-0.4,0-0.6-0.1c-0.2-0.1-0.4-0.2-0.5-0.3
				c-0.1-0.1-0.3-0.3-0.3-0.5c-0.1-0.2-0.1-0.4-0.1-0.6c0-0.2,0-0.4,0.1-0.6c0.1-0.2,0.2-0.4,0.3-0.5c0.1-0.1,0.3-0.3,0.5-0.3
				C-290.1,335.8-289.9,335.7-289.6,335.7z"/>
			<path d="M-275.9,352.1l0-1.5c-0.6,0.6-1.3,1.1-1.9,1.3c-0.6,0.3-1.3,0.4-2,0.4c-0.7,0-1.2-0.1-1.7-0.3c-0.5-0.2-0.9-0.4-1.2-0.7
				c-0.3-0.3-0.5-0.6-0.7-1c-0.1-0.4-0.2-0.8-0.2-1.3c0-1.2,0.4-2.1,1.3-2.7c0.9-0.7,2.1-1,3.8-1h2.4v-1c0-0.7-0.2-1.2-0.7-1.6
				c-0.4-0.4-1.1-0.6-2-0.6c-0.7,0-1.3,0.1-1.9,0.2c-0.6,0.1-1.3,0.4-2,0.6v-1.8c0.3-0.1,0.5-0.2,0.8-0.3c0.3-0.1,0.6-0.2,1-0.2
				c0.3-0.1,0.7-0.1,1.1-0.2c0.4,0,0.8-0.1,1.1-0.1c0.7,0,1.3,0.1,1.9,0.2c0.6,0.2,1,0.4,1.4,0.7c0.4,0.3,0.7,0.7,0.9,1.2
				c0.2,0.5,0.3,1,0.3,1.7v7.9H-275.9z M-276.1,346.8h-2.5c-0.5,0-0.9,0-1.3,0.1c-0.4,0.1-0.7,0.2-0.9,0.4c-0.2,0.2-0.4,0.4-0.5,0.7
				c-0.1,0.3-0.2,0.5-0.2,0.9c0,0.2,0,0.4,0.1,0.6c0.1,0.2,0.2,0.4,0.3,0.5c0.2,0.2,0.4,0.3,0.6,0.4c0.2,0.1,0.5,0.1,0.9,0.1
				c0.5,0,1-0.1,1.6-0.4c0.6-0.3,1.2-0.7,1.9-1.3V346.8z"/>
		</g>
		<g>
			<path d="M-442.6,385.8c-1.3,0.5-2.6,0.8-3.9,1.1c-1.3,0.2-2.7,0.4-4.1,0.4c-4.5,0-7.9-1.2-10.3-3.6c-2.4-2.4-3.6-5.9-3.6-10.6
				c0-2.2,0.3-4.2,1-6.1c0.7-1.8,1.7-3.4,2.9-4.7c1.3-1.3,2.8-2.3,4.5-3c1.7-0.7,3.7-1.1,5.8-1.1c1.5,0,2.8,0.1,4.1,0.3
				c1.3,0.2,2.5,0.5,3.6,1v4.7c-1.2-0.6-2.5-1.1-3.7-1.4c-1.3-0.3-2.6-0.4-3.9-0.4c-1.3,0-2.4,0.2-3.5,0.7c-1.1,0.5-2.1,1.2-2.9,2.1
				c-0.8,0.9-1.5,2-2,3.3c-0.5,1.3-0.7,2.8-0.7,4.4c0,3.4,0.8,6,2.5,7.6c1.7,1.7,4,2.5,6.9,2.5c1.3,0,2.6-0.1,3.9-0.4
				c1.2-0.3,2.4-0.7,3.6-1.3V385.8z"/>
			<path d="M-407.8,358.7l-9.6,25.2c-1,2.6-2,4.8-3.1,6.6c-1.1,1.9-2.2,3.4-3.5,4.6c-1.3,1.2-2.6,2.1-4.1,2.6
				c-1.5,0.6-3.2,0.8-5,0.8c-0.5,0-0.9,0-1.3,0c-0.4,0-0.8,0-1.3-0.1V394c0.4,0.1,0.9,0.1,1.3,0.2c0.5,0,1,0.1,1.5,0.1
				c0.9,0,1.7-0.1,2.5-0.4c0.8-0.3,1.5-0.7,2.2-1.3c0.7-0.6,1.4-1.4,2-2.3c0.6-0.9,1.3-2.1,1.9-3.4l-11.3-28.2h5.6l7.1,18.6l1.4,4.4
				l1.6-4.5l6.6-18.5H-407.8z"/>
			<path d="M-376.3,351.7c-2.6-0.5-4.8-0.8-6.6-0.8c-4.4,0-6.6,2.3-6.6,6.9v4.9h12.3v4.1h-12.3v20h-5v-20h-9.1v-4.1h9.1v-4.7
				c0-7.5,3.9-11.3,11.7-11.3c1.9,0,4.1,0.2,6.5,0.7V351.7z"/>
			<path d="M-368.6,358.7h4.5l0.1,5.2c1.7-2,3.3-3.5,4.9-4.3c1.6-0.9,3.3-1.3,4.9-1.3c2.9,0,5.1,0.9,6.6,2.8
				c1.5,1.9,2.2,4.7,2.1,8.4h-4.9c0.1-2.5-0.3-4.3-1.1-5.4c-0.8-1.1-1.9-1.7-3.4-1.7c-0.7,0-1.3,0.1-2,0.4c-0.7,0.2-1.3,0.6-2,1.1
				c-0.7,0.5-1.4,1.2-2.2,2c-0.8,0.8-1.6,1.8-2.5,2.9v18.1h-4.9V358.7z"/>
			<path d="M-313.6,372.5c0,2.2-0.3,4.2-0.9,6s-1.5,3.4-2.7,4.7c-1.2,1.3-2.6,2.3-4.2,3c-1.7,0.7-3.6,1.1-5.7,1.1
				c-2,0-3.8-0.3-5.4-0.9c-1.6-0.6-3-1.5-4.1-2.8c-1.1-1.2-2-2.7-2.6-4.5c-0.6-1.8-0.9-3.9-0.9-6.2c0-2.2,0.3-4.2,0.9-6
				c0.6-1.8,1.5-3.4,2.7-4.7c1.2-1.3,2.6-2.3,4.2-3c1.7-0.7,3.6-1.1,5.7-1.1c2,0,3.8,0.3,5.4,0.9c1.6,0.6,3,1.5,4.1,2.7
				c1.1,1.2,2,2.7,2.6,4.5C-313.9,368.1-313.6,370.2-313.6,372.5z M-318.6,372.7c0-1.7-0.2-3.3-0.6-4.6c-0.4-1.3-0.9-2.4-1.6-3.3
				c-0.7-0.9-1.6-1.5-2.6-2c-1-0.4-2.2-0.7-3.4-0.7c-1.5,0-2.7,0.3-3.7,0.9c-1,0.6-1.9,1.3-2.6,2.3c-0.7,1-1.2,2.1-1.5,3.3
				c-0.3,1.3-0.5,2.6-0.5,4c0,1.7,0.2,3.3,0.6,4.6c0.4,1.3,0.9,2.4,1.6,3.3c0.7,0.9,1.6,1.5,2.6,2c1,0.4,2.2,0.7,3.4,0.7
				c1.5,0,2.7-0.3,3.7-0.9c1-0.6,1.9-1.3,2.6-2.3c0.7-1,1.2-2.1,1.5-3.3C-318.7,375.5-318.6,374.1-318.6,372.7z"/>
			<path d="M-280.4,358.7l-4.1,28.2h-5.9l-4.1-11.8l-0.8-2.9l-0.9,3l-3.9,11.6h-5.8l-4.1-28.2h4.8l2.4,19.1l0.5,4.3l1.2-3.7
				l4.1-12.7h3.5l4.4,12.5l1.3,3.7l0.4-4l2.2-19.3H-280.4z"/>
			<path d="M-256.8,386.8l-0.1-3.8c-1.5,1.5-3.1,2.6-4.7,3.3c-1.6,0.7-3.2,1-5,1c-1.6,0-3-0.2-4.1-0.6c-1.1-0.4-2.1-1-2.8-1.7
				c-0.7-0.7-1.3-1.6-1.6-2.5c-0.3-1-0.5-2-0.5-3.2c0-2.8,1.1-5,3.2-6.6c2.1-1.6,5.2-2.4,9.3-2.4h5.8v-2.5c0-1.7-0.5-3-1.6-4
				c-1.1-1-2.7-1.5-4.9-1.5c-1.6,0-3.2,0.2-4.7,0.5c-1.5,0.4-3.1,0.9-4.8,1.5v-4.4c0.6-0.2,1.3-0.4,2.1-0.7c0.8-0.2,1.6-0.4,2.4-0.6
				c0.8-0.2,1.7-0.3,2.6-0.4c0.9-0.1,1.8-0.2,2.8-0.2c1.7,0,3.2,0.2,4.6,0.6c1.4,0.4,2.5,0.9,3.5,1.7c0.9,0.8,1.7,1.7,2.2,2.9
				c0.5,1.2,0.8,2.5,0.8,4.1v19.4H-256.8z M-257.4,374h-6.2c-1.2,0-2.3,0.1-3.1,0.4c-0.9,0.2-1.6,0.6-2.2,1c-0.6,0.4-1,1-1.2,1.6
				c-0.3,0.6-0.4,1.3-0.4,2.1c0,0.5,0.1,1.1,0.3,1.6c0.2,0.5,0.4,0.9,0.8,1.3c0.4,0.4,0.9,0.7,1.5,0.9c0.6,0.2,1.3,0.3,2.2,0.3
				c1.1,0,2.4-0.3,3.9-1c1.4-0.7,3-1.8,4.6-3.2V374z"/>
		</g>
	</g>
</g>
<g>
	<g>
		<path d="M-1782.4,262.3h-39.1c-1.9,0-3.7,1-4.6,2.7l-19.6,33.9c-0.9,1.6-0.9,3.7,0,5.3l19.6,33.9c0.9,1.6,2.7,2.7,4.6,2.7h39.1
			c1.9,0,3.7-1,4.6-2.7l19.6-33.9c0.9-1.6,0.9-3.7,0-5.3l-19.6-33.9C-1778.8,263.3-1780.5,262.3-1782.4,262.3z"/>
		<path d="M-1876.4,343.9h-12.5c-0.5,0-0.9,0.2-1.1,0.6l-6.2,10.8c-0.2,0.4-0.2,0.9,0,1.3l6.2,10.8c0.2,0.4,0.7,0.6,1.1,0.6h12.5
			c0.5,0,0.9-0.2,1.1-0.6l6.2-10.8c0.2-0.4,0.2-0.9,0-1.3l-6.2-10.8C-1875.5,344.2-1875.9,343.9-1876.4,343.9z"/>
		<path d="M-1456.2,343.9h-12.1c-0.6,0-1.1,0.3-1.4,0.8l-6,10.5c-0.3,0.5-0.3,1.1,0,1.6l6,10.5c0.3,0.5,0.8,0.8,1.4,0.8h12.1
			c0.6,0,1.1-0.3,1.4-0.8l6-10.5c0.3-0.5,0.3-1.1,0-1.6l-6-10.5C-1455.1,344.2-1455.6,343.9-1456.2,343.9z"/>
		<path d="M-1380,433.2h-12.1c-0.6,0-1.1,0.3-1.4,0.8l-6,10.4c-0.3,0.5-0.3,1.1,0,1.6l6,10.4c0.3,0.5,0.8,0.8,1.4,0.8h12.1
			c0.6,0,1.1-0.3,1.4-0.8l6-10.4c0.3-0.5,0.3-1.1,0-1.6l-6-10.4C-1378.8,433.5-1379.4,433.2-1380,433.2z"/>
		<path d="M-1610.9,304.7h-12c-0.6,0-1.2,0.3-1.5,0.9l-6,10.4c-0.3,0.5-0.3,1.2,0,1.7l6,10.4c0.3,0.5,0.9,0.9,1.5,0.9h12
			c0.6,0,1.2-0.3,1.5-0.9l6-10.4c0.3-0.5,0.3-1.2,0-1.7l-6-10.4C-1609.7,305-1610.3,304.7-1610.9,304.7z"/>
		<path d="M-1323.4,574.8h-12c-0.6,0-1.2,0.3-1.5,0.9l-6,10.4c-0.3,0.5-0.3,1.2,0,1.7l6,10.4c0.3,0.5,0.9,0.9,1.5,0.9h12
			c0.6,0,1.2-0.3,1.5-0.9l6-10.4c0.3-0.5,0.3-1.2,0-1.7l-6-10.4C-1322.2,575.1-1322.8,574.8-1323.4,574.8z"/>
		<path d="M-1649.5,602.1h-21.6c-1.7,0-3.3,0.9-4.1,2.4l-10.8,18.7c-0.8,1.5-0.8,3.3,0,4.7l10.8,18.7c0.8,1.5,2.4,2.4,4.1,2.4h21.6
			c1.7,0,3.3-0.9,4.1-2.4l10.8-18.7c0.8-1.5,0.8-3.3,0-4.7l-10.8-18.7C-1646.3,603-1647.8,602.1-1649.5,602.1z"/>
		<path d="M-1474.4,619.5h-32.3c-4,0-7.7,2.1-9.7,5.6l-16.2,28c-2,3.5-2,7.7,0,11.2l16.2,28c2,3.5,5.7,5.6,9.7,5.6h32.3
			c4,0,7.7-2.1,9.7-5.6l16.2-28c2-3.5,2-7.7,0-11.2l-16.2-28C-1466.7,621.7-1470.4,619.5-1474.4,619.5z"/>
		<path d="M-1448.9,539l15.2-26.3c2.3-4,2.3-8.9,0-12.9l-15.2-26.3c-2.3-4-6.6-6.5-11.2-6.5h-30.4c-4.6,0-8.9,2.5-11.2,6.5
			l-15.2,26.3c-2.3,4-2.3,8.9,0,12.9l15.2,26.3c2.3,4,6.6,6.5,11.2,6.5h30.4C-1455.5,545.5-1451.2,543-1448.9,539z M-1451.4,477.9
			l12.7,21.9c2.3,4,2.3,8.9,0,12.9l-12.7,21.9c-2.3,4-6.6,6.5-11.2,6.5h-25.3c-4.6,0-8.9-2.5-11.2-6.5l-12.7-21.9
			c-2.3-4-2.3-8.9,0-12.9l12.7-21.9c2.3-4,6.6-6.5,11.2-6.5h25.3C-1458,471.4-1453.7,473.9-1451.4,477.9z"/>
		<path d="M-1662.4,310.3h-59.6c-2.6,0-4.9,1.4-6.2,3.6l-29.8,51.6c-1.3,2.2-1.3,5,0,7.2l29.8,51.6c1.3,2.2,3.7,3.6,6.2,3.6h59.6
			c2.6,0,4.9-1.4,6.2-3.6l29.8-51.6c1.3-2.2,1.3-5,0-7.2l-29.8-51.6C-1657.5,311.6-1659.9,310.3-1662.4,310.3z"/>
		<path d="M-1663.2,447.5h-58.1c-3,0-5.9,1.6-7.4,4.3l-29,50.3c-1.5,2.6-1.5,5.9,0,8.5l29,50.3c1.5,2.6,4.3,4.3,7.4,4.3h58.1
			c3,0,5.9-1.6,7.4-4.3l29-50.3c1.5-2.6,1.5-5.9,0-8.5l-29-50.3C-1657.3,449.1-1660.2,447.5-1663.2,447.5z"/>
		<path d="M-1782.3,379.9h-50.8c-5.3,0-10.2,2.8-12.8,7.4l-25.4,44c-2.6,4.6-2.6,10.2,0,14.8l25.4,44c2.6,4.6,7.5,7.4,12.8,7.4h50.8
			c5.3,0,10.2-2.8,12.8-7.4l25.4-44c2.6-4.6,2.6-10.2,0-14.8l-25.4-44C-1772.1,382.8-1777,379.9-1782.3,379.9z M-1784.8,493.2h-45.8
			c-5.3,0-10.2-2.8-12.8-7.4l-22.9-39.6c-2.6-4.6-2.6-10.2,0-14.8l22.9-39.6c2.6-4.6,7.5-7.4,12.8-7.4h45.8c5.3,0,10.2,2.8,12.8,7.4
			l22.9,39.6c2.6,4.6,2.6,10.2,0,14.8l-22.9,39.6C-1774.6,490.4-1779.5,493.2-1784.8,493.2z"/>
		<path d="M-1548.9,382.1h-42.8c-7.8,0-15,4.1-18.9,10.9l-21.4,37c-3.9,6.7-3.9,15,0,21.8l21.4,37c3.9,6.7,11.1,10.9,18.9,10.9h42.8
			c7.8,0,15-4.1,18.9-10.9l21.4-37c3.9-6.7,3.9-15,0-21.8l-21.4-37C-1533.9,386.3-1541.1,382.1-1548.9,382.1z M-1552.9,491h-34.7
			c-7.2,0-13.8-3.8-17.3-10l-17.4-30.1c-3.6-6.2-3.6-13.8,0-20l17.4-30.1c3.6-6.2,10.2-10,17.3-10h34.7c7.2,0,13.8,3.8,17.3,10
			l17.4,30.1c3.6,6.2,3.6,13.8,0,20l-17.4,30.1C-1539.1,487.2-1545.7,491-1552.9,491z"/>
		<path d="M-1543.3,512.8h-53.9c-4.3,0-8.3,2.3-10.5,6.1l-27,46.7c-2.2,3.7-2.2,8.4,0,12.1l27,46.7c2.2,3.7,6.2,6.1,10.5,6.1h53.9
			c4.3,0,8.3-2.3,10.5-6.1l27-46.7c2.2-3.7,2.2-8.4,0-12.1l-27-46.7C-1535,515.1-1539,512.8-1543.3,512.8z M-1545.8,626.1h-48.9
			c-4.3,0-8.3-2.3-10.5-6.1l-24.5-42.3c-2.2-3.7-2.2-8.4,0-12.1l24.5-42.3c2.2-3.7,6.2-6.1,10.5-6.1h48.9c4.3,0,8.3,2.3,10.5,6.1
			l24.4,42.3c2.2,3.7,2.2,8.4,0,12.1l-24.4,42.3C-1537.5,623.8-1541.5,626.1-1545.8,626.1z"/>
		<path d="M-1778.7,358.2h-107.4v-4.4h107.4c5.5,0,10.6-3,13.3-7.8l14.3-26.1c3.3-5.9,9.5-9.6,16.3-9.6h60v4.4h-60
			c-5.2,0-10,2.8-12.5,7.4l-14.3,26.1C-1765,354.3-1771.6,358.2-1778.7,358.2z"/>
		<path d="M-1625,426.8l-3.8-2.1l34.9-62c3.1-5.4,8.8-8.8,15-8.8h111v4.4h-111c-4.6,0-8.9,2.5-11.2,6.5L-1625,426.8z"/>
		<path d="M-1522.6,644.6l-3.8-2.2l27.7-47.9c3.5-6.1,10-9.9,17-9.9h153.2v4.4h-153.2c-5.5,0-10.5,2.9-13.2,7.7L-1522.6,644.6z"/>
		<path d="M-1507.4,492.1l-3.8-2.2l23-40.2c2.3-4.1,6.7-6.6,11.4-6.6h85.1v4.4h-85.1c-3.2,0-6.1,1.7-7.7,4.4L-1507.4,492.1z"/>
	</g>
	<g>
		<g>
			<path d="M-1576.6,738.2h-6.9v-3.3h11v29.4h6.9v3.4h-18.7v-3.4h7.7V738.2z"/>
			<path d="M-1538.7,754.8c0,0.6,0,1.1,0,1.4c0,0.4,0,0.8-0.1,1.1h-16.4c0,2.4,0.7,4.2,2,5.5c1.3,1.3,3.3,1.9,5.8,1.9
				c0.7,0,1.4,0,2-0.1c0.7-0.1,1.3-0.1,2-0.2c0.6-0.1,1.2-0.2,1.8-0.3c0.6-0.1,1.1-0.2,1.6-0.4v3.3c-1.1,0.3-2.3,0.6-3.7,0.8
				c-1.4,0.2-2.8,0.3-4.3,0.3c-2,0-3.7-0.3-5.2-0.8c-1.4-0.5-2.6-1.3-3.5-2.4c-0.9-1-1.6-2.3-2-3.8c-0.4-1.5-0.7-3.2-0.7-5.1
				c0-1.6,0.2-3.2,0.7-4.7c0.5-1.5,1.2-2.7,2.1-3.9c0.9-1.1,2-2,3.3-2.6c1.3-0.7,2.8-1,4.5-1c1.6,0,3.1,0.3,4.3,0.8
				c1.3,0.5,2.3,1.2,3.2,2.2c0.9,0.9,1.5,2.1,2,3.4C-1538.9,751.6-1538.7,753.1-1538.7,754.8z M-1542.9,754.2c0-1-0.1-2-0.3-2.8
				c-0.2-0.9-0.6-1.6-1.1-2.2c-0.5-0.6-1.2-1.1-1.9-1.5c-0.8-0.3-1.7-0.5-2.7-0.5c-0.9,0-1.7,0.2-2.4,0.5c-0.7,0.3-1.4,0.8-1.9,1.4
				c-0.5,0.6-1,1.4-1.3,2.2c-0.3,0.9-0.5,1.8-0.6,2.9H-1542.9z"/>
			<path d="M-1511.3,767.7h-5.6l-10.9-12.5v12.5h-4v-32.8h4V755l10.5-10.7h5.3l-10.9,10.8L-1511.3,767.7z"/>
			<path d="M-1488,766.8c-1.1,0.4-2.1,0.7-3.2,0.9c-1.1,0.2-2.2,0.3-3.4,0.3c-3.7,0-6.5-1-8.5-3c-2-2-3-4.9-3-8.8
				c0-1.8,0.3-3.5,0.9-5c0.6-1.5,1.4-2.8,2.4-3.9c1-1.1,2.3-1.9,3.7-2.5c1.4-0.6,3-0.9,4.8-0.9c1.2,0,2.3,0.1,3.4,0.3
				c1.1,0.2,2.1,0.4,3,0.8v3.9c-1-0.5-2-0.9-3.1-1.1c-1-0.2-2.1-0.4-3.2-0.4c-1,0-2,0.2-2.9,0.6s-1.7,1-2.4,1.7
				c-0.7,0.7-1.2,1.6-1.6,2.7c-0.4,1.1-0.6,2.3-0.6,3.6c0,2.8,0.7,4.9,2.1,6.3s3.3,2.1,5.7,2.1c1.1,0,2.2-0.1,3.2-0.4
				c1-0.2,2-0.6,3-1.1V766.8z"/>
			<path d="M-1464.2,744.4v22.9c0,1.6-0.2,3.1-0.7,4.3c-0.5,1.3-1.1,2.3-2,3.2c-0.9,0.9-1.9,1.5-3.2,2c-1.3,0.4-2.7,0.7-4.3,0.7
				c-1.1,0-2.3-0.1-3.4-0.3c-1.1-0.2-2.1-0.5-3-0.9v-3.9c0.5,0.2,1,0.5,1.5,0.7c0.5,0.2,1.1,0.4,1.7,0.5c0.6,0.1,1.2,0.2,1.8,0.3
				c0.6,0.1,1.2,0.1,1.7,0.1c1.8,0,3.2-0.6,4.2-1.7c1-1.1,1.5-2.8,1.5-4.9v-19.7h-11.4v-3.3H-1464.2z M-1466.6,734.6
				c0.4,0,0.9,0.1,1.3,0.2c0.4,0.2,0.7,0.4,1,0.7c0.3,0.3,0.5,0.6,0.7,1c0.2,0.4,0.2,0.8,0.2,1.2c0,0.4-0.1,0.9-0.2,1.2
				c-0.2,0.4-0.4,0.7-0.7,1c-0.3,0.3-0.6,0.5-1,0.7c-0.4,0.2-0.8,0.2-1.3,0.2c-0.4,0-0.9-0.1-1.3-0.2c-0.4-0.2-0.7-0.4-1-0.7
				c-0.3-0.3-0.5-0.6-0.7-1c-0.2-0.4-0.2-0.8-0.2-1.2c0-0.4,0.1-0.8,0.2-1.2c0.2-0.4,0.4-0.7,0.7-1c0.3-0.3,0.6-0.5,1-0.7
				C-1467.5,734.7-1467,734.6-1466.6,734.6z"/>
			<path d="M-1438.8,767.7l-0.1-3.1c-1.3,1.3-2.6,2.2-3.9,2.7c-1.3,0.6-2.7,0.8-4.1,0.8c-1.3,0-2.5-0.2-3.4-0.5
				c-0.9-0.3-1.7-0.8-2.3-1.4c-0.6-0.6-1.1-1.3-1.3-2.1c-0.3-0.8-0.4-1.7-0.4-2.6c0-2.3,0.9-4.2,2.6-5.5c1.7-1.3,4.3-2,7.7-2h4.8v-2
				c0-1.4-0.4-2.5-1.3-3.3c-0.9-0.8-2.2-1.2-4-1.2c-1.3,0-2.6,0.1-3.9,0.4c-1.3,0.3-2.6,0.7-4,1.3v-3.6c0.5-0.2,1.1-0.4,1.7-0.5
				c0.6-0.2,1.3-0.3,2-0.5c0.7-0.1,1.4-0.3,2.2-0.3c0.8-0.1,1.5-0.1,2.3-0.1c1.4,0,2.7,0.2,3.8,0.5c1.1,0.3,2.1,0.8,2.9,1.4
				c0.8,0.6,1.4,1.4,1.8,2.4c0.4,1,0.6,2.1,0.6,3.4v16.1H-1438.8z M-1439.3,757.1h-5.1c-1,0-1.9,0.1-2.6,0.3
				c-0.7,0.2-1.3,0.5-1.8,0.9c-0.5,0.4-0.8,0.8-1,1.3c-0.2,0.5-0.3,1.1-0.3,1.8c0,0.4,0.1,0.9,0.2,1.3c0.1,0.4,0.4,0.8,0.7,1.1
				c0.3,0.3,0.7,0.6,1.2,0.8c0.5,0.2,1.1,0.3,1.8,0.3c0.9,0,2-0.3,3.2-0.8c1.2-0.6,2.5-1.5,3.8-2.7V757.1z"/>
		</g>
		<g>
			<path d="M-1776.3,835.9c-2.6,1-5.2,1.7-7.9,2.2c-2.7,0.5-5.5,0.7-8.4,0.7c-9,0-16-2.4-20.8-7.3c-4.9-4.9-7.3-12-7.3-21.4
				c0-4.5,0.7-8.6,2.1-12.3c1.4-3.7,3.4-6.8,5.9-9.4c2.5-2.6,5.6-4.6,9.1-6.1c3.5-1.4,7.4-2.1,11.6-2.1c3,0,5.7,0.2,8.3,0.6
				c2.6,0.4,5,1.1,7.4,2v9.4c-2.5-1.3-5-2.2-7.5-2.8c-2.6-0.6-5.2-0.9-7.9-0.9c-2.5,0-4.9,0.5-7.2,1.4c-2.3,1-4.2,2.4-5.9,4.2
				s-3,4-4,6.6c-1,2.6-1.5,5.6-1.5,8.9c0,6.9,1.7,12.1,5,15.5c3.4,3.4,8,5.1,13.9,5.1c2.7,0,5.3-0.3,7.8-0.9c2.5-0.6,5-1.5,7.3-2.7
				V835.9z"/>
			<path d="M-1705.9,781l-19.4,51c-2,5.2-4.1,9.7-6.2,13.4c-2.1,3.8-4.5,6.8-7,9.2c-2.5,2.4-5.3,4.2-8.4,5.3
				c-3,1.1-6.4,1.7-10.2,1.7c-1,0-1.9,0-2.7-0.1c-0.8,0-1.7-0.1-2.6-0.2v-9c0.8,0.1,1.7,0.2,2.7,0.3c1,0.1,2,0.1,3.1,0.1
				c1.8,0,3.5-0.3,5.1-0.8c1.6-0.5,3.1-1.4,4.5-2.6c1.4-1.2,2.7-2.7,4-4.6c1.3-1.9,2.5-4.2,3.8-6.9l-22.8-57h11.2l14.4,37.7l2.9,8.9
				l3.3-9.1l13.4-37.5H-1705.9z"/>
			<path d="M-1642.1,767c-5.2-1.1-9.7-1.6-13.4-1.6c-8.9,0-13.4,4.7-13.4,14v10h25v8.2h-25V838h-10.1v-40.5h-18.4v-8.2h18.4v-9.4
				c0-15.2,7.9-22.8,23.7-22.8c3.9,0,8.3,0.5,13.1,1.4V767z"/>
			<path d="M-1626.4,781h9l0.3,10.5c3.4-4.1,6.7-7,10-8.8c3.3-1.8,6.6-2.7,9.9-2.7c5.9,0,10.4,1.9,13.4,5.7c3,3.8,4.5,9.5,4.2,17
				h-10c0.1-5-0.6-8.6-2.2-10.9c-1.6-2.3-3.9-3.4-6.9-3.4c-1.3,0-2.7,0.2-4,0.7c-1.3,0.5-2.7,1.2-4.1,2.3c-1.4,1-2.9,2.4-4.5,4
				c-1.6,1.6-3.3,3.6-5.1,5.9V838h-10V781z"/>
			<path d="M-1515.1,809.1c0,4.4-0.6,8.5-1.9,12.2c-1.3,3.7-3,6.9-5.4,9.5c-2.3,2.6-5.2,4.7-8.6,6.1c-3.4,1.5-7.2,2.2-11.5,2.2
				c-4.1,0-7.8-0.6-11-1.9c-3.2-1.3-6-3.1-8.2-5.6c-2.3-2.5-4-5.5-5.2-9.1c-1.2-3.6-1.8-7.8-1.8-12.6c0-4.4,0.6-8.5,1.9-12.1
				c1.2-3.7,3-6.8,5.4-9.4c2.3-2.6,5.2-4.7,8.6-6.1c3.4-1.5,7.2-2.2,11.5-2.2c4.1,0,7.8,0.6,11,1.9c3.2,1.3,6,3.1,8.2,5.6
				c2.3,2.4,4,5.5,5.2,9.1C-1515.7,800.2-1515.1,804.4-1515.1,809.1z M-1525.2,809.5c0-3.5-0.4-6.6-1.2-9.2
				c-0.8-2.6-1.9-4.8-3.3-6.6c-1.4-1.8-3.2-3.1-5.3-4c-2.1-0.9-4.4-1.3-6.9-1.3c-3,0-5.5,0.6-7.6,1.7c-2.1,1.2-3.8,2.7-5.2,4.6
				c-1.3,1.9-2.3,4.2-3,6.7c-0.6,2.6-0.9,5.2-0.9,8c0,3.5,0.4,6.6,1.2,9.3c0.8,2.7,1.9,4.9,3.3,6.6c1.4,1.8,3.2,3.1,5.2,4
				c2,0.9,4.4,1.3,6.9,1.3c3,0,5.5-0.6,7.6-1.7s3.8-2.7,5.2-4.6c1.3-1.9,2.3-4.2,3-6.7C-1525.5,815-1525.2,812.3-1525.2,809.5z"/>
			<path d="M-1447.9,781l-8.3,57h-12l-8.2-23.9l-1.6-5.8l-1.9,6.1l-7.9,23.5h-11.6l-8.2-57h9.7l4.8,38.7l1,8.6l2.4-7.6l8.3-25.6h7.1
				l8.9,25.3l2.6,7.6l0.9-8l4.4-39H-1447.9z"/>
			<path d="M-1400.1,838l-0.2-7.7c-3.1,3.1-6.3,5.3-9.5,6.6c-3.2,1.4-6.6,2-10.1,2c-3.3,0-6-0.4-8.4-1.2c-2.3-0.8-4.2-2-5.7-3.4
				c-1.5-1.5-2.6-3.2-3.3-5.1c-0.7-2-1.1-4.1-1.1-6.4c0-5.7,2.1-10.2,6.4-13.4c4.3-3.2,10.6-4.9,18.9-4.9h11.8v-5
				c0-3.4-1.1-6.1-3.2-8.1c-2.2-2-5.5-3-9.9-3c-3.2,0-6.4,0.4-9.5,1.1c-3.1,0.7-6.4,1.7-9.7,3.1v-8.9c1.2-0.5,2.6-0.9,4.2-1.3
				c1.5-0.4,3.2-0.8,4.9-1.2c1.7-0.3,3.5-0.6,5.3-0.8c1.9-0.2,3.7-0.3,5.6-0.3c3.4,0,6.6,0.4,9.3,1.1c2.8,0.8,5.1,1.9,7,3.5
				c1.9,1.6,3.4,3.5,4.4,5.9c1,2.3,1.5,5.1,1.5,8.3V838H-1400.1z M-1401.2,812.1h-12.6c-2.5,0-4.6,0.2-6.4,0.7
				c-1.8,0.5-3.2,1.2-4.4,2.1c-1.1,0.9-2,2-2.5,3.3c-0.5,1.3-0.8,2.7-0.8,4.3c0,1.1,0.2,2.2,0.5,3.2c0.3,1,0.9,1.9,1.6,2.7
				c0.8,0.8,1.7,1.4,3,1.8c1.2,0.5,2.7,0.7,4.4,0.7c2.3,0,4.9-0.7,7.8-2.1c2.9-1.4,6-3.6,9.3-6.6V812.1z"/>
		</g>
	</g>
</g>
</svg>
