<?xml version="1.0" encoding="utf-8"?>
<!-- Generator: Adobe Illustrator 26.3.1, SVG Export Plug-In . SVG Version: 6.00 Build 0)  -->
<svg version="1.1" id="Warstwa_1" xmlns="http://www.w3.org/2000/svg" x="0px" y="0px"
     viewBox="0 0 500 500" style="enable-background:new 0 0 500 500;" xml:space="preserve">
<style type="text/css">
	.st0{fill:#00C3FF;}
	.st1{fill:#CC129C;}
	.st2{fill:#3FA9F5;}
	.st3{fill:#FFFFFF;}
	.st4{fill:#3E9E16;}
	.st5{fill:#4D4D4D;}
</style>
<rect x="-203" y="1280" class="st0" width="1265" height="484"/>
<rect x="-1630" class="st1" width="1265" height="1123"/>
<g>
	<path class="st2" d="M2206.2,179.9h-35.7c-3.7,0-7.1,2-9,5.2l-17.8,30.9c-1.9,3.2-1.9,7.2,0,10.4l17.8,30.9c1.9,3.2,5.3,5.2,9,5.2
		h35.7c3.7,0,7.1-2,9-5.2l17.8-30.9c1.9-3.2,1.9-7.2,0-10.4l-17.8-30.9C2213.4,181.8,2209.9,179.9,2206.2,179.9z"/>
	<path class="st2" d="M2207.4,276.4h-36.3c-3.8,0-7.3,2-9.2,5.3l-18.2,31.6c-1.9,3.3-1.9,7.3,0,10.6l18.2,31.6
		c1.9,3.3,5.4,5.3,9.2,5.3h36.3c3.8,0,7.3-2,9.2-5.3l18.2-31.6c1.9-3.3,1.9-7.3,0-10.6l-18.2-31.6
		C2214.6,278.4,2211.1,276.4,2207.4,276.4z"/>
	<path class="st2" d="M2271.6,241.9H2248c-2.5,0-4.7,1.3-6,3.5l-11.8,20.6c-1.2,2.1-1.2,4.8,0,6.9l11.8,20.6c1.2,2.1,3.5,3.5,6,3.5
		h23.6c2.5,0,4.7-1.3,6-3.5l11.8-20.6c1.2-2.1,1.2-4.8,0-6.9l-11.8-20.6C2276.3,243.2,2274,241.9,2271.6,241.9z"/>
	<path class="st2" d="M2027.5,177.9h-35.9c-3.7,0-7.2,2-9.1,5.2l-18,31.1c-1.9,3.2-1.9,7.2,0,10.5l18,31.1c1.9,3.2,5.3,5.2,9.1,5.2
		h35.9c3.7,0,7.2-2,9.1-5.2l18-31.1c1.9-3.2,1.9-7.2,0-10.5l-18-31.1C2034.7,179.9,2031.2,177.9,2027.5,177.9z"/>
	<text transform="matrix(1 0 0 1 1708.542 268.6094)" style="font-family:'Consolas'; font-size:72.7571px;">lekcja</text>
	<text transform="matrix(1 0 0 1 1339.1426 376.2129)" style="font-family:'Consolas'; font-size:178px;">cyfrowa</text>
	<path d="M2027.9,86h-28c-1.9,0-3.7,1-4.6,2.7l-14,24.2c-0.9,1.6-0.9,3.7,0,5.3l14,24.2c0.9,1.6,2.7,2.7,4.6,2.7h28
		c1.9,0,3.7-1,4.6-2.7l14-24.2c0.9-1.6,0.9-3.7,0-5.3l-14-24.2C2031.5,87,2029.8,86,2027.9,86z"/>
	<path d="M1957.7,147.5h-9c-0.5,0-0.9,0.2-1.1,0.6l-4.5,7.8c-0.2,0.4-0.2,0.9,0,1.3l4.5,7.8c0.2,0.4,0.7,0.6,1.1,0.6h9
		c0.5,0,0.9-0.2,1.1-0.6l4.5-7.8c0.2-0.4,0.2-0.9,0-1.3l-4.5-7.8C1958.5,147.7,1958.1,147.5,1957.7,147.5z"/>
	<path d="M2274.2,147.5h-8.7c-0.6,0-1.1,0.3-1.4,0.8l-4.3,7.5c-0.3,0.5-0.3,1.1,0,1.6l4.3,7.5c0.3,0.5,0.8,0.8,1.4,0.8h8.7
		c0.6,0,1.1-0.3,1.4-0.8l4.3-7.5c0.3-0.5,0.3-1.1,0-1.6l-4.3-7.5C2275.3,147.8,2274.8,147.5,2274.2,147.5z"/>
	<path d="M2331.6,214.8h-8.6c-0.6,0-1.1,0.3-1.4,0.8l-4.3,7.5c-0.3,0.5-0.3,1.1,0,1.6l4.3,7.5c0.3,0.5,0.8,0.8,1.4,0.8h8.6
		c0.6,0,1.1-0.3,1.4-0.8l4.3-7.5c0.3-0.5,0.3-1.1,0-1.6l-4.3-7.5C2332.8,215.1,2332.2,214.8,2331.6,214.8z"/>
	<path d="M2157.6,117.9h-8.5c-0.6,0-1.2,0.3-1.5,0.9l-4.3,7.4c-0.3,0.5-0.3,1.2,0,1.7l4.3,7.4c0.3,0.5,0.9,0.9,1.5,0.9h8.5
		c0.6,0,1.2-0.3,1.5-0.9l4.3-7.4c0.3-0.5,0.3-1.2,0-1.7l-4.3-7.4C2158.8,118.3,2158.2,117.9,2157.6,117.9z"/>
	<path d="M2374.3,321.4h-8.5c-0.6,0-1.2,0.3-1.5,0.9l-4.3,7.4c-0.3,0.5-0.3,1.2,0,1.7l4.3,7.4c0.3,0.5,0.9,0.9,1.5,0.9h8.5
		c0.6,0,1.2-0.3,1.5-0.9l4.3-7.4c0.3-0.5,0.3-1.2,0-1.7l-4.3-7.4C2375.4,321.8,2374.9,321.4,2374.3,321.4z"/>
	<path d="M2128.1,342h-14.9c-1.7,0-3.3,0.9-4.1,2.4l-7.5,12.9c-0.8,1.5-0.8,3.3,0,4.7l7.5,12.9c0.8,1.5,2.4,2.4,4.1,2.4h14.9
		c1.7,0,3.3-0.9,4.1-2.4l7.5-12.9c0.8-1.5,0.8-3.3,0-4.7l-7.5-12.9C2131.3,342.9,2129.8,342,2128.1,342z"/>
	<path d="M2260.7,355.2h-24.3c-3,0-5.8,1.6-7.3,4.2l-12.2,21.1c-1.5,2.6-1.5,5.8,0,8.5l12.2,21.1c1.5,2.6,4.3,4.2,7.3,4.2h24.3
		c3,0,5.8-1.6,7.3-4.2l12.2-21.1c1.5-2.6,1.5-5.8,0-8.5l-12.2-21.1C2266.5,356.8,2263.8,355.2,2260.7,355.2z"/>
	<path d="M2279.9,294.5l11.4-19.8c1.7-3,1.7-6.7,0-9.7l-11.4-19.8c-1.7-3-5-4.9-8.4-4.9h-22.9c-3.5,0-6.7,1.9-8.4,4.9l-11.4,19.8
		c-1.7,3-1.7,6.7,0,9.7l11.4,19.8c1.7,3,5,4.9,8.4,4.9h22.9C2275,299.4,2278.2,297.5,2279.9,294.5z M2278,248.4l9.5,16.5
		c1.7,3,1.7,6.7,0,9.7l-9.5,16.5c-1.7,3-5,4.9-8.4,4.9h-19.1c-3.5,0-6.7-1.9-8.4-4.9l-9.5-16.5c-1.7-3-1.7-6.7,0-9.7l9.5-16.5
		c1.7-3,5-4.9,8.4-4.9h19.1C2273.1,243.6,2276.3,245.4,2278,248.4z"/>
	<path d="M2118,122.1h-42.9c-2.6,0-4.9,1.4-6.2,3.6l-21.4,37.1c-1.3,2.2-1.3,5,0,7.2l21.4,37.1c1.3,2.2,3.7,3.6,6.2,3.6h42.9
		c2.6,0,4.9-1.4,6.2-3.6l21.4-37.1c1.3-2.2,1.3-5,0-7.2l-21.4-37.1C2122.9,123.5,2120.6,122.1,2118,122.1z"/>
	<path d="M2117.2,225.5h-41.3c-3,0-5.9,1.6-7.4,4.3l-20.7,35.8c-1.5,2.6-1.5,5.9,0,8.5l20.7,35.8c1.5,2.6,4.3,4.3,7.4,4.3h41.3
		c3,0,5.9-1.6,7.4-4.3l20.7-35.8c1.5-2.6,1.5-5.9,0-8.5l-20.7-35.8C2123.1,227.1,2120.3,225.5,2117.2,225.5z"/>
	<path d="M2028.7,174.6h-38.3c-4,0-7.7,2.1-9.7,5.6l-19.1,33.2c-2,3.5-2,7.7,0,11.2l19.1,33.2c2,3.5,5.7,5.6,9.7,5.6h38.3
		c4,0,7.7-2.1,9.7-5.6l19.1-33.2c2-3.5,2-7.7,0-11.2l-19.1-33.2C2036.4,176.8,2032.7,174.6,2028.7,174.6z M2026.8,260h-34.5
		c-4,0-7.7-2.1-9.7-5.6l-17.2-29.9c-2-3.5-2-7.7,0-11.2l17.2-29.9c2-3.5,5.7-5.6,9.7-5.6h34.5c4,0,7.7,2.1,9.7,5.6l17.2,29.9
		c2,3.5,2,7.7,0,11.2l-17.2,29.9C2034.5,257.8,2030.8,260,2026.8,260z"/>
	<path d="M2204.6,176.3h-32.2c-5.9,0-11.3,3.1-14.2,8.2l-16.1,27.9c-2.9,5.1-2.9,11.3,0,16.4l16.1,27.9c2.9,5.1,8.3,8.2,14.2,8.2
		h32.2c5.9,0,11.3-3.1,14.2-8.2l16.1-27.9c2.9-5.1,2.9-11.3,0-16.4l-16.1-27.9C2215.9,179.4,2210.5,176.3,2204.6,176.3z
		 M2201.6,258.3h-26.2c-5.4,0-10.4-2.9-13.1-7.5l-13.1-22.7c-2.7-4.7-2.7-10.4,0-15.1l13.1-22.7c2.7-4.7,7.7-7.5,13.1-7.5h26.2
		c5.4,0,10.4,2.9,13.1,7.5l13.1,22.7c2.7,4.7,2.7,10.4,0,15.1l-13.1,22.7C2211.9,255.4,2207,258.3,2201.6,258.3z"/>
	<path d="M2208.8,274.7h-40.6c-3.3,0-6.3,1.7-7.9,4.6l-20.3,35.2c-1.6,2.8-1.6,6.3,0,9.1l20.3,35.2c1.6,2.8,4.6,4.6,7.9,4.6h40.6
		c3.3,0,6.3-1.7,7.9-4.6l20.3-35.2c1.6-2.8,1.6-6.3,0-9.1l-20.3-35.2C2215.1,276.5,2212.1,274.7,2208.8,274.7z M2206.9,360.1h-36.8
		c-3.3,0-6.3-1.7-7.9-4.6l-18.4-31.9c-1.6-2.8-1.6-6.3,0-9.1l18.4-31.9c1.6-2.8,4.6-4.6,7.9-4.6h36.8c3.3,0,6.3,1.7,7.9,4.6
		l18.4,31.9c1.6,2.8,1.6,6.3,0,9.1l-18.4,31.9C2213.2,358.3,2210.2,360.1,2206.9,360.1z"/>
	<path d="M2031.4,158.2h-80.9v-3.3h80.9c4.2,0,8-2.3,10-5.9l10.8-19.7c2.5-4.5,7.2-7.3,12.3-7.3h45.2v3.3h-45.2
		c-3.9,0-7.5,2.1-9.4,5.6l-10.8,19.7C2041.7,155.3,2036.8,158.2,2031.4,158.2z"/>
	<path d="M2147.3,209.9l-2.9-1.6l26.3-46.8c2.3-4.1,6.6-6.6,11.3-6.6h83.6v3.3H2182c-3.5,0-6.7,1.9-8.4,4.9L2147.3,209.9z"/>
	<path d="M2224.4,374l-2.8-1.6l20.8-36.1c2.6-4.6,7.5-7.4,12.8-7.4h115.5v3.3h-115.5c-4.1,0-7.9,2.2-10,5.8L2224.4,374z"/>
	<path d="M2235.9,259.1l-2.8-1.6l17.3-30.3c1.8-3.1,5.1-5,8.6-5h64.1v3.3H2259c-2.4,0-4.6,1.3-5.8,3.4L2235.9,259.1z"/>
</g>
<g>
	<text transform="matrix(1 0 0 1 285.542 1540.6094)" class="st3" style="font-family:'Consolas'; font-size:72.7571px;">lekcja</text>
	<text transform="matrix(1 0 0 1 -83.8574 1648.2129)" class="st3" style="font-family:'Consolas'; font-size:178px;">cyfrowa</text>
	<path class="st3" d="M604.9,1358h-28c-1.9,0-3.7,1-4.6,2.7l-14,24.2c-0.9,1.6-0.9,3.7,0,5.3l14,24.2c0.9,1.6,2.7,2.7,4.6,2.7h28
		c1.9,0,3.7-1,4.6-2.7l14-24.2c0.9-1.6,0.9-3.7,0-5.3l-14-24.2C608.5,1359,606.8,1358,604.9,1358z"/>
	<path class="st3" d="M534.7,1419.5h-9c-0.5,0-0.9,0.2-1.1,0.6l-4.5,7.8c-0.2,0.4-0.2,0.9,0,1.3l4.5,7.8c0.2,0.4,0.7,0.6,1.1,0.6h9
		c0.5,0,0.9-0.2,1.1-0.6l4.5-7.8c0.2-0.4,0.2-0.9,0-1.3l-4.5-7.8C535.5,1419.7,535.1,1419.5,534.7,1419.5z"/>
	<path class="st3" d="M851.2,1419.5h-8.7c-0.6,0-1.1,0.3-1.4,0.8l-4.3,7.5c-0.3,0.5-0.3,1.1,0,1.6l4.3,7.5c0.3,0.5,0.8,0.8,1.4,0.8
		h8.7c0.6,0,1.1-0.3,1.4-0.8l4.3-7.5c0.3-0.5,0.3-1.1,0-1.6l-4.3-7.5C852.3,1419.8,851.8,1419.5,851.2,1419.5z"/>
	<path class="st3" d="M908.6,1486.8H900c-0.6,0-1.1,0.3-1.4,0.8l-4.3,7.5c-0.3,0.5-0.3,1.1,0,1.6l4.3,7.5c0.3,0.5,0.8,0.8,1.4,0.8
		h8.6c0.6,0,1.1-0.3,1.4-0.8l4.3-7.5c0.3-0.5,0.3-1.1,0-1.6l-4.3-7.5C909.8,1487.1,909.2,1486.8,908.6,1486.8z"/>
	<path class="st3" d="M734.6,1389.9h-8.5c-0.6,0-1.2,0.3-1.5,0.9l-4.3,7.4c-0.3,0.5-0.3,1.2,0,1.7l4.3,7.4c0.3,0.5,0.9,0.9,1.5,0.9
		h8.5c0.6,0,1.2-0.3,1.5-0.9l4.3-7.4c0.3-0.5,0.3-1.2,0-1.7l-4.3-7.4C735.8,1390.3,735.2,1389.9,734.6,1389.9z"/>
	<path class="st3" d="M951.3,1593.4h-8.5c-0.6,0-1.2,0.3-1.5,0.9l-4.3,7.4c-0.3,0.5-0.3,1.2,0,1.7l4.3,7.4c0.3,0.5,0.9,0.9,1.5,0.9
		h8.5c0.6,0,1.2-0.3,1.5-0.9l4.3-7.4c0.3-0.5,0.3-1.2,0-1.7l-4.3-7.4C952.4,1593.8,951.9,1593.4,951.3,1593.4z"/>
	<path class="st3" d="M705.1,1614h-14.9c-1.7,0-3.3,0.9-4.1,2.4l-7.5,12.9c-0.8,1.5-0.8,3.3,0,4.7l7.5,12.9c0.8,1.5,2.4,2.4,4.1,2.4
		h14.9c1.7,0,3.3-0.9,4.1-2.4l7.5-12.9c0.8-1.5,0.8-3.3,0-4.7l-7.5-12.9C708.3,1614.9,706.8,1614,705.1,1614z"/>
	<path class="st3" d="M837.7,1627.2h-24.3c-3,0-5.8,1.6-7.3,4.2l-12.2,21.1c-1.5,2.6-1.5,5.8,0,8.5l12.2,21.1
		c1.5,2.6,4.3,4.2,7.3,4.2h24.3c3,0,5.8-1.6,7.3-4.2l12.2-21.1c1.5-2.6,1.5-5.8,0-8.5l-12.2-21.1
		C843.5,1628.8,840.8,1627.2,837.7,1627.2z"/>
	<path class="st3" d="M856.9,1566.5l11.4-19.8c1.7-3,1.7-6.7,0-9.7l-11.4-19.8c-1.7-3-5-4.9-8.4-4.9h-22.9c-3.5,0-6.7,1.9-8.4,4.9
		l-11.4,19.8c-1.7,3-1.7,6.7,0,9.7l11.4,19.8c1.7,3,5,4.9,8.4,4.9h22.9C852,1571.4,855.2,1569.5,856.9,1566.5z M855,1520.4l9.5,16.5
		c1.7,3,1.7,6.7,0,9.7l-9.5,16.5c-1.7,3-5,4.9-8.4,4.9h-19.1c-3.5,0-6.7-1.9-8.4-4.9l-9.5-16.5c-1.7-3-1.7-6.7,0-9.7l9.5-16.5
		c1.7-3,5-4.9,8.4-4.9h19.1C850.1,1515.6,853.3,1517.4,855,1520.4z"/>
	<path class="st3" d="M695,1394.1h-42.9c-2.6,0-4.9,1.4-6.2,3.6l-21.4,37.1c-1.3,2.2-1.3,5,0,7.2l21.4,37.1c1.3,2.2,3.7,3.6,6.2,3.6
		H695c2.6,0,4.9-1.4,6.2-3.6l21.4-37.1c1.3-2.2,1.3-5,0-7.2l-21.4-37.1C699.9,1395.5,697.6,1394.1,695,1394.1z"/>
	<path class="st3" d="M694.2,1497.5h-41.3c-3,0-5.9,1.6-7.4,4.3l-20.7,35.8c-1.5,2.6-1.5,5.9,0,8.5l20.7,35.8
		c1.5,2.6,4.3,4.3,7.4,4.3h41.3c3,0,5.9-1.6,7.4-4.3l20.7-35.8c1.5-2.6,1.5-5.9,0-8.5l-20.7-35.8
		C700.1,1499.1,697.3,1497.5,694.2,1497.5z"/>
	<path class="st3" d="M605.7,1446.6h-38.3c-4,0-7.7,2.1-9.7,5.6l-19.1,33.2c-2,3.5-2,7.7,0,11.2l19.1,33.2c2,3.5,5.7,5.6,9.7,5.6
		h38.3c4,0,7.7-2.1,9.7-5.6l19.1-33.2c2-3.5,2-7.7,0-11.2l-19.1-33.2C613.4,1448.8,609.7,1446.6,605.7,1446.6z M603.8,1532h-34.5
		c-4,0-7.7-2.1-9.7-5.6l-17.2-29.9c-2-3.5-2-7.7,0-11.2l17.2-29.9c2-3.5,5.7-5.6,9.7-5.6h34.5c4,0,7.7,2.1,9.7,5.6l17.2,29.9
		c2,3.5,2,7.7,0,11.2l-17.2,29.9C611.5,1529.8,607.8,1532,603.8,1532z"/>
	<path class="st3" d="M781.6,1448.3h-32.2c-5.9,0-11.3,3.1-14.2,8.2l-16.1,27.9c-2.9,5.1-2.9,11.3,0,16.4l16.1,27.9
		c2.9,5.1,8.3,8.2,14.2,8.2h32.2c5.9,0,11.3-3.1,14.2-8.2l16.1-27.9c2.9-5.1,2.9-11.3,0-16.4l-16.1-27.9
		C792.9,1451.4,787.5,1448.3,781.6,1448.3z M778.6,1530.3h-26.2c-5.4,0-10.4-2.9-13.1-7.5l-13.1-22.7c-2.7-4.7-2.7-10.4,0-15.1
		l13.1-22.7c2.7-4.7,7.7-7.5,13.1-7.5h26.2c5.4,0,10.4,2.9,13.1,7.5l13.1,22.7c2.7,4.7,2.7,10.4,0,15.1l-13.1,22.7
		C788.9,1527.4,784,1530.3,778.6,1530.3z"/>
	<path class="st3" d="M785.8,1546.7h-40.6c-3.3,0-6.3,1.7-7.9,4.6l-20.3,35.2c-1.6,2.8-1.6,6.3,0,9.1l20.3,35.2
		c1.6,2.8,4.6,4.6,7.9,4.6h40.6c3.3,0,6.3-1.7,7.9-4.6l20.3-35.2c1.6-2.8,1.6-6.3,0-9.1l-20.3-35.2
		C792.1,1548.5,789.1,1546.7,785.8,1546.7z M783.9,1632.1h-36.8c-3.3,0-6.3-1.7-7.9-4.6l-18.4-31.9c-1.6-2.8-1.6-6.3,0-9.1
		l18.4-31.9c1.6-2.8,4.6-4.6,7.9-4.6h36.8c3.3,0,6.3,1.7,7.9,4.6l18.4,31.9c1.6,2.8,1.6,6.3,0,9.1l-18.4,31.9
		C790.2,1630.3,787.2,1632.1,783.9,1632.1z"/>
	<path class="st3" d="M608.4,1430.2h-80.9v-3.3h80.9c4.2,0,8-2.3,10-5.9l10.8-19.7c2.5-4.5,7.2-7.3,12.3-7.3h45.2v3.3h-45.2
		c-3.9,0-7.5,2.1-9.4,5.6l-10.8,19.7C618.7,1427.3,613.8,1430.2,608.4,1430.2z"/>
	<path class="st3" d="M724.3,1481.9l-2.9-1.6l26.3-46.8c2.3-4.1,6.6-6.6,11.3-6.6h83.6v3.3H759c-3.5,0-6.7,1.9-8.4,4.9L724.3,1481.9
		z"/>
	<path class="st3" d="M801.4,1646l-2.8-1.6l20.8-36.1c2.6-4.6,7.5-7.4,12.8-7.4h115.5v3.3H832.2c-4.1,0-7.9,2.2-10,5.8L801.4,1646z"
		/>
	<path class="st3" d="M812.9,1531.1l-2.8-1.6l17.3-30.3c1.8-3.1,5.1-5,8.6-5h64.1v3.3H836c-2.4,0-4.6,1.3-5.8,3.4L812.9,1531.1z"/>
</g>
<rect x="1199" y="1926" class="st4" width="1265" height="484"/>
<g>
	<text transform="matrix(1 0 0 1 1687.542 2186.6094)" class="st3" style="font-family:'Consolas'; font-size:72.7571px;">lekcja</text>
	<text transform="matrix(1 0 0 1 1318.1426 2294.2129)" class="st3" style="font-family:'Consolas'; font-size:178px;">cyfrowa</text>
	<path class="st3" d="M2006.9,2004h-28c-1.9,0-3.7,1-4.6,2.7l-14,24.2c-0.9,1.6-0.9,3.7,0,5.3l14,24.2c0.9,1.6,2.7,2.7,4.6,2.7h28
		c1.9,0,3.7-1,4.6-2.7l14-24.2c0.9-1.6,0.9-3.7,0-5.3l-14-24.2C2010.5,2005,2008.8,2004,2006.9,2004z"/>
	<path class="st3" d="M1936.7,2065.5h-9c-0.5,0-0.9,0.2-1.1,0.6l-4.5,7.8c-0.2,0.4-0.2,0.9,0,1.3l4.5,7.8c0.2,0.4,0.7,0.6,1.1,0.6h9
		c0.5,0,0.9-0.2,1.1-0.6l4.5-7.8c0.2-0.4,0.2-0.9,0-1.3l-4.5-7.8C1937.5,2065.7,1937.1,2065.5,1936.7,2065.5z"/>
	<path class="st3" d="M2253.2,2065.5h-8.7c-0.6,0-1.1,0.3-1.4,0.8l-4.3,7.5c-0.3,0.5-0.3,1.1,0,1.6l4.3,7.5c0.3,0.5,0.8,0.8,1.4,0.8
		h8.7c0.6,0,1.1-0.3,1.4-0.8l4.3-7.5c0.3-0.5,0.3-1.1,0-1.6l-4.3-7.5C2254.3,2065.8,2253.8,2065.5,2253.2,2065.5z"/>
	<path class="st3" d="M2310.6,2132.8h-8.6c-0.6,0-1.1,0.3-1.4,0.8l-4.3,7.5c-0.3,0.5-0.3,1.1,0,1.6l4.3,7.5c0.3,0.5,0.8,0.8,1.4,0.8
		h8.6c0.6,0,1.1-0.3,1.4-0.8l4.3-7.5c0.3-0.5,0.3-1.1,0-1.6l-4.3-7.5C2311.8,2133.1,2311.2,2132.8,2310.6,2132.8z"/>
	<path class="st3" d="M2136.6,2035.9h-8.5c-0.6,0-1.2,0.3-1.5,0.9l-4.3,7.4c-0.3,0.5-0.3,1.2,0,1.7l4.3,7.4c0.3,0.5,0.9,0.9,1.5,0.9
		h8.5c0.6,0,1.2-0.3,1.5-0.9l4.3-7.4c0.3-0.5,0.3-1.2,0-1.7l-4.3-7.4C2137.8,2036.3,2137.2,2035.9,2136.6,2035.9z"/>
	<path class="st3" d="M2353.3,2239.4h-8.5c-0.6,0-1.2,0.3-1.5,0.9l-4.3,7.4c-0.3,0.5-0.3,1.2,0,1.7l4.3,7.4c0.3,0.5,0.9,0.9,1.5,0.9
		h8.5c0.6,0,1.2-0.3,1.5-0.9l4.3-7.4c0.3-0.5,0.3-1.2,0-1.7l-4.3-7.4C2354.4,2239.8,2353.9,2239.4,2353.3,2239.4z"/>
	<path class="st3" d="M2107.1,2260h-14.9c-1.7,0-3.3,0.9-4.1,2.4l-7.5,12.9c-0.8,1.5-0.8,3.3,0,4.7l7.5,12.9
		c0.8,1.5,2.4,2.4,4.1,2.4h14.9c1.7,0,3.3-0.9,4.1-2.4l7.5-12.9c0.8-1.5,0.8-3.3,0-4.7l-7.5-12.9
		C2110.3,2260.9,2108.8,2260,2107.1,2260z"/>
	<path class="st3" d="M2239.7,2273.2h-24.3c-3,0-5.8,1.6-7.3,4.2l-12.2,21.1c-1.5,2.6-1.5,5.8,0,8.5l12.2,21.1
		c1.5,2.6,4.3,4.2,7.3,4.2h24.3c3,0,5.8-1.6,7.3-4.2l12.2-21.1c1.5-2.6,1.5-5.8,0-8.5l-12.2-21.1
		C2245.5,2274.8,2242.8,2273.2,2239.7,2273.2z"/>
	<path class="st3" d="M2258.9,2212.5l11.4-19.8c1.7-3,1.7-6.7,0-9.7l-11.4-19.8c-1.7-3-5-4.9-8.4-4.9h-22.9c-3.5,0-6.7,1.9-8.4,4.9
		l-11.4,19.8c-1.7,3-1.7,6.7,0,9.7l11.4,19.8c1.7,3,5,4.9,8.4,4.9h22.9C2254,2217.4,2257.2,2215.5,2258.9,2212.5z M2257,2166.4
		l9.5,16.5c1.7,3,1.7,6.7,0,9.7l-9.5,16.5c-1.7,3-5,4.9-8.4,4.9h-19.1c-3.5,0-6.7-1.9-8.4-4.9l-9.5-16.5c-1.7-3-1.7-6.7,0-9.7
		l9.5-16.5c1.7-3,5-4.9,8.4-4.9h19.1C2252.1,2161.6,2255.3,2163.4,2257,2166.4z"/>
	<path class="st3" d="M2097,2040.1h-42.9c-2.6,0-4.9,1.4-6.2,3.6l-21.4,37.1c-1.3,2.2-1.3,5,0,7.2l21.4,37.1
		c1.3,2.2,3.7,3.6,6.2,3.6h42.9c2.6,0,4.9-1.4,6.2-3.6l21.4-37.1c1.3-2.2,1.3-5,0-7.2l-21.4-37.1
		C2101.9,2041.5,2099.6,2040.1,2097,2040.1z"/>
	<path class="st3" d="M2096.2,2143.5h-41.3c-3,0-5.9,1.6-7.4,4.3l-20.7,35.8c-1.5,2.6-1.5,5.9,0,8.5l20.7,35.8
		c1.5,2.6,4.3,4.3,7.4,4.3h41.3c3,0,5.9-1.6,7.4-4.3l20.7-35.8c1.5-2.6,1.5-5.9,0-8.5l-20.7-35.8
		C2102.1,2145.1,2099.3,2143.5,2096.2,2143.5z"/>
	<path class="st3" d="M2007.7,2092.6h-38.3c-4,0-7.7,2.1-9.7,5.6l-19.1,33.2c-2,3.5-2,7.7,0,11.2l19.1,33.2c2,3.5,5.7,5.6,9.7,5.6
		h38.3c4,0,7.7-2.1,9.7-5.6l19.1-33.2c2-3.5,2-7.7,0-11.2l-19.1-33.2C2015.4,2094.8,2011.7,2092.6,2007.7,2092.6z M2005.8,2178
		h-34.5c-4,0-7.7-2.1-9.7-5.6l-17.2-29.9c-2-3.5-2-7.7,0-11.2l17.2-29.9c2-3.5,5.7-5.6,9.7-5.6h34.5c4,0,7.7,2.1,9.7,5.6l17.2,29.9
		c2,3.5,2,7.7,0,11.2l-17.2,29.9C2013.5,2175.8,2009.8,2178,2005.8,2178z"/>
	<path class="st3" d="M2183.6,2094.3h-32.2c-5.9,0-11.3,3.1-14.2,8.2l-16.1,27.9c-2.9,5.1-2.9,11.3,0,16.4l16.1,27.9
		c2.9,5.1,8.3,8.2,14.2,8.2h32.2c5.9,0,11.3-3.1,14.2-8.2l16.1-27.9c2.9-5.1,2.9-11.3,0-16.4l-16.1-27.9
		C2194.9,2097.4,2189.5,2094.3,2183.6,2094.3z M2180.6,2176.3h-26.2c-5.4,0-10.4-2.9-13.1-7.5l-13.1-22.7c-2.7-4.7-2.7-10.4,0-15.1
		l13.1-22.7c2.7-4.7,7.7-7.5,13.1-7.5h26.2c5.4,0,10.4,2.9,13.1,7.5l13.1,22.7c2.7,4.7,2.7,10.4,0,15.1l-13.1,22.7
		C2190.9,2173.4,2186,2176.3,2180.6,2176.3z"/>
	<path class="st3" d="M2187.8,2192.7h-40.6c-3.3,0-6.3,1.7-7.9,4.6l-20.3,35.2c-1.6,2.8-1.6,6.3,0,9.1l20.3,35.2
		c1.6,2.8,4.6,4.6,7.9,4.6h40.6c3.3,0,6.3-1.7,7.9-4.6l20.3-35.2c1.6-2.8,1.6-6.3,0-9.1l-20.3-35.2
		C2194.1,2194.5,2191.1,2192.7,2187.8,2192.7z M2185.9,2278.1h-36.8c-3.3,0-6.3-1.7-7.9-4.6l-18.4-31.9c-1.6-2.8-1.6-6.3,0-9.1
		l18.4-31.9c1.6-2.8,4.6-4.6,7.9-4.6h36.8c3.3,0,6.3,1.7,7.9,4.6l18.4,31.9c1.6,2.8,1.6,6.3,0,9.1l-18.4,31.9
		C2192.2,2276.3,2189.2,2278.1,2185.9,2278.1z"/>
	<path class="st3" d="M2010.4,2076.2h-80.9v-3.3h80.9c4.2,0,8-2.3,10-5.9l10.8-19.7c2.5-4.5,7.2-7.3,12.3-7.3h45.2v3.3h-45.2
		c-3.9,0-7.5,2.1-9.4,5.6l-10.8,19.7C2020.7,2073.3,2015.8,2076.2,2010.4,2076.2z"/>
	<path class="st3" d="M2126.3,2127.9l-2.9-1.6l26.3-46.8c2.3-4.1,6.6-6.6,11.3-6.6h83.6v3.3H2161c-3.5,0-6.7,1.9-8.4,4.9
		L2126.3,2127.9z"/>
	<path class="st3" d="M2203.4,2292l-2.8-1.6l20.8-36.1c2.6-4.6,7.5-7.4,12.8-7.4h115.5v3.3h-115.5c-4.1,0-7.9,2.2-10,5.8
		L2203.4,2292z"/>
	<path class="st3" d="M2214.9,2177.1l-2.8-1.6l17.3-30.3c1.8-3.1,5.1-5,8.6-5h64.1v3.3H2238c-2.4,0-4.6,1.3-5.8,3.4L2214.9,2177.1z"
		/>
</g>
<rect x="1199" y="1280" class="st5" width="1265" height="484"/>
<g>
	<text transform="matrix(1 0 0 1 1687.542 1540.6094)" class="st3" style="font-family:'Consolas'; font-size:72.7571px;">lekcja</text>
	<text transform="matrix(1 0 0 1 1318.1426 1648.2129)" class="st3" style="font-family:'Consolas'; font-size:178px;">cyfrowa</text>
	<path class="st3" d="M2006.9,1358h-28c-1.9,0-3.7,1-4.6,2.7l-14,24.2c-0.9,1.6-0.9,3.7,0,5.3l14,24.2c0.9,1.6,2.7,2.7,4.6,2.7h28
		c1.9,0,3.7-1,4.6-2.7l14-24.2c0.9-1.6,0.9-3.7,0-5.3l-14-24.2C2010.5,1359,2008.8,1358,2006.9,1358z"/>
	<path class="st3" d="M1936.7,1419.5h-9c-0.5,0-0.9,0.2-1.1,0.6l-4.5,7.8c-0.2,0.4-0.2,0.9,0,1.3l4.5,7.8c0.2,0.4,0.7,0.6,1.1,0.6h9
		c0.5,0,0.9-0.2,1.1-0.6l4.5-7.8c0.2-0.4,0.2-0.9,0-1.3l-4.5-7.8C1937.5,1419.7,1937.1,1419.5,1936.7,1419.5z"/>
	<path class="st3" d="M2253.2,1419.5h-8.7c-0.6,0-1.1,0.3-1.4,0.8l-4.3,7.5c-0.3,0.5-0.3,1.1,0,1.6l4.3,7.5c0.3,0.5,0.8,0.8,1.4,0.8
		h8.7c0.6,0,1.1-0.3,1.4-0.8l4.3-7.5c0.3-0.5,0.3-1.1,0-1.6l-4.3-7.5C2254.3,1419.8,2253.8,1419.5,2253.2,1419.5z"/>
	<path class="st3" d="M2310.6,1486.8h-8.6c-0.6,0-1.1,0.3-1.4,0.8l-4.3,7.5c-0.3,0.5-0.3,1.1,0,1.6l4.3,7.5c0.3,0.5,0.8,0.8,1.4,0.8
		h8.6c0.6,0,1.1-0.3,1.4-0.8l4.3-7.5c0.3-0.5,0.3-1.1,0-1.6l-4.3-7.5C2311.8,1487.1,2311.2,1486.8,2310.6,1486.8z"/>
	<path class="st3" d="M2136.6,1389.9h-8.5c-0.6,0-1.2,0.3-1.5,0.9l-4.3,7.4c-0.3,0.5-0.3,1.2,0,1.7l4.3,7.4c0.3,0.5,0.9,0.9,1.5,0.9
		h8.5c0.6,0,1.2-0.3,1.5-0.9l4.3-7.4c0.3-0.5,0.3-1.2,0-1.7l-4.3-7.4C2137.8,1390.3,2137.2,1389.9,2136.6,1389.9z"/>
	<path class="st3" d="M2353.3,1593.4h-8.5c-0.6,0-1.2,0.3-1.5,0.9l-4.3,7.4c-0.3,0.5-0.3,1.2,0,1.7l4.3,7.4c0.3,0.5,0.9,0.9,1.5,0.9
		h8.5c0.6,0,1.2-0.3,1.5-0.9l4.3-7.4c0.3-0.5,0.3-1.2,0-1.7l-4.3-7.4C2354.4,1593.8,2353.9,1593.4,2353.3,1593.4z"/>
	<path class="st3" d="M2107.1,1614h-14.9c-1.7,0-3.3,0.9-4.1,2.4l-7.5,12.9c-0.8,1.5-0.8,3.3,0,4.7l7.5,12.9
		c0.8,1.5,2.4,2.4,4.1,2.4h14.9c1.7,0,3.3-0.9,4.1-2.4l7.5-12.9c0.8-1.5,0.8-3.3,0-4.7l-7.5-12.9
		C2110.3,1614.9,2108.8,1614,2107.1,1614z"/>
	<path class="st3" d="M2239.7,1627.2h-24.3c-3,0-5.8,1.6-7.3,4.2l-12.2,21.1c-1.5,2.6-1.5,5.8,0,8.5l12.2,21.1
		c1.5,2.6,4.3,4.2,7.3,4.2h24.3c3,0,5.8-1.6,7.3-4.2l12.2-21.1c1.5-2.6,1.5-5.8,0-8.5l-12.2-21.1
		C2245.5,1628.8,2242.8,1627.2,2239.7,1627.2z"/>
	<path class="st3" d="M2258.9,1566.5l11.4-19.8c1.7-3,1.7-6.7,0-9.7l-11.4-19.8c-1.7-3-5-4.9-8.4-4.9h-22.9c-3.5,0-6.7,1.9-8.4,4.9
		l-11.4,19.8c-1.7,3-1.7,6.7,0,9.7l11.4,19.8c1.7,3,5,4.9,8.4,4.9h22.9C2254,1571.4,2257.2,1569.5,2258.9,1566.5z M2257,1520.4
		l9.5,16.5c1.7,3,1.7,6.7,0,9.7l-9.5,16.5c-1.7,3-5,4.9-8.4,4.9h-19.1c-3.5,0-6.7-1.9-8.4-4.9l-9.5-16.5c-1.7-3-1.7-6.7,0-9.7
		l9.5-16.5c1.7-3,5-4.9,8.4-4.9h19.1C2252.1,1515.6,2255.3,1517.4,2257,1520.4z"/>
	<path class="st3" d="M2097,1394.1h-42.9c-2.6,0-4.9,1.4-6.2,3.6l-21.4,37.1c-1.3,2.2-1.3,5,0,7.2l21.4,37.1
		c1.3,2.2,3.7,3.6,6.2,3.6h42.9c2.6,0,4.9-1.4,6.2-3.6l21.4-37.1c1.3-2.2,1.3-5,0-7.2l-21.4-37.1
		C2101.9,1395.5,2099.6,1394.1,2097,1394.1z"/>
	<path class="st3" d="M2096.2,1497.5h-41.3c-3,0-5.9,1.6-7.4,4.3l-20.7,35.8c-1.5,2.6-1.5,5.9,0,8.5l20.7,35.8
		c1.5,2.6,4.3,4.3,7.4,4.3h41.3c3,0,5.9-1.6,7.4-4.3l20.7-35.8c1.5-2.6,1.5-5.9,0-8.5l-20.7-35.8
		C2102.1,1499.1,2099.3,1497.5,2096.2,1497.5z"/>
	<path class="st3" d="M2007.7,1446.6h-38.3c-4,0-7.7,2.1-9.7,5.6l-19.1,33.2c-2,3.5-2,7.7,0,11.2l19.1,33.2c2,3.5,5.7,5.6,9.7,5.6
		h38.3c4,0,7.7-2.1,9.7-5.6l19.1-33.2c2-3.5,2-7.7,0-11.2l-19.1-33.2C2015.4,1448.8,2011.7,1446.6,2007.7,1446.6z M2005.8,1532
		h-34.5c-4,0-7.7-2.1-9.7-5.6l-17.2-29.9c-2-3.5-2-7.7,0-11.2l17.2-29.9c2-3.5,5.7-5.6,9.7-5.6h34.5c4,0,7.7,2.1,9.7,5.6l17.2,29.9
		c2,3.5,2,7.7,0,11.2l-17.2,29.9C2013.5,1529.8,2009.8,1532,2005.8,1532z"/>
	<path class="st3" d="M2183.6,1448.3h-32.2c-5.9,0-11.3,3.1-14.2,8.2l-16.1,27.9c-2.9,5.1-2.9,11.3,0,16.4l16.1,27.9
		c2.9,5.1,8.3,8.2,14.2,8.2h32.2c5.9,0,11.3-3.1,14.2-8.2l16.1-27.9c2.9-5.1,2.9-11.3,0-16.4l-16.1-27.9
		C2194.9,1451.4,2189.5,1448.3,2183.6,1448.3z M2180.6,1530.3h-26.2c-5.4,0-10.4-2.9-13.1-7.5l-13.1-22.7c-2.7-4.7-2.7-10.4,0-15.1
		l13.1-22.7c2.7-4.7,7.7-7.5,13.1-7.5h26.2c5.4,0,10.4,2.9,13.1,7.5l13.1,22.7c2.7,4.7,2.7,10.4,0,15.1l-13.1,22.7
		C2190.9,1527.4,2186,1530.3,2180.6,1530.3z"/>
	<path class="st3" d="M2187.8,1546.7h-40.6c-3.3,0-6.3,1.7-7.9,4.6l-20.3,35.2c-1.6,2.8-1.6,6.3,0,9.1l20.3,35.2
		c1.6,2.8,4.6,4.6,7.9,4.6h40.6c3.3,0,6.3-1.7,7.9-4.6l20.3-35.2c1.6-2.8,1.6-6.3,0-9.1l-20.3-35.2
		C2194.1,1548.5,2191.1,1546.7,2187.8,1546.7z M2185.9,1632.1h-36.8c-3.3,0-6.3-1.7-7.9-4.6l-18.4-31.9c-1.6-2.8-1.6-6.3,0-9.1
		l18.4-31.9c1.6-2.8,4.6-4.6,7.9-4.6h36.8c3.3,0,6.3,1.7,7.9,4.6l18.4,31.9c1.6,2.8,1.6,6.3,0,9.1l-18.4,31.9
		C2192.2,1630.3,2189.2,1632.1,2185.9,1632.1z"/>
	<path class="st3" d="M2010.4,1430.2h-80.9v-3.3h80.9c4.2,0,8-2.3,10-5.9l10.8-19.7c2.5-4.5,7.2-7.3,12.3-7.3h45.2v3.3h-45.2
		c-3.9,0-7.5,2.1-9.4,5.6l-10.8,19.7C2020.7,1427.3,2015.8,1430.2,2010.4,1430.2z"/>
	<path class="st3" d="M2126.3,1481.9l-2.9-1.6l26.3-46.8c2.3-4.1,6.6-6.6,11.3-6.6h83.6v3.3H2161c-3.5,0-6.7,1.9-8.4,4.9
		L2126.3,1481.9z"/>
	<path class="st3" d="M2203.4,1646l-2.8-1.6l20.8-36.1c2.6-4.6,7.5-7.4,12.8-7.4h115.5v3.3h-115.5c-4.1,0-7.9,2.2-10,5.8
		L2203.4,1646z"/>
	<path class="st3" d="M2214.9,1531.1l-2.8-1.6l17.3-30.3c1.8-3.1,5.1-5,8.6-5h64.1v3.3H2238c-2.4,0-4.6,1.3-5.8,3.4L2214.9,1531.1z"
		/>
</g>
<g>
	<text transform="matrix(1 0 0 1 488.542 873.6094)" style="font-family:'Consolas'; font-size:72.7571px;">lekcja</text>
	<text transform="matrix(1 0 0 1 119.1426 981.2129)" style="font-family:'Consolas'; font-size:178px;">cyfrowa</text>
	<path d="M807.9,691h-28c-1.9,0-3.7,1-4.6,2.7l-14,24.2c-0.9,1.6-0.9,3.7,0,5.3l14,24.2c0.9,1.6,2.7,2.7,4.6,2.7h28
		c1.9,0,3.7-1,4.6-2.7l14-24.2c0.9-1.6,0.9-3.7,0-5.3l-14-24.2C811.5,692,809.8,691,807.9,691z"/>
	<path d="M737.7,752.5h-9c-0.5,0-0.9,0.2-1.1,0.6l-4.5,7.8c-0.2,0.4-0.2,0.9,0,1.3l4.5,7.8c0.2,0.4,0.7,0.6,1.1,0.6h9
		c0.5,0,0.9-0.2,1.1-0.6l4.5-7.8c0.2-0.4,0.2-0.9,0-1.3l-4.5-7.8C738.5,752.7,738.1,752.5,737.7,752.5z"/>
	<path d="M1054.2,752.5h-8.7c-0.6,0-1.1,0.3-1.4,0.8l-4.3,7.5c-0.3,0.5-0.3,1.1,0,1.6l4.3,7.5c0.3,0.5,0.8,0.8,1.4,0.8h8.7
		c0.6,0,1.1-0.3,1.4-0.8l4.3-7.5c0.3-0.5,0.3-1.1,0-1.6l-4.3-7.5C1055.3,752.8,1054.8,752.5,1054.2,752.5z"/>
	<path d="M1111.6,819.8h-8.6c-0.6,0-1.1,0.3-1.4,0.8l-4.3,7.5c-0.3,0.5-0.3,1.1,0,1.6l4.3,7.5c0.3,0.5,0.8,0.8,1.4,0.8h8.6
		c0.6,0,1.1-0.3,1.4-0.8l4.3-7.5c0.3-0.5,0.3-1.1,0-1.6l-4.3-7.5C1112.8,820.1,1112.2,819.8,1111.6,819.8z"/>
	<path d="M937.6,722.9h-8.5c-0.6,0-1.2,0.3-1.5,0.9l-4.3,7.4c-0.3,0.5-0.3,1.2,0,1.7l4.3,7.4c0.3,0.5,0.9,0.9,1.5,0.9h8.5
		c0.6,0,1.2-0.3,1.5-0.9l4.3-7.4c0.3-0.5,0.3-1.2,0-1.7l-4.3-7.4C938.8,723.3,938.2,722.9,937.6,722.9z"/>
	<path d="M1154.3,926.4h-8.5c-0.6,0-1.2,0.3-1.5,0.9l-4.3,7.4c-0.3,0.5-0.3,1.2,0,1.7l4.3,7.4c0.3,0.5,0.9,0.9,1.5,0.9h8.5
		c0.6,0,1.2-0.3,1.5-0.9l4.3-7.4c0.3-0.5,0.3-1.2,0-1.7l-4.3-7.4C1155.4,926.8,1154.9,926.4,1154.3,926.4z"/>
	<path d="M908.1,947h-14.9c-1.7,0-3.3,0.9-4.1,2.4l-7.5,12.9c-0.8,1.5-0.8,3.3,0,4.7L889,980c0.8,1.5,2.4,2.4,4.1,2.4h14.9
		c1.7,0,3.3-0.9,4.1-2.4l7.5-12.9c0.8-1.5,0.8-3.3,0-4.7l-7.5-12.9C911.3,947.9,909.8,947,908.1,947z"/>
	<path d="M1040.7,960.2h-24.3c-3,0-5.8,1.6-7.3,4.2l-12.2,21.1c-1.5,2.6-1.5,5.8,0,8.5l12.2,21.1c1.5,2.6,4.3,4.2,7.3,4.2h24.3
		c3,0,5.8-1.6,7.3-4.2l12.2-21.1c1.5-2.6,1.5-5.8,0-8.5l-12.2-21.1C1046.5,961.8,1043.8,960.2,1040.7,960.2z"/>
	<path d="M1059.9,899.5l11.4-19.8c1.7-3,1.7-6.7,0-9.7l-11.4-19.8c-1.7-3-5-4.9-8.4-4.9h-22.9c-3.5,0-6.7,1.9-8.4,4.9l-11.4,19.8
		c-1.7,3-1.7,6.7,0,9.7l11.4,19.8c1.7,3,5,4.9,8.4,4.9h22.9C1055,904.4,1058.2,902.5,1059.9,899.5z M1058,853.4l9.5,16.5
		c1.7,3,1.7,6.7,0,9.7l-9.5,16.5c-1.7,3-5,4.9-8.4,4.9h-19.1c-3.5,0-6.7-1.9-8.4-4.9l-9.5-16.5c-1.7-3-1.7-6.7,0-9.7l9.5-16.5
		c1.7-3,5-4.9,8.4-4.9h19.1C1053.1,848.6,1056.3,850.4,1058,853.4z"/>
	<path d="M898,727.1h-42.9c-2.6,0-4.9,1.4-6.2,3.6l-21.4,37.1c-1.3,2.2-1.3,5,0,7.2l21.4,37.1c1.3,2.2,3.7,3.6,6.2,3.6H898
		c2.6,0,4.9-1.4,6.2-3.6l21.4-37.1c1.3-2.2,1.3-5,0-7.2l-21.4-37.1C902.9,728.5,900.6,727.1,898,727.1z"/>
	<path d="M897.2,830.5h-41.3c-3,0-5.9,1.6-7.4,4.3l-20.7,35.8c-1.5,2.6-1.5,5.9,0,8.5l20.7,35.8c1.5,2.6,4.3,4.3,7.4,4.3h41.3
		c3,0,5.9-1.6,7.4-4.3l20.7-35.8c1.5-2.6,1.5-5.9,0-8.5l-20.7-35.8C903.1,832.1,900.3,830.5,897.2,830.5z"/>
	<path d="M808.7,779.6h-38.3c-4,0-7.7,2.1-9.7,5.6l-19.1,33.2c-2,3.5-2,7.7,0,11.2l19.1,33.2c2,3.5,5.7,5.6,9.7,5.6h38.3
		c4,0,7.7-2.1,9.7-5.6l19.1-33.2c2-3.5,2-7.7,0-11.2l-19.1-33.2C816.4,781.8,812.7,779.6,808.7,779.6z M806.8,865h-34.5
		c-4,0-7.7-2.1-9.7-5.6l-17.2-29.9c-2-3.5-2-7.7,0-11.2l17.2-29.9c2-3.5,5.7-5.6,9.7-5.6h34.5c4,0,7.7,2.1,9.7,5.6l17.2,29.9
		c2,3.5,2,7.7,0,11.2l-17.2,29.9C814.5,862.8,810.8,865,806.8,865z"/>
	<path d="M984.6,781.3h-32.2c-5.9,0-11.3,3.1-14.2,8.2L922,817.4c-2.9,5.1-2.9,11.3,0,16.4l16.1,27.9c2.9,5.1,8.3,8.2,14.2,8.2h32.2
		c5.9,0,11.3-3.1,14.2-8.2l16.1-27.9c2.9-5.1,2.9-11.3,0-16.4l-16.1-27.9C995.9,784.4,990.5,781.3,984.6,781.3z M981.6,863.3h-26.2
		c-5.4,0-10.4-2.9-13.1-7.5l-13.1-22.7c-2.7-4.7-2.7-10.4,0-15.1l13.1-22.7c2.7-4.7,7.7-7.5,13.1-7.5h26.2c5.4,0,10.4,2.9,13.1,7.5
		l13.1,22.7c2.7,4.7,2.7,10.4,0,15.1l-13.1,22.7C991.9,860.4,987,863.3,981.6,863.3z"/>
	<path d="M988.8,879.7h-40.6c-3.3,0-6.3,1.7-7.9,4.6l-20.3,35.2c-1.6,2.8-1.6,6.3,0,9.1l20.3,35.2c1.6,2.8,4.6,4.6,7.9,4.6h40.6
		c3.3,0,6.3-1.7,7.9-4.6l20.3-35.2c1.6-2.8,1.6-6.3,0-9.1l-20.3-35.2C995.1,881.5,992.1,879.7,988.8,879.7z M986.9,965.1h-36.8
		c-3.3,0-6.3-1.7-7.9-4.6l-18.4-31.9c-1.6-2.8-1.6-6.3,0-9.1l18.4-31.9c1.6-2.8,4.6-4.6,7.9-4.6h36.8c3.3,0,6.3,1.7,7.9,4.6
		l18.4,31.9c1.6,2.8,1.6,6.3,0,9.1l-18.4,31.9C993.2,963.3,990.2,965.1,986.9,965.1z"/>
	<path d="M811.4,763.2h-80.9v-3.3h80.9c4.2,0,8-2.3,10-5.9l10.8-19.7c2.5-4.5,7.2-7.3,12.3-7.3h45.2v3.3h-45.2
		c-3.9,0-7.5,2.1-9.4,5.6l-10.8,19.7C821.7,760.3,816.8,763.2,811.4,763.2z"/>
	<path d="M927.3,814.9l-2.9-1.6l26.3-46.8c2.3-4.1,6.6-6.6,11.3-6.6h83.6v3.3H962c-3.5,0-6.7,1.9-8.4,4.9L927.3,814.9z"/>
	<path d="M1004.4,979l-2.8-1.6l20.8-36.1c2.6-4.6,7.5-7.4,12.8-7.4h115.5v3.3h-115.5c-4.1,0-7.9,2.2-10,5.8L1004.4,979z"/>
	<path d="M1015.9,864.1l-2.8-1.6l17.3-30.3c1.8-3.1,5.1-5,8.6-5h64.1v3.3H1039c-2.4,0-4.6,1.3-5.8,3.4L1015.9,864.1z"/>
</g>
<circle class="st3" cx="-1000.5" cy="561.5" r="407.5"/>
<g>
	<path class="st2" d="M733.2,180.2h-34.6c-3.6,0-6.9,2-8.7,5.1l-17.3,30.6c-1.8,3.2-1.8,7.1,0,10.3l17.3,30.6
		c1.8,3.2,5.1,5.1,8.7,5.1h34.6c3.6,0,6.9-2,8.7-5.1l17.3-30.6c1.8-3.2,1.8-7.1,0-10.3L742,185.4
		C740.2,182.2,736.8,180.2,733.2,180.2z"/>
	<path class="st2" d="M900.9,273.4h-34.2c-3.6,0-6.9,2-8.6,5.1L841,309.1c-1.8,3.2-1.8,7.1,0,10.3l17.1,30.6
		c1.8,3.2,5.1,5.1,8.6,5.1h34.2c3.6,0,6.9-2,8.6-5.1l17.1-30.6c1.8-3.2,1.8-7.1,0-10.3l-17.1-30.6
		C907.8,275.3,904.5,273.4,900.9,273.4z"/>
	<path class="st2" d="M962.5,241.7h-22.6c-2.4,0-4.5,1.3-5.7,3.4l-11.3,20c-1.2,2.1-1.2,4.6,0,6.7l11.3,20c1.2,2.1,3.4,3.4,5.7,3.4
		h22.6c2.4,0,4.5-1.3,5.7-3.4l11.3-20c1.2-2.1,1.2-4.6,0-6.7l-11.3-20C967,243,964.8,241.7,962.5,241.7z"/>
	<path class="st2" d="M900.9,182.1h-33.5c-3.5,0-6.7,1.9-8.4,5l-16.7,29.4c-1.7,3.1-1.7,6.8,0,9.9l16.7,29.4c1.7,3.1,5,5,8.4,5h33.5
		c3.5,0,6.7-1.9,8.4-5l16.7-29.4c1.7-3.1,1.7-6.8,0-9.9L909.4,187C907.6,184,904.4,182.1,900.9,182.1z"/>
	<g>
		<path d="M732.5,95h-26c-1.9,0-3.7,1-4.6,2.7l-13,22.5c-0.9,1.6-0.9,3.7,0,5.3l13,22.5c0.9,1.6,2.7,2.7,4.6,2.7h26
			c1.9,0,3.7-1,4.6-2.7l13-22.5c0.9-1.6,0.9-3.7,0-5.3l-13-22.5C736.1,96,734.4,95,732.5,95z"/>
		<path d="M666.5,152.9h-8.4c-0.5,0-0.9,0.2-1.1,0.6l-4.2,7.3c-0.2,0.4-0.2,0.9,0,1.3l4.2,7.3c0.2,0.4,0.7,0.6,1.1,0.6h8.4
			c0.5,0,0.9-0.2,1.1-0.6l4.2-7.3c0.2-0.4,0.2-0.9,0-1.3l-4.2-7.3C667.4,153.1,667,152.9,666.5,152.9z"/>
		<path d="M964.5,152.9h-8c-0.6,0-1.1,0.3-1.4,0.8l-4,7c-0.3,0.5-0.3,1.1,0,1.6l4,7c0.3,0.5,0.8,0.8,1.4,0.8h8
			c0.6,0,1.1-0.3,1.4-0.8l4-7c0.3-0.5,0.3-1.1,0-1.6l-4-7C965.6,153.2,965.1,152.9,964.5,152.9z"/>
		<path d="M1018.6,216.2h-8c-0.6,0-1.1,0.3-1.4,0.8l-4,6.9c-0.3,0.5-0.3,1.1,0,1.6l4,6.9c0.3,0.5,0.8,0.8,1.4,0.8h8
			c0.6,0,1.1-0.3,1.4-0.8l4-6.9c0.3-0.5,0.3-1.1,0-1.6l-4-6.9C1019.7,216.5,1019.2,216.2,1018.6,216.2z"/>
		<path d="M854.8,125.1h-7.9c-0.6,0-1.2,0.3-1.5,0.9l-4,6.8c-0.3,0.5-0.3,1.2,0,1.7l4,6.8c0.3,0.5,0.9,0.9,1.5,0.9h7.9
			c0.6,0,1.2-0.3,1.5-0.9l4-6.8c0.3-0.5,0.3-1.2,0-1.7l-4-6.8C855.9,125.4,855.4,125.1,854.8,125.1z"/>
		<path d="M1058.7,316.6h-7.9c-0.6,0-1.2,0.3-1.5,0.9l-4,6.8c-0.3,0.5-0.3,1.2,0,1.7l4,6.8c0.3,0.5,0.9,0.9,1.5,0.9h7.9
			c0.6,0,1.2-0.3,1.5-0.9l4-6.8c0.3-0.5,0.3-1.2,0-1.7l-4-6.8C1059.9,317,1059.3,316.6,1058.7,316.6z"/>
		<path d="M826.8,336h-13.8c-1.7,0-3.3,0.9-4.1,2.4l-6.9,11.9c-0.8,1.5-0.8,3.3,0,4.7l6.9,11.9c0.8,1.5,2.4,2.4,4.1,2.4h13.8
			c1.7,0,3.3-0.9,4.1-2.4l6.9-11.9c0.8-1.5,0.8-3.3,0-4.7l-6.9-11.9C830.1,336.9,828.5,336,826.8,336z"/>
		<path d="M951.9,348.4H929c-2.8,0-5.5,1.5-6.9,4l-11.5,19.9c-1.4,2.5-1.4,5.5,0,8l11.5,19.9c1.4,2.5,4,4,6.9,4h22.9
			c2.8,0,5.5-1.5,6.9-4l11.5-19.9c1.4-2.5,1.4-5.5,0-8l-11.5-19.9C957.4,349.9,954.7,348.4,951.9,348.4z"/>
		<path d="M969.9,291.3l10.8-18.6c1.6-2.8,1.6-6.3,0-9.2l-10.8-18.6c-1.6-2.8-4.7-4.6-7.9-4.6h-21.5c-3.3,0-6.3,1.7-7.9,4.6
			l-10.8,18.6c-1.6,2.8-1.6,6.3,0,9.2l10.8,18.6c1.6,2.8,4.7,4.6,7.9,4.6H962C965.3,295.9,968.3,294.1,969.9,291.3z M968.2,247.9
			l9,15.6c1.6,2.8,1.6,6.3,0,9.2l-9,15.6c-1.6,2.8-4.7,4.6-7.9,4.6h-18c-3.3,0-6.3-1.7-7.9-4.6l-9-15.6c-1.6-2.8-1.6-6.3,0-9.2
			l9-15.6c1.6-2.8,4.7-4.6,7.9-4.6h18C963.5,243.3,966.5,245.1,968.2,247.9z"/>
		<path d="M816.5,226.3h-38.3c-3,0-5.9,1.6-7.4,4.3l-19.2,33.2c-1.5,2.6-1.5,5.9,0,8.5l19.2,33.2c1.5,2.6,4.3,4.3,7.4,4.3h38.3
			c3,0,5.9-1.6,7.4-4.3l19.2-33.2c1.5-2.6,1.5-5.9,0-8.5l-19.2-33.2C822.4,228,819.5,226.3,816.5,226.3z"/>
		<path d="M733.5,178.4h-36c-3.8,0-7.2,2-9.1,5.3l-18,31.2c-1.9,3.2-1.9,7.3,0,10.5l18,31.2c1.9,3.2,5.3,5.3,9.1,5.3h36
			c3.8,0,7.2-2,9.1-5.3l18-31.2c1.9-3.2,1.9-7.3,0-10.5l-18-31.2C740.7,180.4,737.2,178.4,733.5,178.4z M731.7,258.8h-32.5
			c-3.8,0-7.2-2-9.1-5.3l-16.2-28.1c-1.9-3.2-1.9-7.3,0-10.5l16.2-28.1c1.9-3.2,5.3-5.3,9.1-5.3h32.5c3.8,0,7.2,2,9.1,5.3l16.2,28.1
			c1.9,3.2,1.9,7.3,0,10.5l-16.2,28.1C738.9,256.8,735.4,258.8,731.7,258.8z"/>
		<path d="M899,180h-30.3c-5.5,0-10.6,2.9-13.4,7.7L840.1,214c-2.8,4.8-2.8,10.7,0,15.4l15.2,26.3c2.8,4.8,7.9,7.7,13.4,7.7H899
			c5.5,0,10.6-2.9,13.4-7.7l15.2-26.3c2.8-4.8,2.8-10.7,0-15.4l-15.2-26.3C909.6,182.9,904.5,180,899,180z M896.2,257.2h-24.6
			c-5.1,0-9.8-2.7-12.3-7.1l-12.3-21.3c-2.5-4.4-2.5-9.8,0-14.2l12.3-21.3c2.5-4.4,7.2-7.1,12.3-7.1h24.6c5.1,0,9.8,2.7,12.3,7.1
			l12.3,21.3c2.5,4.4,2.5,9.8,0,14.2l-12.3,21.3C905.9,254.5,901.2,257.2,896.2,257.2z"/>
		<path d="M903,272.7h-38.3c-3.1,0-5.9,1.6-7.4,4.3l-19.1,33.1c-1.5,2.7-1.5,5.9,0,8.6l19.1,33.1c1.5,2.7,4.4,4.3,7.4,4.3H903
			c3.1,0,5.9-1.6,7.4-4.3l19.1-33.1c1.5-2.7,1.5-5.9,0-8.6L910.4,277C908.9,274.3,906.1,272.7,903,272.7z M901.2,353h-34.7
			c-3.1,0-5.9-1.6-7.4-4.3l-17.3-30c-1.5-2.7-1.5-5.9,0-8.6l17.3-30c1.5-2.7,4.4-4.3,7.4-4.3h34.7c3.1,0,5.9,1.6,7.4,4.3l17.3,30
			c1.5,2.7,1.5,5.9,0,8.6l-17.3,30C907.1,351.4,904.3,353,901.2,353z"/>
		<path d="M843.4,167.1l-19.9-34.5c-1.3-2.2-3.7-3.6-6.2-3.6h-7.6h-32.3h-10.3c-4.8,0-9.2,2.6-11.6,6.8l-10.2,18.5
			c-1.9,3.4-5.5,5.6-9.4,5.6h-76.2v3.1H736c5,0,9.7-2.7,12.1-7.2l10.2-18.5c1.8-3.2,5.2-5.2,8.9-5.2h4.4c-0.1,0.2-0.2,0.3-0.3,0.5
			l-19.9,34.5c-1.3,2.2-1.3,5,0,7.2l19.9,34.5c1.3,2.2,3.7,3.6,6.2,3.6h39.9c2.6,0,4.9-1.4,6.2-3.6l19.9-34.5
			C844.7,172.1,844.7,169.3,843.4,167.1z"/>
		<path d="M845,211.6l-2.7-1.5l24.7-44c2.2-3.8,6.2-6.2,10.6-6.2h78.7v3.1h-78.7c-3.3,0-6.3,1.8-8,4.6L845,211.6z"/>
		<path d="M917.7,366.1l-2.7-1.5l19.6-33.9c2.5-4.3,7.1-7,12.1-7h108.7v3.1H946.7c-3.9,0-7.5,2.1-9.4,5.4L917.7,366.1z"/>
		<path d="M928.5,258l-2.7-1.5l16.3-28.5c1.7-2.9,4.8-4.7,8.1-4.7h60.4v3.1h-60.4c-2.2,0-4.3,1.2-5.4,3.2L928.5,258z"/>
	</g>
</g>
<g>
	<path class="st2" d="M162.1,160.4h-24c-2.5,0-4.8,1.4-6,3.6l-12,21.1c-1.2,2.2-1.2,4.9,0,7.1l12,21.1c1.2,2.2,3.6,3.6,6,3.6h24
		c2.5,0,4.8-1.4,6-3.6l12-21.1c1.2-2.2,1.2-4.9,0-7.1l-12-21.1C166.9,161.7,164.5,160.4,162.1,160.4z"/>
	<path class="st2" d="M279.7,226.1h-23.7c-2.5,0-4.7,1.4-6,3.6l-11.8,21.1c-1.2,2.2-1.2,4.9,0,7.1l11.8,21.1c1.2,2.2,3.5,3.6,6,3.6
		h23.7c2.5,0,4.7-1.4,6-3.6l11.8-21.1c1.2-2.2,1.2-4.9,0-7.1l-11.8-21.1C284.5,227.4,282.2,226.1,279.7,226.1z"/>
	<path class="st2" d="M322.3,203.3h-15.6c-1.6,0-3.1,0.9-3.9,2.3l-7.8,13.8c-0.8,1.4-0.8,3.2,0,4.7l7.8,13.8
		c0.8,1.4,2.3,2.3,3.9,2.3h15.6c1.6,0,3.1-0.9,3.9-2.3l7.8-13.8c0.8-1.4,0.8-3.2,0-4.7l-7.8-13.8
		C325.4,204.2,323.9,203.3,322.3,203.3z"/>
	<path class="st2" d="M279.3,162.5h-23.1c-2.4,0-4.6,1.3-5.8,3.4l-11.6,20.4c-1.2,2.1-1.2,4.7,0,6.8l11.6,20.4
		c1.2,2.1,3.4,3.4,5.8,3.4h23.1c2.4,0,4.6-1.3,5.8-3.4l11.6-20.4c1.2-2.1,1.2-4.7,0-6.8l-11.6-20.4
		C283.9,163.8,281.7,162.5,279.3,162.5z"/>
	<g>
		<path d="M161.3,102h-16.2c-1.9,0-3.7,1-4.6,2.7l-8.1,14c-0.9,1.6-0.9,3.7,0,5.3l8.1,14c0.9,1.6,2.7,2.7,4.6,2.7h16.2
			c1.9,0,3.7-1,4.6-2.7l8.1-14c0.9-1.6,0.9-3.7,0-5.3l-8.1-14C165,103,163.2,102,161.3,102z"/>
		<path d="M116.1,142.3h-5.4c-0.5,0-0.9,0.2-1.1,0.6l-2.7,4.7c-0.2,0.4-0.2,0.9,0,1.3l2.7,4.7c0.2,0.4,0.7,0.6,1.1,0.6h5.4
			c0.5,0,0.9-0.2,1.1-0.6l2.7-4.7c0.2-0.4,0.2-0.9,0-1.3l-2.7-4.7C117,142.5,116.6,142.3,116.1,142.3z"/>
		<path d="M323.5,142.3h-5c-0.6,0-1.1,0.3-1.4,0.8l-2.5,4.4c-0.3,0.5-0.3,1.1,0,1.6l2.5,4.4c0.3,0.5,0.8,0.8,1.4,0.8h5
			c0.6,0,1.1-0.3,1.4-0.8l2.5-4.4c0.3-0.5,0.3-1.1,0-1.6l-2.5-4.4C324.6,142.6,324.1,142.3,323.5,142.3z"/>
		<path d="M361.2,186.4h-5c-0.6,0-1.1,0.3-1.4,0.8l-2.5,4.3c-0.3,0.5-0.3,1.1,0,1.6l2.5,4.3c0.3,0.5,0.8,0.8,1.4,0.8h5
			c0.6,0,1.1-0.3,1.4-0.8l2.5-4.3c0.3-0.5,0.3-1.1,0-1.6l-2.5-4.3C362.3,186.7,361.8,186.4,361.2,186.4z"/>
		<path d="M247.1,122.9h-4.9c-0.6,0-1.2,0.3-1.5,0.9l-2.5,4.2c-0.3,0.5-0.3,1.2,0,1.7l2.5,4.2c0.3,0.5,0.9,0.9,1.5,0.9h4.9
			c0.6,0,1.2-0.3,1.5-0.9l2.5-4.2c0.3-0.5,0.3-1.2,0-1.7l-2.5-4.2C248.3,123.3,247.7,122.9,247.1,122.9z"/>
		<path d="M389.1,256.3h-4.9c-0.6,0-1.2,0.3-1.5,0.9l-2.5,4.2c-0.3,0.5-0.3,1.2,0,1.7l2.5,4.2c0.3,0.5,0.9,0.9,1.5,0.9h4.9
			c0.6,0,1.2-0.3,1.5-0.9l2.5-4.2c0.3-0.5,0.3-1.2,0-1.7l-2.5-4.2C390.3,256.6,389.7,256.3,389.1,256.3z"/>
		<path d="M227.1,269.8h-7.9c-1.7,0-3.3,0.9-4.1,2.4l-4,6.9c-0.8,1.5-0.8,3.3,0,4.7l4,6.9c0.8,1.5,2.4,2.4,4.1,2.4h7.9
			c1.7,0,3.3-0.9,4.1-2.4l4-6.9c0.8-1.5,0.8-3.3,0-4.7l-4-6.9C230.4,270.7,228.8,269.8,227.1,269.8z"/>
		<path d="M315,278.4h-16c-2,0-3.8,1.1-4.8,2.8l-8,13.8c-1,1.7-1,3.8,0,5.5l8,13.8c1,1.7,2.8,2.8,4.8,2.8h16c2,0,3.8-1.1,4.8-2.8
			l8-13.8c1-1.7,1-3.8,0-5.5l-8-13.8C318.8,279.5,317,278.4,315,278.4z"/>
		<path d="M327.6,238.7l7.5-13c1.1-2,1.1-4.4,0-6.4l-7.5-13c-1.1-2-3.2-3.2-5.5-3.2h-15c-2.3,0-4.4,1.2-5.5,3.2l-7.5,13
			c-1.1,2-1.1,4.4,0,6.4l7.5,13c1.1,2,3.2,3.2,5.5,3.2h15C324.3,241.8,326.5,240.6,327.6,238.7z M326.3,208.5l6.3,10.8
			c1.1,2,1.1,4.4,0,6.4l-6.3,10.8c-1.1,2-3.2,3.2-5.5,3.2h-12.5c-2.3,0-4.4-1.2-5.5-3.2l-6.3-10.8c-1.1-2-1.1-4.4,0-6.4l6.3-10.8
			c1.1-2,3.2-3.2,5.5-3.2h12.5C323.1,205.3,325.2,206.5,326.3,208.5z"/>
		<path d="M219.3,193.4h-23.7c-3,0-5.9,1.6-7.4,4.3l-11.8,20.5c-1.5,2.6-1.5,5.9,0,8.5l11.8,20.5c1.5,2.6,4.3,4.3,7.4,4.3h23.7
			c3,0,5.9-1.6,7.4-4.3l11.8-20.5c1.5-2.6,1.5-5.9,0-8.5l-11.8-20.5C225.1,195.1,222.3,193.4,219.3,193.4z"/>
		<path d="M163,160.1h-25.1c-2.6,0-5,1.4-6.3,3.7L119,185.5c-1.3,2.3-1.3,5,0,7.3l12.5,21.7c1.3,2.3,3.7,3.7,6.3,3.7H163
			c2.6,0,5-1.4,6.3-3.7l12.5-21.7c1.3-2.3,1.3-5,0-7.3l-12.5-21.7C168,161.5,165.6,160.1,163,160.1z M161.7,216h-22.6
			c-2.6,0-5-1.4-6.3-3.7l-11.3-19.6c-1.3-2.3-1.3-5,0-7.3l11.3-19.6c1.3-2.3,3.7-3.7,6.3-3.7h22.6c2.6,0,5,1.4,6.3,3.7l11.3,19.6
			c1.3,2.3,1.3,5,0,7.3L168,212.4C166.7,214.6,164.3,216,161.7,216z"/>
		<path d="M278.2,161.2h-21.1c-3.8,0-7.4,2-9.3,5.4l-10.6,18.3c-1.9,3.3-1.9,7.4,0,10.8l10.6,18.3c1.9,3.3,5.5,5.4,9.3,5.4h21.1
			c3.8,0,7.4-2,9.3-5.4l10.6-18.3c1.9-3.3,1.9-7.4,0-10.8l-10.6-18.3C285.6,163.2,282.1,161.2,278.2,161.2z M276.2,214.9h-17.1
			c-3.5,0-6.8-1.9-8.6-4.9l-8.6-14.9c-1.8-3.1-1.8-6.8,0-9.9l8.6-14.9c1.8-3.1,5-4.9,8.6-4.9h17.1c3.5,0,6.8,1.9,8.6,4.9l8.6,14.9
			c1.8,3.1,1.8,6.8,0,9.9l-8.6,14.9C283,213.1,279.8,214.9,276.2,214.9z"/>
		<path d="M281,225.7h-26.6c-2.1,0-4.1,1.1-5.2,3l-13.3,23.1c-1.1,1.8-1.1,4.1,0,6l13.3,23.1c1.1,1.8,3,3,5.2,3H281
			c2.1,0,4.1-1.1,5.2-3l13.3-23.1c1.1-1.8,1.1-4.1,0-6l-13.3-23.1C285.1,226.8,283.1,225.7,281,225.7z M279.7,281.6h-24.2
			c-2.1,0-4.1-1.1-5.2-3l-12.1-20.9c-1.1-1.8-1.1-4.1,0-6l12.1-20.9c1.1-1.8,3-3,5.2-3h24.2c2.1,0,4.1,1.1,5.2,3l12.1,20.9
			c1.1,1.8,1.1,4.1,0,6l-12.1,20.9C283.8,280.5,281.9,281.6,279.7,281.6z"/>
		<path d="M238.9,151.1l-12.6-21.9c-1.3-2.2-3.7-3.6-6.2-3.6h-4h-21.2h-8.4c-3.4,0-6.4,1.8-8,4.8l-7.1,12.9
			c-1.3,2.4-3.8,3.9-6.6,3.9h-53v2.2h53c3.5,0,6.7-1.9,8.4-5l7.1-12.9c1.2-2.2,3.6-3.6,6.2-3.6h3.3c-0.4,0.4-0.8,0.9-1.1,1.4
			L176,151.1c-1.3,2.2-1.3,5,0,7.2l12.6,21.9c1.3,2.2,3.7,3.6,6.2,3.6H220c2.6,0,4.9-1.4,6.2-3.6l12.6-21.9
			C240.2,156.1,240.2,153.3,238.9,151.1z"/>
		<path d="M240.6,183.2l-1.9-1.1l17.2-30.6c1.5-2.7,4.3-4.3,7.4-4.3h54.8v2.2h-54.8c-2.3,0-4.4,1.2-5.5,3.2L240.6,183.2z"/>
		<path d="M291.2,290.8l-1.9-1.1l13.7-23.6c1.7-3,4.9-4.9,8.4-4.9h75.7v2.2h-75.7c-2.7,0-5.2,1.5-6.5,3.8L291.2,290.8z"/>
		<path d="M298.7,215.5l-1.9-1.1l11.3-19.9c1.2-2,3.3-3.3,5.7-3.3h42v2.2h-42c-1.6,0-3,0.8-3.8,2.2L298.7,215.5z"/>
	</g>
	<g>
		<g>
			<path d="M264.5,337h-3.4v-1.6h5.4v14.5h3.4v1.7h-9.2v-1.7h3.8V337z"/>
			<path d="M283.3,345.2c0,0.3,0,0.5,0,0.7c0,0.2,0,0.4,0,0.5h-8.1c0,1.2,0.3,2.1,1,2.7c0.7,0.6,1.6,0.9,2.8,0.9c0.3,0,0.7,0,1,0
				c0.3,0,0.7-0.1,1-0.1c0.3,0,0.6-0.1,0.9-0.2c0.3-0.1,0.6-0.1,0.8-0.2v1.6c-0.5,0.2-1.2,0.3-1.8,0.4c-0.7,0.1-1.4,0.1-2.1,0.1
				c-1,0-1.8-0.1-2.5-0.4c-0.7-0.3-1.3-0.7-1.7-1.2c-0.5-0.5-0.8-1.1-1-1.9c-0.2-0.7-0.3-1.6-0.3-2.5c0-0.8,0.1-1.6,0.3-2.3
				c0.2-0.7,0.6-1.4,1-1.9c0.4-0.5,1-1,1.6-1.3c0.6-0.3,1.4-0.5,2.2-0.5c0.8,0,1.5,0.1,2.1,0.4c0.6,0.3,1.1,0.6,1.6,1.1
				c0.4,0.5,0.7,1,1,1.7C283.1,343.7,283.3,344.4,283.3,345.2z M281.2,344.9c0-0.5,0-1-0.1-1.4c-0.1-0.4-0.3-0.8-0.6-1.1
				c-0.3-0.3-0.6-0.5-1-0.7c-0.4-0.2-0.8-0.3-1.3-0.3c-0.4,0-0.8,0.1-1.2,0.3c-0.4,0.2-0.7,0.4-0.9,0.7c-0.3,0.3-0.5,0.7-0.6,1.1
				c-0.2,0.4-0.3,0.9-0.3,1.4H281.2z"/>
			<path d="M296.8,351.6h-2.7l-5.4-6.2v6.2h-2v-16.2h2v10l5.2-5.3h2.6l-5.4,5.3L296.8,351.6z"/>
			<path d="M308.3,351.2c-0.5,0.2-1.1,0.3-1.6,0.4c-0.5,0.1-1.1,0.1-1.7,0.1c-1.8,0-3.2-0.5-4.2-1.5c-1-1-1.5-2.4-1.5-4.3
				c0-0.9,0.1-1.7,0.4-2.5c0.3-0.7,0.7-1.4,1.2-1.9c0.5-0.5,1.1-0.9,1.8-1.2c0.7-0.3,1.5-0.4,2.4-0.4c0.6,0,1.2,0,1.7,0.1
				c0.5,0.1,1,0.2,1.5,0.4v1.9c-0.5-0.3-1-0.4-1.5-0.6c-0.5-0.1-1-0.2-1.6-0.2c-0.5,0-1,0.1-1.5,0.3c-0.5,0.2-0.9,0.5-1.2,0.8
				c-0.3,0.4-0.6,0.8-0.8,1.3c-0.2,0.5-0.3,1.1-0.3,1.8c0,1.4,0.3,2.4,1,3.1c0.7,0.7,1.6,1,2.8,1c0.5,0,1.1-0.1,1.6-0.2
				c0.5-0.1,1-0.3,1.5-0.6V351.2z"/>
			<path d="M320.1,340.1v11.3c0,0.8-0.1,1.5-0.3,2.1c-0.2,0.6-0.6,1.1-1,1.6c-0.4,0.4-1,0.8-1.6,1c-0.6,0.2-1.3,0.3-2.1,0.3
				c-0.6,0-1.1-0.1-1.7-0.2c-0.5-0.1-1-0.2-1.5-0.4v-1.9c0.2,0.1,0.5,0.2,0.8,0.3c0.3,0.1,0.6,0.2,0.8,0.3c0.3,0.1,0.6,0.1,0.9,0.2
				c0.3,0,0.6,0.1,0.8,0.1c0.9,0,1.6-0.3,2.1-0.8c0.5-0.6,0.7-1.4,0.7-2.4v-9.7h-5.6v-1.7H320.1z M318.9,335.2c0.2,0,0.4,0,0.6,0.1
				c0.2,0.1,0.4,0.2,0.5,0.3c0.1,0.1,0.3,0.3,0.3,0.5c0.1,0.2,0.1,0.4,0.1,0.6c0,0.2,0,0.4-0.1,0.6c-0.1,0.2-0.2,0.4-0.3,0.5
				c-0.1,0.1-0.3,0.3-0.5,0.3c-0.2,0.1-0.4,0.1-0.6,0.1c-0.2,0-0.4,0-0.6-0.1c-0.2-0.1-0.4-0.2-0.5-0.3c-0.1-0.1-0.3-0.3-0.3-0.5
				c-0.1-0.2-0.1-0.4-0.1-0.6c0-0.2,0-0.4,0.1-0.6c0.1-0.2,0.2-0.4,0.3-0.5c0.1-0.1,0.3-0.3,0.5-0.3
				C318.4,335.3,318.6,335.2,318.9,335.2z"/>
			<path d="M332.6,351.6l0-1.5c-0.6,0.6-1.3,1.1-1.9,1.3c-0.6,0.3-1.3,0.4-2,0.4c-0.7,0-1.2-0.1-1.7-0.3c-0.5-0.2-0.9-0.4-1.2-0.7
				c-0.3-0.3-0.5-0.6-0.7-1c-0.1-0.4-0.2-0.8-0.2-1.3c0-1.2,0.4-2.1,1.3-2.7c0.9-0.7,2.1-1,3.8-1h2.4v-1c0-0.7-0.2-1.2-0.7-1.6
				c-0.4-0.4-1.1-0.6-2-0.6c-0.7,0-1.3,0.1-1.9,0.2c-0.6,0.1-1.3,0.4-2,0.6v-1.8c0.3-0.1,0.5-0.2,0.8-0.3c0.3-0.1,0.6-0.2,1-0.2
				c0.3-0.1,0.7-0.1,1.1-0.2c0.4,0,0.8-0.1,1.1-0.1c0.7,0,1.3,0.1,1.9,0.2c0.6,0.2,1,0.4,1.4,0.7c0.4,0.3,0.7,0.7,0.9,1.2
				c0.2,0.5,0.3,1,0.3,1.7v7.9H332.6z M332.4,346.3h-2.5c-0.5,0-0.9,0-1.3,0.1c-0.4,0.1-0.7,0.2-0.9,0.4c-0.2,0.2-0.4,0.4-0.5,0.7
				c-0.1,0.3-0.2,0.5-0.2,0.9c0,0.2,0,0.4,0.1,0.6c0.1,0.2,0.2,0.4,0.3,0.5c0.2,0.2,0.4,0.3,0.6,0.4c0.2,0.1,0.5,0.1,0.9,0.1
				c0.5,0,1-0.1,1.6-0.4c0.6-0.3,1.2-0.7,1.9-1.3V346.3z"/>
		</g>
		<g>
			<path d="M165.9,385.3c-1.3,0.5-2.6,0.8-3.9,1.1c-1.3,0.2-2.7,0.4-4.1,0.4c-4.5,0-7.9-1.2-10.3-3.6c-2.4-2.4-3.6-5.9-3.6-10.6
				c0-2.2,0.3-4.2,1-6.1c0.7-1.8,1.7-3.4,2.9-4.7c1.3-1.3,2.8-2.3,4.5-3c1.7-0.7,3.7-1.1,5.8-1.1c1.5,0,2.8,0.1,4.1,0.3
				c1.3,0.2,2.5,0.5,3.6,1v4.7c-1.2-0.6-2.5-1.1-3.7-1.4c-1.3-0.3-2.6-0.4-3.9-0.4c-1.3,0-2.4,0.2-3.5,0.7c-1.1,0.5-2.1,1.2-2.9,2.1
				c-0.8,0.9-1.5,2-2,3.3c-0.5,1.3-0.7,2.8-0.7,4.4c0,3.4,0.8,6,2.5,7.6c1.7,1.7,4,2.5,6.9,2.5c1.3,0,2.6-0.1,3.9-0.4
				c1.2-0.3,2.4-0.7,3.6-1.3V385.3z"/>
			<path d="M200.7,358.2l-9.6,25.2c-1,2.6-2,4.8-3.1,6.6c-1.1,1.9-2.2,3.4-3.5,4.6c-1.3,1.2-2.6,2.1-4.1,2.6c-1.5,0.6-3.2,0.8-5,0.8
				c-0.5,0-0.9,0-1.3,0c-0.4,0-0.8,0-1.3-0.1v-4.4c0.4,0.1,0.9,0.1,1.3,0.2c0.5,0,1,0.1,1.5,0.1c0.9,0,1.7-0.1,2.5-0.4
				c0.8-0.3,1.5-0.7,2.2-1.3c0.7-0.6,1.4-1.4,2-2.3c0.6-0.9,1.3-2.1,1.9-3.4L173,358.2h5.6l7.1,18.6l1.4,4.4l1.6-4.5l6.6-18.5H200.7
				z"/>
			<path d="M232.2,351.2c-2.6-0.5-4.8-0.8-6.6-0.8c-4.4,0-6.6,2.3-6.6,6.9v4.9h12.3v4.1H219v20h-5v-20h-9.1v-4.1h9.1v-4.7
				c0-7.5,3.9-11.3,11.7-11.3c1.9,0,4.1,0.2,6.5,0.7V351.2z"/>
			<path d="M239.9,358.2h4.5l0.1,5.2c1.7-2,3.3-3.5,4.9-4.3c1.6-0.9,3.3-1.3,4.9-1.3c2.9,0,5.1,0.9,6.6,2.8c1.5,1.9,2.2,4.7,2.1,8.4
				h-4.9c0.1-2.5-0.3-4.3-1.1-5.4c-0.8-1.1-1.9-1.7-3.4-1.7c-0.7,0-1.3,0.1-2,0.4c-0.7,0.2-1.3,0.6-2,1.1c-0.7,0.5-1.4,1.2-2.2,2
				c-0.8,0.8-1.6,1.8-2.5,2.9v18.1h-4.9V358.2z"/>
			<path d="M294.9,372c0,2.2-0.3,4.2-0.9,6s-1.5,3.4-2.7,4.7c-1.2,1.3-2.6,2.3-4.2,3c-1.7,0.7-3.6,1.1-5.7,1.1c-2,0-3.8-0.3-5.4-0.9
				c-1.6-0.6-3-1.5-4.1-2.8c-1.1-1.2-2-2.7-2.6-4.5c-0.6-1.8-0.9-3.9-0.9-6.2c0-2.2,0.3-4.2,0.9-6c0.6-1.8,1.5-3.4,2.7-4.7
				c1.2-1.3,2.6-2.3,4.2-3c1.7-0.7,3.6-1.1,5.7-1.1c2,0,3.8,0.3,5.4,0.9c1.6,0.6,3,1.5,4.1,2.7c1.1,1.2,2,2.7,2.6,4.5
				C294.6,367.6,294.9,369.7,294.9,372z M289.9,372.2c0-1.7-0.2-3.3-0.6-4.6c-0.4-1.3-0.9-2.4-1.6-3.3c-0.7-0.9-1.6-1.5-2.6-2
				c-1-0.4-2.2-0.7-3.4-0.7c-1.5,0-2.7,0.3-3.7,0.9c-1,0.6-1.9,1.3-2.6,2.3c-0.7,1-1.2,2.1-1.5,3.3c-0.3,1.3-0.5,2.6-0.5,4
				c0,1.7,0.2,3.3,0.6,4.6c0.4,1.3,0.9,2.4,1.6,3.3c0.7,0.9,1.6,1.5,2.6,2c1,0.4,2.2,0.7,3.4,0.7c1.5,0,2.7-0.3,3.7-0.9
				c1-0.6,1.9-1.3,2.6-2.3c0.7-1,1.2-2.1,1.5-3.3C289.8,375,289.9,373.6,289.9,372.2z"/>
			<path d="M328.1,358.2l-4.1,28.2h-5.9l-4.1-11.8l-0.8-2.9l-0.9,3l-3.9,11.6h-5.8l-4.1-28.2h4.8l2.4,19.1l0.5,4.3l1.2-3.7l4.1-12.7
				h3.5l4.4,12.5l1.3,3.7l0.4-4l2.2-19.3H328.1z"/>
			<path d="M351.7,386.3l-0.1-3.8c-1.5,1.5-3.1,2.6-4.7,3.3c-1.6,0.7-3.2,1-5,1c-1.6,0-3-0.2-4.1-0.6c-1.1-0.4-2.1-1-2.8-1.7
				c-0.7-0.7-1.3-1.6-1.6-2.5c-0.3-1-0.5-2-0.5-3.2c0-2.8,1.1-5,3.2-6.6c2.1-1.6,5.2-2.4,9.3-2.4h5.8v-2.5c0-1.7-0.5-3-1.6-4
				c-1.1-1-2.7-1.5-4.9-1.5c-1.6,0-3.2,0.2-4.7,0.5c-1.5,0.4-3.1,0.9-4.8,1.5v-4.4c0.6-0.2,1.3-0.4,2.1-0.7c0.8-0.2,1.6-0.4,2.4-0.6
				c0.8-0.2,1.7-0.3,2.6-0.4c0.9-0.1,1.8-0.2,2.8-0.2c1.7,0,3.2,0.2,4.6,0.6c1.4,0.4,2.5,0.9,3.5,1.7c0.9,0.8,1.7,1.7,2.2,2.9
				c0.5,1.2,0.8,2.5,0.8,4.1v19.4H351.7z M351.1,373.5h-6.2c-1.2,0-2.3,0.1-3.1,0.4c-0.9,0.2-1.6,0.6-2.2,1c-0.6,0.4-1,1-1.2,1.6
				c-0.3,0.6-0.4,1.3-0.4,2.1c0,0.5,0.1,1.1,0.3,1.6c0.2,0.5,0.4,0.9,0.8,1.3c0.4,0.4,0.9,0.7,1.5,0.9c0.6,0.2,1.3,0.3,2.2,0.3
				c1.1,0,2.4-0.3,3.9-1c1.4-0.7,3-1.8,4.6-3.2V373.5z"/>
		</g>
	</g>
</g>
<g>
	<g>
		<path d="M-1173.9,261.8h-39.1c-1.9,0-3.7,1-4.6,2.7l-19.6,33.9c-0.9,1.6-0.9,3.7,0,5.3l19.6,33.9c0.9,1.6,2.7,2.7,4.6,2.7h39.1
			c1.9,0,3.7-1,4.6-2.7l19.6-33.9c0.9-1.6,0.9-3.7,0-5.3l-19.6-33.9C-1170.3,262.8-1172,261.8-1173.9,261.8z"/>
		<path d="M-1267.9,343.4h-12.5c-0.5,0-0.9,0.2-1.1,0.6l-6.2,10.8c-0.2,0.4-0.2,0.9,0,1.3l6.2,10.8c0.2,0.4,0.7,0.6,1.1,0.6h12.5
			c0.5,0,0.9-0.2,1.1-0.6l6.2-10.8c0.2-0.4,0.2-0.9,0-1.3l-6.2-10.8C-1267,343.7-1267.4,343.4-1267.9,343.4z"/>
		<path d="M-847.7,343.4h-12.1c-0.6,0-1.1,0.3-1.4,0.8l-6,10.5c-0.3,0.5-0.3,1.1,0,1.6l6,10.5c0.3,0.5,0.8,0.8,1.4,0.8h12.1
			c0.6,0,1.1-0.3,1.4-0.8l6-10.5c0.3-0.5,0.3-1.1,0-1.6l-6-10.5C-846.6,343.7-847.1,343.4-847.7,343.4z"/>
		<path d="M-771.5,432.7h-12.1c-0.6,0-1.1,0.3-1.4,0.8l-6,10.4c-0.3,0.5-0.3,1.1,0,1.6l6,10.4c0.3,0.5,0.8,0.8,1.4,0.8h12.1
			c0.6,0,1.1-0.3,1.4-0.8l6-10.4c0.3-0.5,0.3-1.1,0-1.6l-6-10.4C-770.3,433-770.9,432.7-771.5,432.7z"/>
		<path d="M-1002.4,304.2h-12c-0.6,0-1.2,0.3-1.5,0.9l-6,10.4c-0.3,0.5-0.3,1.2,0,1.7l6,10.4c0.3,0.5,0.9,0.9,1.5,0.9h12
			c0.6,0,1.2-0.3,1.5-0.9l6-10.4c0.3-0.5,0.3-1.2,0-1.7l-6-10.4C-1001.2,304.5-1001.8,304.2-1002.4,304.2z"/>
		<path d="M-714.9,574.3h-12c-0.6,0-1.2,0.3-1.5,0.9l-6,10.4c-0.3,0.5-0.3,1.2,0,1.7l6,10.4c0.3,0.5,0.9,0.9,1.5,0.9h12
			c0.6,0,1.2-0.3,1.5-0.9l6-10.4c0.3-0.5,0.3-1.2,0-1.7l-6-10.4C-713.7,574.6-714.3,574.3-714.9,574.3z"/>
		<path d="M-1041,601.6h-21.6c-1.7,0-3.3,0.9-4.1,2.4l-10.8,18.7c-0.8,1.5-0.8,3.3,0,4.7l10.8,18.7c0.8,1.5,2.4,2.4,4.1,2.4h21.6
			c1.7,0,3.3-0.9,4.1-2.4l10.8-18.7c0.8-1.5,0.8-3.3,0-4.7l-10.8-18.7C-1037.8,602.5-1039.3,601.6-1041,601.6z"/>
		<path d="M-865.9,619h-32.3c-4,0-7.7,2.1-9.7,5.6l-16.2,28c-2,3.5-2,7.7,0,11.2l16.2,28c2,3.5,5.7,5.6,9.7,5.6h32.3
			c4,0,7.7-2.1,9.7-5.6l16.2-28c2-3.5,2-7.7,0-11.2l-16.2-28C-858.2,621.2-861.9,619-865.9,619z"/>
		<path d="M-840.4,538.5l15.2-26.3c2.3-4,2.3-8.9,0-12.9l-15.2-26.3c-2.3-4-6.6-6.5-11.2-6.5H-882c-4.6,0-8.9,2.5-11.2,6.5
			l-15.2,26.3c-2.3,4-2.3,8.9,0,12.9l15.2,26.3c2.3,4,6.6,6.5,11.2,6.5h30.4C-847,545-842.7,542.5-840.4,538.5z M-842.9,477.4
			l12.7,21.9c2.3,4,2.3,8.9,0,12.9l-12.7,21.9c-2.3,4-6.6,6.5-11.2,6.5h-25.3c-4.6,0-8.9-2.5-11.2-6.5l-12.7-21.9
			c-2.3-4-2.3-8.9,0-12.9l12.7-21.9c2.3-4,6.6-6.5,11.2-6.5h25.3C-849.5,470.9-845.2,473.4-842.9,477.4z"/>
		<path d="M-1053.9,309.8h-59.6c-2.6,0-4.9,1.4-6.2,3.6l-29.8,51.6c-1.3,2.2-1.3,5,0,7.2l29.8,51.6c1.3,2.2,3.7,3.6,6.2,3.6h59.6
			c2.6,0,4.9-1.4,6.2-3.6l29.8-51.6c1.3-2.2,1.3-5,0-7.2l-29.8-51.6C-1049,311.1-1051.4,309.8-1053.9,309.8z"/>
		<path d="M-1054.7,447h-58.1c-3,0-5.9,1.6-7.4,4.3l-29,50.3c-1.5,2.6-1.5,5.9,0,8.5l29,50.3c1.5,2.6,4.3,4.3,7.4,4.3h58.1
			c3,0,5.9-1.6,7.4-4.3l29-50.3c1.5-2.6,1.5-5.9,0-8.5l-29-50.3C-1048.8,448.6-1051.7,447-1054.7,447z"/>
		<path d="M-1173.8,379.4h-50.8c-5.3,0-10.2,2.8-12.8,7.4l-25.4,44c-2.6,4.6-2.6,10.2,0,14.8l25.4,44c2.6,4.6,7.5,7.4,12.8,7.4h50.8
			c5.3,0,10.2-2.8,12.8-7.4l25.4-44c2.6-4.6,2.6-10.2,0-14.8l-25.4-44C-1163.6,382.3-1168.5,379.4-1173.8,379.4z M-1176.3,492.7
			h-45.8c-5.3,0-10.2-2.8-12.8-7.4l-22.9-39.6c-2.6-4.6-2.6-10.2,0-14.8l22.9-39.6c2.6-4.6,7.5-7.4,12.8-7.4h45.8
			c5.3,0,10.2,2.8,12.8,7.4l22.9,39.6c2.6,4.6,2.6,10.2,0,14.8l-22.9,39.6C-1166.1,489.9-1171,492.7-1176.3,492.7z"/>
		<path d="M-940.4,381.6h-42.8c-7.8,0-15,4.1-18.9,10.9l-21.4,37c-3.9,6.7-3.9,15,0,21.8l21.4,37c3.9,6.7,11.1,10.9,18.9,10.9h42.8
			c7.8,0,15-4.1,18.9-10.9l21.4-37c3.9-6.7,3.9-15,0-21.8l-21.4-37C-925.4,385.8-932.6,381.6-940.4,381.6z M-944.4,490.5h-34.7
			c-7.2,0-13.8-3.8-17.3-10l-17.4-30.1c-3.6-6.2-3.6-13.8,0-20l17.4-30.1c3.6-6.2,10.2-10,17.3-10h34.7c7.2,0,13.8,3.8,17.3,10
			l17.4,30.1c3.6,6.2,3.6,13.8,0,20l-17.4,30.1C-930.6,486.7-937.2,490.5-944.4,490.5z"/>
		<path d="M-934.8,512.3h-53.9c-4.3,0-8.3,2.3-10.5,6.1l-27,46.7c-2.2,3.7-2.2,8.4,0,12.1l27,46.7c2.2,3.7,6.2,6.1,10.5,6.1h53.9
			c4.3,0,8.3-2.3,10.5-6.1l27-46.7c2.2-3.7,2.2-8.4,0-12.1l-27-46.7C-926.5,514.6-930.5,512.3-934.8,512.3z M-937.3,625.6h-48.9
			c-4.3,0-8.3-2.3-10.5-6.1l-24.5-42.3c-2.2-3.7-2.2-8.4,0-12.1l24.5-42.3c2.2-3.7,6.2-6.1,10.5-6.1h48.9c4.3,0,8.3,2.3,10.5,6.1
			l24.4,42.3c2.2,3.7,2.2,8.4,0,12.1l-24.4,42.3C-929,623.3-933,625.6-937.3,625.6z"/>
		<path d="M-1170.2,357.7h-107.4v-4.4h107.4c5.5,0,10.6-3,13.3-7.8l14.3-26.1c3.3-5.9,9.5-9.6,16.3-9.6h60v4.4h-60
			c-5.2,0-10,2.8-12.5,7.4l-14.3,26.1C-1156.5,353.8-1163.1,357.7-1170.2,357.7z"/>
		<path d="M-1016.5,426.3l-3.8-2.1l34.9-62c3.1-5.4,8.8-8.8,15-8.8h111v4.4h-111c-4.6,0-8.9,2.5-11.2,6.5L-1016.5,426.3z"/>
		<path d="M-914.1,644.1l-3.8-2.2l27.7-47.9c3.5-6.1,10-9.9,17-9.9H-720v4.4h-153.2c-5.5,0-10.5,2.9-13.2,7.7L-914.1,644.1z"/>
		<path d="M-898.9,491.6l-3.8-2.2l23-40.2c2.3-4.1,6.7-6.6,11.4-6.6h85.1v4.4h-85.1c-3.2,0-6.1,1.7-7.7,4.4L-898.9,491.6z"/>
	</g>
	<g>
		<g>
			<path d="M-968.1,737.7h-6.9v-3.3h11v29.4h6.9v3.4h-18.7v-3.4h7.7V737.7z"/>
			<path d="M-930.2,754.3c0,0.6,0,1.1,0,1.4c0,0.4,0,0.8-0.1,1.1h-16.4c0,2.4,0.7,4.2,2,5.5c1.3,1.3,3.3,1.9,5.8,1.9
				c0.7,0,1.4,0,2-0.1c0.7-0.1,1.3-0.1,2-0.2c0.6-0.1,1.2-0.2,1.8-0.3c0.6-0.1,1.1-0.2,1.6-0.4v3.3c-1.1,0.3-2.3,0.6-3.7,0.8
				c-1.4,0.2-2.8,0.3-4.3,0.3c-2,0-3.7-0.3-5.2-0.8c-1.4-0.5-2.6-1.3-3.5-2.4c-0.9-1-1.6-2.3-2-3.8c-0.4-1.5-0.7-3.2-0.7-5.1
				c0-1.6,0.2-3.2,0.7-4.7c0.5-1.5,1.2-2.7,2.1-3.9c0.9-1.1,2-2,3.3-2.6c1.3-0.7,2.8-1,4.5-1c1.6,0,3.1,0.3,4.3,0.8
				c1.3,0.5,2.3,1.2,3.2,2.2c0.9,0.9,1.5,2.1,2,3.4C-930.4,751.1-930.2,752.6-930.2,754.3z M-934.4,753.7c0-1-0.1-2-0.3-2.8
				c-0.2-0.9-0.6-1.6-1.1-2.2c-0.5-0.6-1.2-1.1-1.9-1.5c-0.8-0.3-1.7-0.5-2.7-0.5c-0.9,0-1.7,0.2-2.4,0.5c-0.7,0.3-1.4,0.8-1.9,1.4
				c-0.5,0.6-1,1.4-1.3,2.2c-0.3,0.9-0.5,1.8-0.6,2.9H-934.4z"/>
			<path d="M-902.8,767.2h-5.6l-10.9-12.5v12.5h-4v-32.8h4v20.2l10.5-10.7h5.3l-10.9,10.8L-902.8,767.2z"/>
			<path d="M-879.5,766.3c-1.1,0.4-2.1,0.7-3.2,0.9c-1.1,0.2-2.2,0.3-3.4,0.3c-3.7,0-6.5-1-8.5-3c-2-2-3-4.9-3-8.8
				c0-1.8,0.3-3.5,0.9-5c0.6-1.5,1.4-2.8,2.4-3.9c1-1.1,2.3-1.9,3.7-2.5c1.4-0.6,3-0.9,4.8-0.9c1.2,0,2.3,0.1,3.4,0.3
				c1.1,0.2,2.1,0.4,3,0.8v3.9c-1-0.5-2-0.9-3.1-1.1c-1-0.2-2.1-0.4-3.2-0.4c-1,0-2,0.2-2.9,0.6s-1.7,1-2.4,1.7
				c-0.7,0.7-1.2,1.6-1.6,2.7c-0.4,1.1-0.6,2.3-0.6,3.6c0,2.8,0.7,4.9,2.1,6.3s3.3,2.1,5.7,2.1c1.1,0,2.2-0.1,3.2-0.4
				c1-0.2,2-0.6,3-1.1V766.3z"/>
			<path d="M-855.7,743.9v22.9c0,1.6-0.2,3.1-0.7,4.3c-0.5,1.3-1.1,2.3-2,3.2c-0.9,0.9-1.9,1.5-3.2,2c-1.3,0.4-2.7,0.7-4.3,0.7
				c-1.1,0-2.3-0.1-3.4-0.3c-1.1-0.2-2.1-0.5-3-0.9v-3.9c0.5,0.2,1,0.5,1.5,0.7c0.5,0.2,1.1,0.4,1.7,0.5c0.6,0.1,1.2,0.2,1.8,0.3
				c0.6,0.1,1.2,0.1,1.7,0.1c1.8,0,3.2-0.6,4.2-1.7c1-1.1,1.5-2.8,1.5-4.9v-19.7h-11.4v-3.3H-855.7z M-858.1,734.1
				c0.4,0,0.9,0.1,1.3,0.2c0.4,0.2,0.7,0.4,1,0.7c0.3,0.3,0.5,0.6,0.7,1s0.2,0.8,0.2,1.2c0,0.4-0.1,0.9-0.2,1.2s-0.4,0.7-0.7,1
				c-0.3,0.3-0.6,0.5-1,0.7c-0.4,0.2-0.8,0.2-1.3,0.2s-0.9-0.1-1.3-0.2c-0.4-0.2-0.7-0.4-1-0.7c-0.3-0.3-0.5-0.6-0.7-1
				s-0.2-0.8-0.2-1.2c0-0.4,0.1-0.8,0.2-1.2s0.4-0.7,0.7-1c0.3-0.3,0.6-0.5,1-0.7C-859,734.2-858.5,734.1-858.1,734.1z"/>
			<path d="M-830.3,767.2l-0.1-3.1c-1.3,1.3-2.6,2.2-3.9,2.7c-1.3,0.6-2.7,0.8-4.1,0.8c-1.3,0-2.5-0.2-3.4-0.5
				c-0.9-0.3-1.7-0.8-2.3-1.4c-0.6-0.6-1.1-1.3-1.3-2.1s-0.4-1.7-0.4-2.6c0-2.3,0.9-4.2,2.6-5.5c1.7-1.3,4.3-2,7.7-2h4.8v-2
				c0-1.4-0.4-2.5-1.3-3.3c-0.9-0.8-2.2-1.2-4-1.2c-1.3,0-2.6,0.1-3.9,0.4c-1.3,0.3-2.6,0.7-4,1.3v-3.6c0.5-0.2,1.1-0.4,1.7-0.5
				c0.6-0.2,1.3-0.3,2-0.5c0.7-0.1,1.4-0.3,2.2-0.3c0.8-0.1,1.5-0.1,2.3-0.1c1.4,0,2.7,0.2,3.8,0.5c1.1,0.3,2.1,0.8,2.9,1.4
				c0.8,0.6,1.4,1.4,1.8,2.4c0.4,1,0.6,2.1,0.6,3.4v16.1H-830.3z M-830.8,756.6h-5.1c-1,0-1.9,0.1-2.6,0.3c-0.7,0.2-1.3,0.5-1.8,0.9
				c-0.5,0.4-0.8,0.8-1,1.3c-0.2,0.5-0.3,1.1-0.3,1.8c0,0.4,0.1,0.9,0.2,1.3c0.1,0.4,0.4,0.8,0.7,1.1c0.3,0.3,0.7,0.6,1.2,0.8
				c0.5,0.2,1.1,0.3,1.8,0.3c0.9,0,2-0.3,3.2-0.8c1.2-0.6,2.5-1.5,3.8-2.7V756.6z"/>
		</g>
		<g>
			<path d="M-1167.8,835.4c-2.6,1-5.2,1.7-7.9,2.2c-2.7,0.5-5.5,0.7-8.4,0.7c-9,0-16-2.4-20.8-7.3c-4.9-4.9-7.3-12-7.3-21.4
				c0-4.5,0.7-8.6,2.1-12.3c1.4-3.7,3.4-6.8,5.9-9.4c2.5-2.6,5.6-4.6,9.1-6.1c3.5-1.4,7.4-2.1,11.6-2.1c3,0,5.7,0.2,8.3,0.6
				c2.6,0.4,5,1.1,7.4,2v9.4c-2.5-1.3-5-2.2-7.5-2.8c-2.6-0.6-5.2-0.9-7.9-0.9c-2.5,0-4.9,0.5-7.2,1.4c-2.3,1-4.2,2.4-5.9,4.2
				s-3,4-4,6.6c-1,2.6-1.5,5.6-1.5,8.9c0,6.9,1.7,12.1,5,15.5c3.4,3.4,8,5.1,13.9,5.1c2.7,0,5.3-0.3,7.8-0.9c2.5-0.6,5-1.5,7.3-2.7
				V835.4z"/>
			<path d="M-1097.4,780.5l-19.4,51c-2,5.2-4.1,9.7-6.2,13.4c-2.1,3.8-4.5,6.8-7,9.2c-2.5,2.4-5.3,4.2-8.4,5.3
				c-3,1.1-6.4,1.7-10.2,1.7c-1,0-1.9,0-2.7-0.1c-0.8,0-1.7-0.1-2.6-0.2v-9c0.8,0.1,1.7,0.2,2.7,0.3c1,0.1,2,0.1,3.1,0.1
				c1.8,0,3.5-0.3,5.1-0.8c1.6-0.5,3.1-1.4,4.5-2.6c1.4-1.2,2.7-2.7,4-4.6c1.3-1.9,2.5-4.2,3.8-6.9l-22.8-57h11.2l14.4,37.7l2.9,8.9
				l3.3-9.1l13.4-37.5H-1097.4z"/>
			<path d="M-1033.6,766.5c-5.2-1.1-9.7-1.6-13.4-1.6c-8.9,0-13.4,4.7-13.4,14v10h25v8.2h-25v40.5h-10.1V797h-18.4v-8.2h18.4v-9.4
				c0-15.2,7.9-22.8,23.7-22.8c3.9,0,8.3,0.5,13.1,1.4V766.5z"/>
			<path d="M-1017.9,780.5h9l0.3,10.5c3.4-4.1,6.7-7,10-8.8c3.3-1.8,6.6-2.7,9.9-2.7c5.9,0,10.4,1.9,13.4,5.7c3,3.8,4.5,9.5,4.2,17
				h-10c0.1-5-0.6-8.6-2.2-10.9c-1.6-2.3-3.9-3.4-6.9-3.4c-1.3,0-2.7,0.2-4,0.7c-1.3,0.5-2.7,1.2-4.1,2.3c-1.4,1-2.9,2.4-4.5,4
				c-1.6,1.6-3.3,3.6-5.1,5.9v36.6h-10V780.5z"/>
			<path d="M-906.6,808.6c0,4.4-0.6,8.5-1.9,12.2c-1.3,3.7-3,6.9-5.4,9.5c-2.3,2.6-5.2,4.7-8.6,6.1c-3.4,1.5-7.2,2.2-11.5,2.2
				c-4.1,0-7.8-0.6-11-1.9c-3.2-1.3-6-3.1-8.2-5.6c-2.3-2.5-4-5.5-5.2-9.1c-1.2-3.6-1.8-7.8-1.8-12.6c0-4.4,0.6-8.5,1.9-12.1
				c1.3-3.7,3-6.8,5.4-9.4c2.3-2.6,5.2-4.7,8.6-6.1c3.4-1.5,7.2-2.2,11.5-2.2c4.1,0,7.8,0.6,11,1.9c3.2,1.3,6,3.1,8.2,5.6
				c2.3,2.4,4,5.5,5.2,9.1C-907.2,799.7-906.6,803.9-906.6,808.6z M-916.7,809c0-3.5-0.4-6.6-1.2-9.2c-0.8-2.6-1.9-4.8-3.3-6.6
				c-1.4-1.8-3.2-3.1-5.3-4c-2.1-0.9-4.4-1.3-6.9-1.3c-3,0-5.5,0.6-7.6,1.7c-2.1,1.2-3.8,2.7-5.2,4.6c-1.3,1.9-2.3,4.2-3,6.7
				c-0.6,2.6-0.9,5.2-0.9,8c0,3.5,0.4,6.6,1.2,9.3c0.8,2.7,1.9,4.9,3.3,6.6c1.4,1.8,3.2,3.1,5.2,4c2,0.9,4.4,1.3,6.9,1.3
				c3,0,5.5-0.6,7.6-1.7c2.1-1.2,3.8-2.7,5.2-4.6c1.3-1.9,2.3-4.2,3-6.7C-917,814.5-916.7,811.8-916.7,809z"/>
			<path d="M-839.4,780.5l-8.3,57h-12l-8.2-23.9l-1.6-5.8l-1.9,6.1l-7.9,23.5H-891l-8.2-57h9.7l4.8,38.7l1,8.6l2.4-7.6l8.3-25.6h7.1
				l8.9,25.3l2.6,7.6l0.9-8l4.4-39H-839.4z"/>
			<path d="M-791.6,837.5l-0.2-7.7c-3.1,3.1-6.3,5.3-9.5,6.6c-3.2,1.4-6.6,2-10.1,2c-3.3,0-6-0.4-8.4-1.2c-2.3-0.8-4.2-2-5.7-3.4
				c-1.5-1.5-2.6-3.2-3.3-5.1c-0.7-2-1.1-4.1-1.1-6.4c0-5.7,2.1-10.2,6.4-13.4c4.3-3.2,10.6-4.9,18.9-4.9h11.8v-5
				c0-3.4-1.1-6.1-3.2-8.1c-2.2-2-5.5-3-9.9-3c-3.2,0-6.4,0.4-9.5,1.1c-3.1,0.7-6.4,1.7-9.7,3.1v-8.9c1.3-0.5,2.6-0.9,4.2-1.3
				c1.5-0.4,3.2-0.8,4.9-1.2c1.7-0.3,3.5-0.6,5.3-0.8c1.9-0.2,3.7-0.3,5.6-0.3c3.4,0,6.6,0.4,9.3,1.1c2.8,0.8,5.1,1.9,7,3.5
				c1.9,1.6,3.4,3.5,4.4,5.9c1,2.3,1.5,5.1,1.5,8.3v39.3H-791.6z M-792.7,811.6h-12.6c-2.5,0-4.6,0.2-6.4,0.7
				c-1.8,0.5-3.2,1.2-4.4,2.1c-1.1,0.9-2,2-2.5,3.3c-0.5,1.3-0.8,2.7-0.8,4.3c0,1.1,0.2,2.2,0.5,3.2c0.3,1,0.9,1.9,1.6,2.7
				c0.8,0.8,1.7,1.4,3,1.8c1.2,0.5,2.7,0.7,4.4,0.7c2.3,0,4.9-0.7,7.8-2.1c2.9-1.4,6-3.6,9.3-6.6V811.6z"/>
		</g>
	</g>
</g>
</svg>
