<?xml version="1.0" encoding="utf-8"?>
<!-- Generator: Adobe Illustrator 16.0.0, SVG Export Plug-In . SVG Version: 6.00 Build 0)  -->
<!DOCTYPE svg PUBLIC "-//W3C//DTD SVG 1.0//EN" "http://www.w3.org/TR/2001/REC-SVG-20010904/DTD/svg10.dtd">
<svg version="1.0" id="Layer_1" xmlns="http://www.w3.org/2000/svg" xmlns:xlink="http://www.w3.org/1999/xlink" x="0px" y="0px"
	 width="69.606px" height="37px" viewBox="0 0 69.606 37" enable-background="new 0 0 69.606 37" xml:space="preserve">
<g id="Layer_2" display="none">
	
		<text transform="matrix(1 0 0 1 38.6768 16.9883)" display="inline" fill="#242143" font-family="'Neutraface2Display-Medium'" font-size="7.8509">centrálne úložisko</text>
	
		<text transform="matrix(1 0 0 1 38.6768 25.4932)" display="inline" fill="#242143" font-family="'Neutraface2Display-Medium'" font-size="7.8509">Digitálneho edukačného obsahu</text>
</g>
<g>
	<g>
		<path fill="#752F8A" d="M20.829,11.969c0.031-0.027,0.037-0.061,0.039-0.078c0.003-0.031-0.007-0.061-0.028-0.086
			c-0.024-0.027-0.057-0.042-0.091-0.042c-0.019,0-0.046,0.005-0.073,0.026c-0.048,0.042-0.053,0.115-0.01,0.164
			C20.701,11.994,20.756,12.031,20.829,11.969"/>
		<path fill="#752F8A" d="M26.128,14.099c0.035,0.042,0.09,0.078,0.163,0.015c0.031-0.027,0.039-0.06,0.04-0.078
			c0.003-0.031-0.008-0.061-0.028-0.086c-0.022-0.027-0.056-0.042-0.091-0.042c-0.018,0-0.047,0.005-0.073,0.027
			C26.092,13.976,26.087,14.049,26.128,14.099"/>
		<path fill="#752F8A" d="M24.629,14.79c0.031-0.027,0.037-0.06,0.039-0.078c0.002-0.032-0.007-0.062-0.028-0.086
			c-0.023-0.027-0.056-0.042-0.091-0.042c-0.02,0-0.046,0.004-0.073,0.027c-0.048,0.041-0.054,0.114-0.011,0.164
			C24.501,14.815,24.556,14.852,24.629,14.79"/>
		<path fill="#752F8A" d="M18.396,10.695c0.031-0.026,0.037-0.061,0.039-0.078c0.002-0.031-0.007-0.062-0.028-0.086
			c-0.024-0.027-0.057-0.042-0.092-0.042c-0.018,0-0.046,0.005-0.072,0.026c-0.048,0.042-0.053,0.115-0.01,0.165
			C18.268,10.72,18.323,10.757,18.396,10.695"/>
		<path fill="#752F8A" d="M27.924,14.812c0.032-0.027,0.039-0.061,0.039-0.078c0.002-0.032-0.007-0.061-0.028-0.086
			c-0.023-0.027-0.056-0.042-0.091-0.042c-0.019,0-0.046,0.004-0.072,0.026c-0.047,0.042-0.052,0.115-0.011,0.164
			C27.796,14.836,27.851,14.872,27.924,14.812"/>
		<path fill="#752F8A" d="M24.177,10.479c0.032-0.027,0.038-0.061,0.039-0.078c0.002-0.032-0.007-0.062-0.028-0.086
			c-0.023-0.027-0.056-0.042-0.091-0.042c-0.019,0-0.046,0.004-0.072,0.027c-0.047,0.041-0.052,0.114-0.011,0.164
			C24.049,10.505,24.104,10.542,24.177,10.479"/>
		<path fill="#752F8A" d="M14.23,10.602c0.031-0.027,0.037-0.06,0.039-0.078c0.002-0.032-0.007-0.062-0.028-0.085
			c-0.023-0.028-0.056-0.042-0.091-0.042c-0.019,0-0.046,0.004-0.073,0.026c-0.048,0.042-0.053,0.115-0.01,0.164
			C14.103,10.626,14.157,10.663,14.23,10.602"/>
		<path fill="#752F8A" d="M20.564,16.606c0.031-0.026,0.038-0.061,0.039-0.078c0.003-0.031-0.007-0.062-0.028-0.086
			c-0.023-0.027-0.057-0.042-0.091-0.042c-0.018,0-0.046,0.005-0.073,0.026c-0.047,0.042-0.052,0.115-0.01,0.165
			C20.437,16.631,20.491,16.667,20.564,16.606"/>
		<path fill="#752F8A" d="M29.163,17.017c0.031-0.027,0.037-0.061,0.039-0.078c0.002-0.032-0.007-0.062-0.028-0.086
			c-0.023-0.027-0.056-0.042-0.091-0.042c-0.019,0-0.046,0.004-0.072,0.027c-0.048,0.041-0.053,0.114-0.011,0.164
			C29.034,17.042,29.089,17.078,29.163,17.017"/>
		<path fill="#752F8A" d="M22.521,12.492c0.035,0.041,0.089,0.078,0.163,0.015c0.031-0.026,0.037-0.06,0.039-0.077
			c0.002-0.031-0.008-0.062-0.028-0.086c-0.022-0.027-0.056-0.042-0.091-0.042c-0.019,0-0.046,0.005-0.072,0.026
			C22.484,12.37,22.479,12.442,22.521,12.492"/>
		<path fill="#752F8A" d="M30.639,19.677c0.031-0.025,0.038-0.059,0.039-0.077c0.002-0.03-0.008-0.061-0.028-0.086
			c-0.023-0.026-0.056-0.042-0.091-0.042c-0.019,0-0.047,0.005-0.072,0.027c-0.048,0.041-0.053,0.114-0.012,0.164
			C30.51,19.704,30.565,19.74,30.639,19.677"/>
		<path fill="#752F8A" d="M31.003,16.606c0.032-0.026,0.038-0.061,0.039-0.078c0.002-0.031-0.007-0.062-0.027-0.086
			c-0.023-0.027-0.057-0.042-0.092-0.042c-0.018,0-0.046,0.005-0.072,0.026c-0.048,0.042-0.052,0.115-0.011,0.165
			C30.875,16.631,30.93,16.667,31.003,16.606"/>
		<path fill="#752F8A" d="M27.295,18.196c0.031-0.027,0.038-0.06,0.039-0.078c0.002-0.031-0.007-0.061-0.028-0.085
			c-0.023-0.028-0.056-0.042-0.091-0.042c-0.018,0-0.046,0.005-0.072,0.025c-0.047,0.042-0.053,0.115-0.011,0.164
			C27.167,18.221,27.222,18.258,27.295,18.196"/>
		<path fill="#752F8A" d="M22.521,18.458c0.035,0.042,0.089,0.077,0.163,0.016c0.031-0.026,0.037-0.06,0.039-0.078
			c0.002-0.031-0.008-0.062-0.028-0.086c-0.022-0.026-0.056-0.042-0.091-0.042c-0.019,0-0.046,0.005-0.072,0.027
			C22.484,18.336,22.479,18.409,22.521,18.458"/>
		<path fill="#752F8A" d="M21.646,23.192c0.031-0.026,0.038-0.06,0.039-0.077c0.002-0.031-0.007-0.061-0.028-0.086
			c-0.024-0.026-0.056-0.042-0.091-0.042c-0.018,0-0.046,0.004-0.073,0.026c-0.048,0.041-0.053,0.115-0.01,0.164
			C21.519,23.22,21.573,23.256,21.646,23.192"/>
		<path fill="#752F8A" d="M20.431,20.763c0.035,0.041,0.09,0.078,0.163,0.017c0.031-0.026,0.039-0.062,0.04-0.078
			c0.002-0.03-0.008-0.063-0.028-0.086c-0.022-0.027-0.056-0.043-0.09-0.043c-0.019,0-0.047,0.005-0.073,0.027
			C20.395,20.641,20.39,20.714,20.431,20.763"/>
		<path fill="#752F8A" d="M29.839,24.419c0.032-0.027,0.038-0.061,0.039-0.077c0.002-0.032-0.007-0.063-0.028-0.087
			c-0.023-0.027-0.056-0.042-0.091-0.042c-0.018,0-0.046,0.004-0.073,0.026c-0.047,0.041-0.052,0.114-0.01,0.163
			C29.711,24.444,29.766,24.481,29.839,24.419"/>
		<path fill="#752F8A" d="M13.35,16.7c0.031-0.026,0.038-0.06,0.039-0.078c0.002-0.031-0.008-0.061-0.028-0.085
			c-0.023-0.028-0.056-0.042-0.091-0.042c-0.018,0-0.046,0.005-0.072,0.026c-0.048,0.042-0.053,0.115-0.011,0.165
			C13.222,16.726,13.277,16.762,13.35,16.7"/>
		<path fill="#752F8A" d="M16.549,23.014c-0.048,0.041-0.053,0.115-0.011,0.164c0.035,0.042,0.09,0.078,0.164,0.015
			c0.031-0.026,0.039-0.06,0.039-0.077c0.002-0.031-0.007-0.063-0.028-0.086c-0.023-0.026-0.056-0.042-0.091-0.042
			C16.604,22.987,16.575,22.991,16.549,23.014"/>
		<path fill="#752F8A" d="M18.753,2.957c-8.722,0-15.792,7.07-15.792,15.792c0,8.721,7.07,15.792,15.792,15.792
			c8.721,0,15.791-7.071,15.791-15.792C34.543,10.027,27.474,2.957,18.753,2.957 M21.173,27.43c-0.097,0.082-0.221,0.129-0.35,0.129
			c-0.158,0-0.31-0.069-0.414-0.192c-0.182-0.213-0.163-0.523,0.026-0.722c-0.281-0.493-0.631-0.781-0.971-0.782
			c-0.278-0.009-0.503,0.167-0.665,0.462c-0.325,0.596,0.306,2.766,0.544,3.582c0.046,0.16,0.085,0.291,0.108,0.379
			c0.029,0.11-0.037,0.223-0.146,0.252c-0.018,0.005-0.036,0.008-0.053,0.008c-0.092,0-0.174-0.062-0.199-0.154
			c-0.022-0.087-0.059-0.213-0.105-0.369c-0.476-1.635-0.869-3.239-0.511-3.893c0.234-0.432,0.607-0.678,1.023-0.678h0.003
			c0.297,0.002,0.866,0.14,1.355,1.035c0.154,0.002,0.308,0.061,0.409,0.181c0.095,0.109,0.141,0.249,0.129,0.394
			S21.283,27.337,21.173,27.43 M32.424,20.361c-0.091,0-0.176-0.028-0.255-0.07c-1.132,0.876-2.69,1.407-4.039,1.407
			c-0.32,0-0.625-0.03-0.913-0.091c-0.848-0.181-1.478-0.632-1.851-1.292c-0.587-0.008-1.196-0.102-1.825-0.274
			c-0.012,0.43,0.019,0.821,0.091,1.18c0.414,0.522,1.069,0.767,2.01,0.736c0.031-0.076,0.075-0.146,0.142-0.203
			c0.218-0.187,0.576-0.156,0.763,0.063c0.094,0.11,0.14,0.251,0.128,0.394c-0.011,0.146-0.077,0.276-0.188,0.37
			c-0.097,0.083-0.221,0.128-0.349,0.128c-0.159,0-0.31-0.069-0.415-0.191c-0.038-0.044-0.059-0.095-0.081-0.146
			c-0.058,0.002-0.117,0.004-0.173,0.004c-0.661,0-1.186-0.146-1.608-0.41c0.122,0.275,0.265,0.53,0.454,0.743
			c0.412,0.463,0.959,0.748,1.542,0.934c0.482-0.566,1.198-0.845,2.186-0.829c0.031-0.083,0.074-0.161,0.146-0.223
			c0.219-0.187,0.577-0.156,0.764,0.063c0.094,0.11,0.139,0.25,0.128,0.394c-0.011,0.145-0.078,0.276-0.187,0.369
			c-0.098,0.083-0.222,0.129-0.349,0.129c-0.159,0-0.311-0.07-0.415-0.19c-0.034-0.041-0.052-0.087-0.072-0.132
			c-0.777-0.01-1.355,0.168-1.758,0.545c0.715,0.164,1.448,0.205,2.036,0.235c0.38,0.021,0.699,0.037,0.94,0.082
			c0.031-0.063,0.075-0.12,0.131-0.169c0.219-0.187,0.576-0.156,0.763,0.063c0.095,0.109,0.14,0.25,0.13,0.395
			c-0.012,0.144-0.079,0.276-0.188,0.369c-0.097,0.082-0.221,0.128-0.349,0.128c-0.159,0-0.31-0.069-0.415-0.191
			c-0.045-0.054-0.077-0.113-0.098-0.177c-0.21-0.05-0.546-0.068-0.937-0.089c-1.266-0.067-3.181-0.169-4.306-1.433
			c-0.375-0.422-0.62-0.954-0.76-1.57c-0.012-0.017-0.026-0.026-0.038-0.041l0.027-0.019c-0.092-0.436-0.133-0.909-0.109-1.434
			c-1.62-0.527-3.368-1.57-5.229-3.147c-3.287-2.782-8.142,0.715-8.257,0.799c-0.007,0.026-0.01,0.051-0.02,0.078
			c-0.167,0.434-0.343,0.65-0.448,0.78c-0.003,0.005-0.006,0.008-0.009,0.012c0.049,0.139,0.184,0.406,0.259,0.449h0.17l0.029,0.166
			c0.033,0.174-0.129,0.237-0.208,0.269c-0.101,0.038-0.173,0.072-0.216,0.1c0.007,0.004,0.015,0.008,0.021,0.011
			c0.078,0.037,0.19,0.092,0.271,0.207c0.324-0.311,0.91-0.813,1.683-1.274c0.164-0.931,0.893-1.457,1.559-1.809
			c0.014-0.135,0.075-0.266,0.185-0.359c0.219-0.187,0.577-0.156,0.764,0.063c0.093,0.11,0.139,0.251,0.128,0.395
			c-0.01,0.144-0.078,0.275-0.187,0.369c-0.098,0.083-0.221,0.128-0.349,0.128c-0.16,0-0.311-0.07-0.415-0.191
			c-0.001-0.002-0.001-0.002-0.001-0.003c-0.486,0.262-0.957,0.605-1.179,1.126c0.907-0.463,2.015-0.822,3.244-0.787
			c1.908,0.051,3.688,1.048,5.301,2.946c0.219-0.139,0.531-0.106,0.702,0.097c0.095,0.109,0.14,0.249,0.13,0.393
			c-0.011,0.144-0.078,0.276-0.188,0.369c-0.097,0.084-0.221,0.129-0.349,0.129c-0.159,0-0.31-0.069-0.414-0.191
			c-0.108-0.127-0.141-0.287-0.116-0.44c-0.501-0.601-1.018-1.105-1.549-1.521c0.384,1.357,1.255,2.057,1.782,2.364
			c0.601,0.352,1.252,0.482,1.707,0.365c-0.007-0.16,0.048-0.321,0.179-0.435c0.219-0.186,0.576-0.156,0.763,0.064
			c0.094,0.109,0.14,0.249,0.129,0.394s-0.077,0.276-0.187,0.369c-0.098,0.083-0.221,0.129-0.349,0.129
			c-0.13,0-0.248-0.056-0.345-0.14c-0.161,0.052-0.336,0.08-0.526,0.08c-0.487,0-1.049-0.164-1.579-0.473
			c-1.083-0.632-1.833-1.752-2.078-3.079c-0.967-0.636-1.977-0.982-3.024-1.011c-2.78-0.07-4.941,2.018-5.336,2.428
			c-0.001,0.013,0.002,0.021,0,0.035c-0.042,0.259-0.166,1.049,0.159,1.479c0.088,0.117,0.215,0.188,0.362,0.241
			c0.181-0.229,0.637-0.741,1.292-1.201c0.269-0.661,0.839-1.465,1.725-1.864c0.773-0.349,1.644-0.339,2.589,0.017
			c0.011-0.011,0.016-0.024,0.027-0.033c0.217-0.187,0.575-0.157,0.763,0.062c0.093,0.111,0.139,0.25,0.128,0.394
			c-0.01,0.145-0.077,0.276-0.188,0.37c-0.097,0.083-0.221,0.127-0.349,0.127c-0.159,0-0.311-0.068-0.414-0.19
			c-0.086-0.101-0.123-0.226-0.124-0.349c-0.834-0.313-1.597-0.324-2.265-0.022c-0.536,0.241-0.932,0.657-1.212,1.085
			c0.505-0.254,1.081-0.446,1.733-0.473c1.542-0.067,3.071,0.778,4.53,2.504c0.137,0.162,0.279,0.315,0.423,0.466
			c0.663-0.374,1.444-0.375,2.381,0.005c0.024-0.033,0.043-0.069,0.076-0.097c0.219-0.188,0.577-0.156,0.764,0.063
			c0.093,0.11,0.14,0.25,0.128,0.394c-0.011,0.146-0.077,0.275-0.188,0.369c-0.097,0.084-0.221,0.128-0.349,0.128
			c-0.16,0-0.311-0.07-0.415-0.19c-0.066-0.079-0.098-0.171-0.113-0.267c-0.787-0.332-1.435-0.357-1.978-0.101
			c0.772,0.739,1.616,1.324,2.461,1.74c0.093-0.205,0.255-0.414,0.405-0.563c0.148-0.147,0.422-0.366,0.736-0.438
			c0.031-0.059,0.072-0.114,0.125-0.159c0.219-0.187,0.576-0.156,0.763,0.063c0.095,0.11,0.14,0.249,0.129,0.394
			c-0.011,0.145-0.077,0.276-0.188,0.369c-0.098,0.083-0.221,0.128-0.349,0.128c-0.16,0-0.311-0.07-0.414-0.191
			c-0.043-0.052-0.072-0.108-0.094-0.168c-0.134,0.057-0.278,0.154-0.418,0.294c-0.172,0.17-0.273,0.33-0.324,0.44
			c1.669,0.73,3.282,0.82,4.254,0.256c-0.034-0.185,0.02-0.379,0.171-0.508c0.217-0.187,0.575-0.156,0.763,0.063
			c0.093,0.109,0.139,0.25,0.128,0.393c-0.01,0.146-0.077,0.276-0.188,0.37c-0.096,0.083-0.221,0.128-0.349,0.128
			c-0.111,0-0.213-0.044-0.302-0.107c-0.49,0.291-1.11,0.446-1.815,0.446c-0.277,0-0.567-0.027-0.865-0.073
			c0.287,0.491,0.805,0.831,1.583,1.024c0.024-0.032,0.042-0.068,0.074-0.095c0.219-0.187,0.577-0.156,0.763,0.063
			c0.094,0.11,0.14,0.251,0.129,0.396c-0.01,0.144-0.077,0.275-0.187,0.368c-0.098,0.083-0.221,0.129-0.35,0.129
			c-0.159,0-0.31-0.069-0.413-0.191c-0.069-0.08-0.1-0.174-0.115-0.271c-1.047-0.26-1.706-0.758-2-1.523
			c-1.715-0.393-3.636-1.479-5.159-3.28c-0.67-0.791-1.347-1.383-2.03-1.779c-0.118,0.561,0.043,1.148,0.494,1.785
			c0.195-0.047,0.415,0.009,0.548,0.166c0.094,0.11,0.14,0.25,0.129,0.394c-0.011,0.146-0.077,0.275-0.187,0.369
			c-0.098,0.084-0.221,0.128-0.349,0.128c-0.16,0-0.311-0.07-0.415-0.19c-0.15-0.177-0.165-0.42-0.061-0.61
			c-0.563-0.786-0.743-1.521-0.549-2.237c-0.589-0.274-1.182-0.409-1.779-0.383c-1.608,0.065-2.8,1.228-3.265,1.758
			c0.087,0.009,0.181,0.018,0.28,0.028c1.485,0.145,3.97,0.385,4.324,1.826c0.365,1.484,0.1,5.191-0.613,6.43
			c-0.037,0.066-0.106,0.103-0.177,0.103c-0.035,0-0.07-0.009-0.103-0.027c-0.098-0.058-0.132-0.183-0.075-0.28
			c0.66-1.147,0.911-4.738,0.569-6.127c-0.285-1.158-2.68-1.39-3.965-1.515c-0.204-0.021-0.384-0.038-0.53-0.057
			c-0.375-0.045-0.665-0.202-0.862-0.465c-0.43-0.571-0.285-1.489-0.238-1.792c0.036-0.226-0.007-0.247-0.124-0.302
			c-0.094-0.044-0.251-0.118-0.289-0.313c-0.039-0.209,0.108-0.349,0.265-0.438c-0.033-0.048-0.067-0.102-0.101-0.164
			c-0.247-0.453-0.175-0.563-0.146-0.611c0.021-0.031,0.048-0.065,0.082-0.108c0.096-0.118,0.24-0.297,0.384-0.671
			c0.069-0.179-0.099-0.379-0.344-0.639c-0.18-0.192-0.351-0.373-0.377-0.584c-0.039-0.299,0.29-0.588,0.788-1.028
			c0.382-0.336,0.814-0.718,1.091-1.125c0.076-0.112,0.135-0.227,0.18-0.349c0.096-0.26,0.116-0.527,0.139-0.837
			c0.038-0.495,0.084-1.113,0.481-1.921c0.757-1.539,1.715-1.982,1.755-2c0.015-0.015,4.095-2.787,8.258,1.356
			c0.629-0.506,1.445-0.626,2.497-0.345c0.015-0.016,0.022-0.036,0.04-0.05c0.218-0.187,0.577-0.157,0.763,0.063
			c0.094,0.111,0.14,0.25,0.129,0.394c-0.011,0.146-0.078,0.276-0.188,0.369c-0.097,0.084-0.221,0.128-0.348,0.128
			c-0.159,0-0.311-0.07-0.415-0.191c-0.08-0.094-0.113-0.208-0.12-0.322c-0.883-0.229-1.561-0.141-2.073,0.253
			c0.337,0.363,0.675,0.768,1.01,1.228c0.185-0.03,0.385,0.023,0.509,0.17c0.095,0.11,0.14,0.25,0.129,0.394
			c-0.011,0.144-0.078,0.276-0.188,0.37c-0.097,0.082-0.221,0.127-0.348,0.127c-0.16,0-0.311-0.069-0.415-0.191
			c-0.16-0.187-0.162-0.45-0.033-0.646c-2.932-4.014-5.933-3.917-7.626-3.391c0.328,0.618,1.303,2.028,3.268,1.745
			c0.026-0.106,0.075-0.208,0.164-0.283c0.218-0.187,0.576-0.156,0.763,0.063c0.094,0.11,0.139,0.25,0.128,0.394
			c-0.01,0.144-0.077,0.275-0.187,0.37c-0.097,0.083-0.221,0.128-0.349,0.128c-0.159,0-0.311-0.07-0.415-0.191
			c-0.019-0.023-0.026-0.052-0.042-0.076c-0.187,0.025-0.37,0.045-0.544,0.045c-1.577,0-2.655-1.031-3.171-2.059
			c-0.582,0.225-0.942,0.469-0.993,0.504c-0.042,0.024-0.903,0.433-1.589,1.826c-0.363,0.737-0.404,1.286-0.44,1.771
			c-0.013,0.159-0.025,0.315-0.048,0.469c0.291-0.179,0.707-0.413,1.216-0.638h-0.004c-0.033-0.86,0.405-1.596,1.331-2.247
			c-0.013-0.167,0.041-0.337,0.178-0.454c0.218-0.186,0.576-0.156,0.763,0.064c0.094,0.108,0.14,0.249,0.128,0.393
			c-0.01,0.144-0.076,0.276-0.187,0.37c-0.098,0.082-0.221,0.128-0.35,0.128c-0.125,0-0.237-0.054-0.333-0.13
			c-0.709,0.511-1.067,1.069-1.101,1.697c1.423-0.554,3.406-0.937,5.419-0.094c0.466-0.556,1.158-0.831,2.111-0.834
			c0.031-0.084,0.075-0.165,0.148-0.227c0.218-0.187,0.576-0.155,0.763,0.063c0.093,0.111,0.139,0.251,0.128,0.395
			c-0.011,0.144-0.076,0.275-0.187,0.369c-0.098,0.083-0.221,0.129-0.35,0.129c-0.159,0-0.31-0.07-0.415-0.192
			c-0.032-0.038-0.051-0.083-0.07-0.128c-0.774,0.004-1.347,0.202-1.739,0.604c0.748,0.374,1.495,0.927,2.215,1.712
			c0.276-0.491,0.84-0.938,1.566-1.195c1.153-0.411,2.458-0.275,3.612,0.356c0.219-0.138,0.53-0.104,0.701,0.096
			c0.094,0.111,0.14,0.25,0.129,0.395c-0.011,0.145-0.078,0.275-0.188,0.37c-0.098,0.083-0.221,0.128-0.348,0.128
			c-0.161,0-0.312-0.07-0.415-0.192c-0.111-0.13-0.141-0.295-0.113-0.452c-1.407-0.759-2.627-0.531-3.241-0.313
			c-0.113,0.04-0.215,0.093-0.319,0.142c0.396,0.519,1.032,0.763,1.922,0.757c0.032-0.083,0.075-0.161,0.146-0.221
			c0.218-0.187,0.576-0.157,0.763,0.063c0.094,0.11,0.14,0.25,0.129,0.394c-0.012,0.145-0.078,0.276-0.188,0.369
			c-0.098,0.084-0.221,0.128-0.349,0.128c-0.159,0-0.31-0.07-0.415-0.191c-0.031-0.037-0.047-0.081-0.068-0.122
			c-0.025,0-0.052,0.002-0.077,0.002c-1.033,0-1.763-0.323-2.23-0.974c-0.351,0.229-0.616,0.5-0.731,0.78
			c1.659,1.935,3.708,1.738,4.513,1.563c1.035-0.228,1.781-0.749,1.974-1.164c-0.028-0.021-0.061-0.037-0.084-0.064
			c-0.194-0.227-0.168-0.57,0.059-0.764c0.218-0.186,0.576-0.155,0.763,0.064c0.095,0.11,0.139,0.25,0.129,0.394
			c-0.011,0.145-0.079,0.276-0.188,0.37c-0.082,0.069-0.18,0.104-0.284,0.117c-0.142,0.353-0.51,0.7-1.016,0.979
			c0.389,0.356,0.944,0.53,1.679,0.531c0.029-0.093,0.075-0.18,0.153-0.248c0.219-0.186,0.577-0.156,0.764,0.064
			c0.094,0.11,0.139,0.25,0.129,0.394c-0.011,0.144-0.078,0.276-0.188,0.37c-0.097,0.083-0.221,0.128-0.349,0.128
			c-0.159,0-0.311-0.07-0.414-0.191c-0.024-0.029-0.035-0.063-0.052-0.095c-0.023,0-0.047,0.001-0.07,0.001
			c-0.907,0-1.57-0.262-2.038-0.764c-0.273,0.115-0.569,0.213-0.879,0.28c-0.262,0.058-0.642,0.117-1.094,0.117
			c-0.604,0-1.337-0.115-2.088-0.47c0.156,0.405,0.516,0.837,1.002,1.171c0.54,0.37,1.665,0.907,3.228,0.529
			c0.014-0.132,0.075-0.261,0.183-0.353c0.219-0.187,0.576-0.157,0.763,0.063c0.094,0.11,0.14,0.25,0.129,0.394
			c-0.011,0.145-0.078,0.276-0.188,0.37c-0.097,0.083-0.221,0.128-0.349,0.128c-0.16,0-0.311-0.07-0.414-0.191
			c-0.004-0.004-0.005-0.012-0.009-0.017c-0.383,0.093-0.768,0.15-1.147,0.15c-0.879,0-1.724-0.25-2.429-0.734
			c-0.72-0.495-1.201-1.175-1.26-1.78c-0.002-0.002-0.004-0.004-0.007-0.004c-0.16,0.569-0.021,1.174,0.418,1.836
			c0.214-0.099,0.487-0.058,0.644,0.126c0.095,0.111,0.14,0.25,0.129,0.394c-0.011,0.144-0.078,0.276-0.188,0.369
			c-0.097,0.084-0.221,0.129-0.348,0.129c-0.16,0-0.311-0.069-0.415-0.191c-0.12-0.141-0.146-0.324-0.103-0.489
			c-0.608-0.864-0.775-1.66-0.504-2.424c-0.303-0.231-0.604-0.506-0.892-0.847c-4.218-4.986-9.411-1.216-9.805-0.918
			c-0.046,0.101-0.089,0.203-0.154,0.298c-0.305,0.45-0.758,0.85-1.159,1.202c-0.268,0.237-0.635,0.56-0.652,0.676
			c0.011,0.069,0.155,0.223,0.271,0.346c0.138,0.148,0.302,0.327,0.396,0.529c0.432-0.29,1.551-0.979,2.946-1.422
			c0.828-1.086,1.753-1.704,2.752-1.835c1.679-0.221,3.191,0.956,4.193,1.734c0.264,0.206,0.502,0.389,0.684,0.501
			c0.22-0.158,0.551-0.127,0.729,0.082c0.094,0.11,0.14,0.25,0.129,0.394c-0.011,0.145-0.078,0.276-0.188,0.37
			c-0.097,0.082-0.221,0.128-0.349,0.128c-0.159,0-0.311-0.07-0.415-0.191c-0.105-0.125-0.14-0.282-0.118-0.432
			c-0.203-0.124-0.442-0.308-0.724-0.527c-0.949-0.737-2.382-1.852-3.889-1.65c-0.74,0.097-1.438,0.523-2.091,1.233
			c1.582-0.367,3.393-0.32,4.912,0.967c3.067,2.596,5.794,3.738,8.105,3.395c2.475-0.369,3.777-2.375,4.21-3.046
			c-0.146-0.225-0.116-0.525,0.093-0.703c0.219-0.186,0.576-0.156,0.763,0.063c0.095,0.11,0.139,0.25,0.129,0.394
			c-0.012,0.145-0.079,0.276-0.188,0.37c-0.097,0.082-0.221,0.128-0.349,0.128c-0.037,0-0.07-0.017-0.105-0.023
			c-0.351,0.544-1.237,1.892-2.808,2.684c0.64,0.269,1.41,0.153,2.017-0.086c-0.014-0.167,0.039-0.34,0.177-0.457
			c0.219-0.187,0.577-0.155,0.763,0.063c0.094,0.109,0.14,0.25,0.129,0.394c-0.011,0.146-0.078,0.275-0.188,0.37
			c-0.098,0.083-0.221,0.128-0.348,0.128s-0.242-0.054-0.337-0.133c-0.299,0.122-0.812,0.292-1.397,0.292
			c-0.426,0-0.883-0.094-1.303-0.365c-0.369,0.145-0.761,0.268-1.197,0.333c-0.161,0.023-0.328,0.024-0.492,0.037
			c0.324,0.459,0.807,0.771,1.463,0.912c1.386,0.295,3.29-0.223,4.6-1.232c-0.06-0.199-0.003-0.425,0.165-0.567
			c0.219-0.187,0.577-0.156,0.763,0.064c0.095,0.109,0.14,0.248,0.129,0.393c-0.011,0.145-0.078,0.276-0.188,0.37
			C32.676,20.315,32.552,20.361,32.424,20.361"/>
		<path fill="#752F8A" d="M32.417,19.704c-0.019,0-0.047,0.004-0.073,0.025c-0.048,0.042-0.053,0.115-0.012,0.164
			c0.036,0.041,0.091,0.077,0.165,0.017c0.031-0.027,0.038-0.061,0.039-0.079c0.002-0.031-0.008-0.061-0.029-0.085
			C32.485,19.719,32.453,19.704,32.417,19.704"/>
		<path fill="#752F8A" d="M26.213,22.257c0.032-0.026,0.038-0.061,0.039-0.078c0.002-0.032-0.007-0.062-0.028-0.085
			c-0.023-0.028-0.056-0.043-0.091-0.043c-0.018,0-0.046,0.004-0.072,0.025c-0.048,0.042-0.053,0.115-0.011,0.165
			C26.085,22.282,26.14,22.318,26.213,22.257"/>
		<path fill="#752F8A" d="M28.622,23.092c0.031-0.026,0.038-0.061,0.039-0.077c0.002-0.031-0.007-0.062-0.028-0.086
			c-0.023-0.027-0.056-0.043-0.091-0.043c-0.019,0-0.047,0.004-0.073,0.027c-0.048,0.041-0.053,0.114-0.011,0.164
			C28.493,23.118,28.548,23.154,28.622,23.092"/>
		<path fill="#752F8A" d="M26.755,25.247c0.032-0.027,0.037-0.061,0.039-0.078c0.002-0.032-0.007-0.061-0.028-0.085
			c-0.022-0.028-0.056-0.043-0.091-0.043c-0.019,0-0.047,0.004-0.073,0.026c-0.047,0.042-0.053,0.115-0.011,0.164
			C26.626,25.272,26.682,25.309,26.755,25.247"/>
		<path fill="#752F8A" d="M23.225,24.169c0.031-0.026,0.037-0.06,0.039-0.077c0.002-0.031-0.008-0.062-0.028-0.086
			c-0.023-0.027-0.056-0.042-0.091-0.042c-0.018,0-0.046,0.005-0.072,0.026c-0.048,0.041-0.053,0.114-0.011,0.163
			C23.096,24.195,23.151,24.231,23.225,24.169"/>
		<path fill="#752F8A" d="M25.785,27.396c0.031-0.026,0.037-0.06,0.039-0.078c0.002-0.031-0.007-0.061-0.028-0.086
			c-0.023-0.027-0.056-0.042-0.091-0.042c-0.02,0-0.046,0.005-0.073,0.026c-0.048,0.042-0.054,0.115-0.01,0.163
			C25.656,27.422,25.712,27.458,25.785,27.396"/>
		<path fill="#752F8A" d="M20.817,26.9c-0.019,0-0.047,0.005-0.073,0.026c-0.048,0.042-0.053,0.115-0.012,0.164
			c0.036,0.041,0.091,0.076,0.165,0.016c0.031-0.026,0.038-0.06,0.039-0.077c0.002-0.032-0.008-0.063-0.029-0.088
			C20.885,26.916,20.853,26.9,20.817,26.9"/>
		<path fill="#752F8A" d="M16.161,19.311c0.032-0.026,0.037-0.061,0.039-0.078c0.002-0.03-0.007-0.061-0.028-0.086
			c-0.023-0.026-0.057-0.042-0.091-0.042c-0.018,0-0.046,0.005-0.072,0.026c-0.048,0.042-0.053,0.115-0.011,0.165
			C16.032,19.337,16.087,19.373,16.161,19.311"/>
		<path fill="#752F8A" d="M22.539,21.877c0.031-0.027,0.037-0.061,0.039-0.077c0.002-0.032-0.007-0.063-0.028-0.086
			c-0.022-0.028-0.056-0.043-0.091-0.043c-0.018,0-0.046,0.004-0.073,0.026c-0.047,0.041-0.052,0.114-0.01,0.164
			C22.41,21.902,22.465,21.939,22.539,21.877"/>
	</g>
	<g>
		<path fill="#752F8A" d="M40.879,15.093c0,0,0-0.184,0.669-0.184c0.7,0,0.762,0.184,0.762,0.184l2.507,5.995l2.542-5.995
			c0,0,0.062-0.184,0.776-0.184c0.641,0,0.641,0.184,0.641,0.184l-3.333,7.349c0,0-0.059,0.169-0.625,0.169
			c-0.545,0-0.591-0.169-0.591-0.169L40.879,15.093z"/>
		<path fill="#752F8A" d="M50.724,11.668c0.561,0,0.729,0.183,0.729,0.868c0,0.714-0.168,0.852-0.729,0.852
			c-0.549,0-0.716-0.137-0.716-0.852C50.008,11.851,50.174,11.668,50.724,11.668z M50.067,15.093c0,0,0-0.214,0.657-0.214
			c0.668,0,0.668,0.214,0.668,0.214v7.335c0,0,0,0.212-0.668,0.212c-0.657,0-0.657-0.212-0.657-0.212V15.093z"/>
		<path fill="#752F8A" d="M54.893,18.973v3.455c0,0,0,0.212-0.671,0.212c-0.656,0-0.656-0.212-0.656-0.212V11.593
			c0,0,0-0.214,0.656-0.214c0.671,0,0.671,0.214,0.671,0.214v6.771l2.922-3.272c0,0,0.136-0.184,0.851-0.184
			c0.683,0,0.683,0.184,0.683,0.184l-3.363,3.575l3.562,3.76c0,0,0,0.183-0.669,0.183c-0.73,0-0.866-0.183-0.866-0.183
			L54.893,18.973z"/>
		<path fill="#752F8A" d="M61.418,11.668c0.562,0,0.73,0.183,0.73,0.868c0,0.714-0.169,0.852-0.73,0.852
			c-0.548,0-0.715-0.137-0.715-0.852C60.704,11.851,60.87,11.668,61.418,11.668z M60.763,15.093c0,0,0-0.214,0.655-0.214
			c0.669,0,0.669,0.214,0.669,0.214v7.335c0,0,0,0.212-0.669,0.212c-0.655,0-0.655-0.212-0.655-0.212V15.093z"/>
	</g>
</g>
</svg>
